<?xml version="1.0" standalone="no"?>
<!DOCTYPE svg PUBLIC "-//W3C//DTD SVG 1.1//EN" "http://www.w3.org/Graphics/SVG/1.1/DTD/svg11.dtd" >
<svg>
<metadata>
Created by FontForge 20090914 at Fri Jul 19 21:43:31 2013
 By www-data
Copyright SIL International, all rights reserved
</metadata>
<defs>
<font id="-" horiz-adv-x="0" >
  <font-face 
    font-family="Padauk"
    font-weight="700"
    font-stretch="normal"
    units-per-em="1024"
    panose-1="2 0 6 0 2 0 0 2 0 4"
    ascent="819"
    descent="-205"
    x-height="445"
    cap-height="643"
    bbox="-821 -497 2138 970.005"
    underline-thickness="50"
    underline-position="-400"
    unicode-range="U+0020-U+AA7B"
  />
<missing-glyph horiz-adv-x="586" 
d="M530 464v-469h-475v469h475zM107 412v-364h373v364h-373z" />
    <glyph glyph-name=".notdef" horiz-adv-x="586" 
d="M530 464v-469h-475v469h475zM107 412v-364h373v364h-373z" />
    <glyph glyph-name="space" unicode=" " horiz-adv-x="503" 
 />
    <glyph glyph-name="exclam" unicode="!" horiz-adv-x="273" 
d="M218 59c0 -11.333 -2.16699 -21.666 -6.5 -30.999s-10.333 -17.666 -18 -24.999s-16.334 -13 -26.001 -17s-19.834 -6 -30.501 -6c-22 0 -41 7.66699 -57 23s-24 34 -24 56c0 21.333 8 39.666 24 54.999s35 23 57 23c10.667 0 20.834 -2 30.501 -6
s18.334 -9.5 26.001 -16.5s13.667 -15.333 18 -25s6.5 -19.834 6.5 -30.501zM137 813c15.333 0 27.3301 -5.66895 35.9971 -17.002s13.667 -25.666 15 -42.999c2 -23.333 3 -51 3 -83c0 -76.667 -2.5 -150.5 -7.5 -221.5s-11.167 -131.5 -18.5 -181.5
c-3.33301 -26 -6.5 -43.667 -9.5 -53s-9.16699 -14 -18.5 -14s-15.666 4.66699 -18.999 14s-6.66602 27.333 -9.99902 54c-3.33301 24.667 -6.5 52.334 -9.5 83.001s-5.66699 63.334 -8 98.001s-4.16602 70.667 -5.49902 108s-2 75 -2 113c0 32 1 59.667 3 83
c1.33301 17.333 6.33301 31.666 15 42.999s20.667 17 36 17z" />
    <glyph glyph-name="quotedbl" unicode="&#x22;" horiz-adv-x="443" 
d="M358 385h-76l-22 258h120zM159 385h-75l-22 258h120z" />
    <glyph glyph-name="numbersign" unicode="#" horiz-adv-x="554" 
d="M394 88l-14 -113h-93l15 113h-85l-14 -113h-93l15 113h-70v92h82l10 85h-92v92h104l18 128h92l-17 -128h84l18 128h92l-17 -128h70v-92h-82l-11 -85h93v-92h-105zM240 265l-11 -85h85l10 85h-84z" />
    <glyph glyph-name="dollar" unicode="$" horiz-adv-x="507" 
d="M479 182c0 -30.667 -5.83008 -57.499 -17.4971 -80.499s-27 -42.5 -46 -58.5s-40.5 -28.5 -64.5 -37.5s-48.667 -14.833 -74 -17.5v-80h-46v79c-64.667 5.33301 -114.834 26 -150.501 62s-53.5 85.333 -53.5 148h110c0 -34 7.16699 -61 21.5 -81s38.5 -31.333 72.5 -34
v197c-26.667 8 -51.5 16.167 -74.5 24.5s-43 18.833 -60 31.5s-30.5 28.834 -40.5 48.501s-15 44.834 -15 75.501c0 27.333 5.16699 52.5 15.5 75.5s24.166 43 41.499 60s37.5 30.167 60.5 39.5s47.167 14 72.5 14v60h46v-59c27.333 0 52.166 -4.66699 74.499 -14
s41.5 -22.166 57.5 -38.499s28.333 -35.833 37 -58.5s13 -47.334 13 -74.001h-110c0 30 -5.66699 52.167 -17 66.5s-29.666 23.166 -54.999 26.499v-185c23.333 -6.66699 47 -13.834 71 -21.501s45.667 -18.167 65 -31.5s35.166 -30.833 47.499 -52.5
s18.5 -49.834 18.5 -84.501zM231.003 555.001c-32.667 -4.66699 -54.499 -14.668 -65.499 -30.001s-16.5 -34.333 -16.5 -57c0 -11.333 1.66699 -21.166 5 -29.499s8.5 -15.5 15.5 -21.5s15.667 -11.5 26 -16.5s22.166 -9.83301 35.499 -14.5v169zM371.004 172
c0 28 -8.16699 48.666 -24.5 61.999s-39.5 25 -69.5 35v-186c26.667 2.66699 49 10.834 67 24.501s27 35.167 27 64.5z" />
    <glyph glyph-name="percent" unicode="%" horiz-adv-x="741" 
d="M226 -69l-71 60l356 506l75 -56zM316 346c0 -17.333 -3.5 -33.833 -10.5 -49.5s-16.5 -29.667 -28.5 -42s-26 -22.166 -42 -29.499s-32.667 -11 -50 -11c-18 0 -35.167 3.66699 -51.5 11s-30.666 17.166 -42.999 29.499s-22 26.333 -29 42s-10.5 32.167 -10.5 49.5
c0 18 3.5 35.167 10.5 51.5s16.667 30.666 29 42.999s26.666 22.166 42.999 29.499s33.5 11 51.5 11c17.333 0 34 -3.66699 50 -11s30 -17.166 42 -29.499s21.5 -26.666 28.5 -42.999s10.5 -33.5 10.5 -51.5zM689 84c0 -17.333 -3.5 -34 -10.5 -50
s-16.5 -30.167 -28.5 -42.5s-26 -22.166 -42 -29.499s-32.667 -11 -50 -11c-18 0 -35 3.66699 -51 11s-30.167 17.166 -42.5 29.499s-22 26.5 -29 42.5s-10.5 32.667 -10.5 50c0 18 3.5 35.167 10.5 51.5s16.667 30.5 29 42.5s26.5 21.667 42.5 29s33 11 51 11
c17.333 0 34 -3.66699 50 -11s30 -17 42 -29s21.5 -26.167 28.5 -42.5s10.5 -33.5 10.5 -51.5zM238 346c0 15.333 -5.5 28.666 -16.5 39.999s-23.167 17 -36.5 17c-16 0 -29.5 -5.66699 -40.5 -17s-16.5 -24.666 -16.5 -39.999s5.5 -28.5 16.5 -39.5s24.5 -16.5 40.5 -16.5
c13.333 0 25.5 5.5 36.5 16.5s16.5 24.167 16.5 39.5zM612 84c0 14.667 -5.5 27.834 -16.5 39.501s-23.5 17.5 -37.5 17.5c-16 0 -29.333 -5.83301 -40 -17.5s-16 -24.834 -16 -39.501c0 -15.333 5.33301 -28.666 16 -39.999s24 -17 40 -17c14 0 26.5 5.66699 37.5 17
s16.5 24.666 16.5 39.999z" />
    <glyph glyph-name="ampersand" unicode="&#x26;" horiz-adv-x="696" 
d="M543 0l-55 51.002c-22.667 -19.333 -50.667 -34.666 -84 -45.999s-71.666 -17 -114.999 -17c-30 0 -59.5 3.83301 -88.5 11.5s-54.667 19.167 -77 34.5s-40.333 35 -54 59s-20.5 52 -20.5 84c0 47.333 12.167 86.166 36.5 116.499s57.5 55.5 99.5 75.5
c-24.667 21.333 -43.667 44.666 -57 69.999s-20 52.333 -20 81c0 23.333 5.33301 43.5 16 60.5s24.5 31 41.5 42s36 19.167 57 24.5s41.833 8 62.5 8c21.333 0 42.333 -2.5 63 -7.5s39.334 -12.5 56.001 -22.5s30 -22.833 40 -38.5s15 -34.167 15 -55.5
c0 -22.667 -4.16699 -42.834 -12.5 -60.501s-19 -33.5 -32 -47.5s-27.5 -26.667 -43.5 -38l-47 -32c20.667 -26 43.5 -52 68.5 -78l82.5 -82c9.33301 24 15.166 48.667 17.499 74s2.5 52.333 0.5 81h112c-2 -41.333 -7.16699 -80.833 -15.5 -118.5
s-21.166 -73.834 -38.499 -108.501c13.333 -16.667 32.666 -36.167 57.999 -58.5s51.666 -43.166 78.999 -62.499h-145zM361 517.002c0 6.66699 -2 13.5029 -6 20.5029s-9.16699 13.167 -15.5 18.5s-13.666 9.66602 -21.999 12.999s-16.833 5 -25.5 5
c-24.667 0 -43.834 -5.83301 -57.501 -17.5s-20.5 -26.167 -20.5 -43.5c0 -26.667 19.333 -61.334 58 -104.001c11.333 6.66699 22.333 14.167 33 22.5s20.167 17.166 28.5 26.499s15 19 20 29s7.5 20 7.5 30zM421 115.005c-37.333 33.333 -71.5 65.833 -102.5 97.5
s-58.5 62.5 -82.5 92.5c-22 -16 -39.667 -34.667 -53 -56s-20 -42.333 -20 -63c0 -16 3.5 -30.833 10.5 -44.5s16.5 -25.667 28.5 -36s25.667 -18.5 41 -24.5s31.666 -9 48.999 -9c26 0 49.833 3.33301 71.5 10s40.834 17.667 57.501 33z" />
    <glyph glyph-name="quotesingle" unicode="'" horiz-adv-x="353" 
d="M214 385h-76l-22 258h120z" />
    <glyph glyph-name="parenleft" unicode="(" horiz-adv-x="440" 
d="M289 -464c-78 97.333 -133.333 202.502 -166 315.502s-49 235.833 -49 368.5c0 134.667 18 258.667 54 372s90.667 221.666 164 324.999h103c-152.667 -212.667 -229 -445 -229 -697c0 -126 18.333 -246.833 55 -362.5s94.667 -222.834 174 -321.501h-106z" />
    <glyph glyph-name="parenright" unicode=")" horiz-adv-x="442" 
d="M367 224c0 -132.667 -16.333 -255.668 -49 -369.001s-88 -218.333 -166 -315h-107c80.667 98 139.167 205.333 175.5 322s54.5 237.334 54.5 362.001c0 126.667 -18.833 247.667 -56.5 363s-95.5 226.666 -173.5 333.999h104
c72.667 -103.333 127.167 -211.666 163.5 -324.999s54.5 -237.333 54.5 -372z" />
    <glyph glyph-name="asterisk" unicode="*" horiz-adv-x="568" 
d="M464 301l-132 79v-155h-93v155l-133 -79l-51 81l137 79l-137 78l51 80l131 -76v153h95v-153l132 76l48 -81l-134 -77l134 -78z" />
    <glyph glyph-name="plus" unicode="+" horiz-adv-x="578" 
d="M485 178h-150v-150h-92v150h-150v93h150v151h92v-151h150v-93z" />
    <glyph glyph-name="comma" unicode="," horiz-adv-x="249" 
d="M208 62c0 -23.333 -3.33203 -45.834 -9.99902 -67.501s-15.167 -41.667 -25.5 -60s-22.333 -34.666 -36 -48.999s-27.5 -25.5 -41.5 -33.5l-12 15c15.333 12 28.833 29.667 40.5 53s17.5 48.333 17.5 75v13.5c0 3 -0.333008 6.16699 -1 9.5
c-3.33301 -2 -8 -4.33301 -14 -7s-12.5 -5.16699 -19.5 -7.5s-13.833 -4.33301 -20.5 -6s-12 -2.5 -16 -2.5c-8.66699 0 -15.834 6.66699 -21.501 20s-8.5 29 -8.5 47c0 12 2.33301 23.333 7 34s10.667 20.167 18 28.5s16 14.833 26 19.5s20.667 7 32 7
c12.667 0 24.167 -2.5 34.5 -7.5s19.333 -11.5 27 -19.5s13.5 -17.333 17.5 -28s6 -22 6 -34z" />
    <glyph glyph-name="hyphen" unicode="-" horiz-adv-x="503" 
d="M447 174h-392v93h392v-93z" />
    <glyph glyph-name="period" unicode="." horiz-adv-x="243" 
d="M203 59c0 -11.333 -2.33301 -21.666 -7 -30.999s-10.667 -17.666 -18 -24.999s-16 -13 -26 -17s-20 -6 -30 -6c-10.667 0 -21 2 -31 6s-18.667 9.66699 -26 17s-13.333 15.666 -18 24.999s-7 19.666 -7 30.999c0 10.667 2.33301 20.834 7 30.501s10.667 18 18 25
s16 12.5 26 16.5s20.333 6 31 6c10 0 20 -2 30 -6s18.667 -9.5 26 -16.5s13.333 -15.333 18 -25s7 -19.834 7 -30.501z" />
    <glyph glyph-name="slash" unicode="/" horiz-adv-x="537" 
d="M127 -254l-72 72l354 1007l72 -68z" />
    <glyph glyph-name="zero" unicode="0" horiz-adv-x="507" 
d="M471 326c0 -49.333 -3.83301 -94.833 -11.5 -136.5s-20 -77.5 -37 -107.5s-39.333 -53.333 -67 -70s-61.5 -25 -101.5 -25c-40.667 0 -74.834 8.33301 -102.501 25s-50 40 -67 70s-29.333 65.833 -37 107.5s-11.5 87.167 -11.5 136.5s3.83301 94.333 11.5 135
s20 75.334 37 104.001s39.333 50.834 67 66.501s61.834 23.5 102.501 23.5c40 0 73.833 -7.83301 101.5 -23.5s50 -37.834 67 -66.501s29.333 -63.334 37 -104.001s11.5 -85.667 11.5 -135zM356 326c0 30.667 -0.833008 60.832 -2.5 90.499s-6 55.834 -13 78.501
s-17.167 41 -30.5 55s-32 21 -56 21s-43 -7 -57 -21s-24.5 -32.5 -31.5 -55.5s-11.5 -49.167 -13.5 -78.5s-3 -59.333 -3 -90s1 -61.167 3 -91.5s6.5 -57.666 13.5 -81.999s17.5 -44 31.5 -59s33 -22.5 57 -22.5s42.667 7.5 56 22.5s23.5 34.667 30.5 59
s11.333 51.666 13 81.999s2.5 60.833 2.5 91.5z" />
    <glyph glyph-name="one" unicode="1" horiz-adv-x="507" 
d="M246 0l0.00195312 523c-44 -38 -93.667 -64.667 -149 -80v97c31.333 11.333 59.666 25.833 84.999 43.5s47.666 37.5 66.999 59.5h104v-643h-107z" />
    <glyph glyph-name="two" unicode="2" horiz-adv-x="507" 
d="M37 0l-0.000976562 104c70.667 53.333 127 99.833 169 139.5s74 74 96 103s36.333 53.333 43 73s10 36.167 10 49.5c0 28 -7.33301 51 -22 69s-36 27 -64 27c-28.667 0 -51.667 -8.66699 -69 -26s-26.666 -41.333 -27.999 -72h-116c0.666992 28.667 6.5 54.667 17.5 78
s26 43.166 45 59.499s41.167 28.833 66.5 37.5s52.666 13 81.999 13c30 0 57.5 -4.5 82.5 -13.5s46.333 -21.5 64 -37.5s31.334 -34.833 41.001 -56.5s14.5 -45.5 14.5 -71.5c0 -23.333 -3.66699 -47.5 -11 -72.5s-21.833 -52.833 -43.5 -83.5s-52.667 -64.667 -93 -102
s-93.5 -79.666 -159.5 -126.999h307v-91h-432z" />
    <glyph glyph-name="three" unicode="3" horiz-adv-x="507" 
d="M465 178c0 -28 -5.83008 -53.667 -17.4971 -77s-27.334 -43.5 -47.001 -60.5s-42.334 -30.167 -68.001 -39.5s-52.167 -14 -79.5 -14c-72 0 -125.333 17.333 -160 52s-52 80.667 -52 138h116c1.33301 -28 9.33301 -52 24 -72s37 -30 67 -30
c29.333 0 53.833 9.66699 73.5 29s29.5 45.333 29.5 78c0 23.333 -3.16699 42.166 -9.5 56.499s-15.833 25.333 -28.5 33s-28.334 12.834 -47.001 15.501s-40.334 4 -65.001 4v88c22 0 41.5 1.5 58.5 4.5s31.333 8.16699 43 15.5s20.5 17.166 26.5 29.499s9 27.833 9 46.5
c0 32 -8.83301 55.5 -26.5 70.5s-38.167 22.5 -61.5 22.5c-26.667 0 -48 -8.16699 -64 -24.5s-25 -39.5 -27 -69.5h-113c2.66699 57.333 22.167 101.833 58.5 133.5s85.5 47.5 147.5 47.5c30 0 57.167 -4.5 81.5 -13.5s45.333 -21.333 63 -37s31.167 -34.5 40.5 -56.5
s14 -46 14 -72c0 -20 -2.83301 -37.5 -8.5 -52.5s-13.167 -28 -22.5 -39s-20.166 -20.333 -32.499 -28s-25.166 -14.5 -38.499 -20.5c16 -5.33301 31 -12 45 -20s26.167 -18.167 36.5 -30.5s18.666 -27.166 24.999 -44.499s9.5 -38.333 9.5 -63z" />
    <glyph glyph-name="four" unicode="4" horiz-adv-x="507" 
d="M404 146v-146h-107v146h-276v108l248 389h135v-404h81v-93h-81zM297 531l-179 -292h179v292z" />
    <glyph glyph-name="five" unicode="5" horiz-adv-x="507" 
d="M468 221c0 -32 -5.66602 -62.167 -16.999 -90.5s-26.833 -53 -46.5 -74s-43 -37.667 -70 -50s-56.167 -18.5 -87.5 -18.5c-61.333 0 -110.833 14.667 -148.5 44s-57.834 72.333 -60.501 129h112c0 -28.667 8 -50 24 -64s39 -21 69 -21c17.333 0 32.833 3.66699 46.5 11
s25.334 17.166 35.001 29.499s17 27 22 44s7.5 35.167 7.5 54.5c0 40 -7.66699 70.667 -23 92s-40 32 -74 32c-27.333 0 -48.833 -6.5 -64.5 -19.5s-29.834 -32.167 -42.501 -57.5h-102l16 381h366v-93h-259l-10 -179c14 17.333 31.167 30.166 51.5 38.499
s46.5 12.5 78.5 12.5c28 0 52.833 -5.66699 74.5 -17s40.167 -26.166 55.5 -44.499s27 -39.666 35 -63.999s12 -49.5 12 -75.5z" />
    <glyph glyph-name="six" unicode="6" horiz-adv-x="507" 
d="M473 209c0 -24.667 -3.83301 -50.1709 -11.5 -76.5039s-20 -50.166 -37 -71.499s-39.333 -39 -67 -53s-61.834 -21 -102.501 -21c-45.333 0 -82.333 8 -111 24s-51.167 38 -67.5 66s-27.5 60.833 -33.5 98.5s-9 78.167 -9 121.5c0 41.333 3 83.166 9 125.499
s17.5 80.833 34.5 115.5s40.667 62.834 71 84.501s69.5 32.5 117.5 32.5c54.667 0 99 -15 133 -45s53.667 -71.667 59 -125h-111c-1.33301 26.667 -9.16602 47.167 -23.499 61.5s-32.833 21.5 -55.5 21.5c-26 0 -47 -9.16699 -63 -27.5s-28.333 -40.333 -37 -66
s-14.5 -52.167 -17.5 -79.5s-4.5 -49.666 -4.5 -66.999c8 11.333 16.167 21.833 24.5 31.5s18.166 18 29.499 25s24.5 12.5 39.5 16.5s32.833 6 53.5 6c32.667 0 60.334 -6.16699 83.001 -18.5s41.167 -28.166 55.5 -47.499s24.833 -40.666 31.5 -63.999s10 -46 10 -68z
M356 199.996c0 41.333 -7.66699 72.333 -23 93s-39.666 31 -72.999 31c-34 0 -58.667 -10.333 -74 -31s-23 -51.667 -23 -93s7.66699 -72.5 23 -93.5s40 -31.5 74 -31.5c33.333 0 57.666 10.5 72.999 31.5s23 52.167 23 93.5z" />
    <glyph glyph-name="seven" unicode="7" horiz-adv-x="507" 
d="M248 0h-131l239 551h-312v92h419v-112z" />
    <glyph glyph-name="eight" unicode="8" horiz-adv-x="507" 
d="M473 166c0 -33.333 -6.5 -61.335 -19.5 -84.002s-29.833 -41 -50.5 -55s-44.167 -24 -70.5 -30s-52.5 -9 -78.5 -9c-28 0 -55.167 3.16699 -81.5 9.5s-49.666 16.5 -69.999 30.5s-36.833 32.333 -49.5 55s-19 50.334 -19 83.001c0 25.333 3.5 47.833 10.5 67.5
s16.167 36.667 27.5 51s24.166 26.166 38.499 35.499s29.166 17 44.499 23c-14 5.33301 -27.5 12.166 -40.5 20.499s-24.5 18.5 -34.5 30.5s-18 26.167 -24 42.5s-9 35.166 -9 56.499c0 30 6.16699 55.333 18.5 76s28.333 37.334 48 50.001s41.834 21.834 66.501 27.501
s49.334 8.5 74.001 8.5s49.334 -2.66699 74.001 -8s46.667 -14.333 66 -27s35.166 -29.5 47.499 -50.5s18.5 -47.5 18.5 -79.5c0 -20 -3.33301 -38 -10 -54s-15.5 -30 -26.5 -42s-23.333 -22.167 -37 -30.5s-27.5 -15.166 -41.5 -20.499
c14.667 -4.66699 29.667 -11.667 45 -21s29.166 -21.166 41.499 -35.499s22.333 -31.5 30 -51.5s11.5 -43 11.5 -69zM344 476.998c0 28 -8.16699 50.167 -24.5 66.5s-38.166 24.5 -65.499 24.5c-28 0 -50.167 -8.16699 -66.5 -24.5s-24.5 -38.5 -24.5 -66.5
c0 -28.667 8.66699 -51 26 -67s39 -24 65 -24c25.333 0 46.666 8 63.999 24s26 38.333 26 67zM358 186.998c0 31.333 -8.83398 57.5 -26.501 78.5s-43.5 31.5 -77.5 31.5c-33.333 0 -59.166 -10.833 -77.499 -32.5s-27.5 -47.5 -27.5 -77.5c0 -31.333 9 -57.833 27 -79.5
s44 -32.5 78 -32.5c34.667 0 60.667 11.167 78 33.5s26 48.5 26 78.5z" />
    <glyph glyph-name="nine" unicode="9" horiz-adv-x="507" 
d="M473 345c0 -41.333 -3.33105 -83.165 -9.99805 -125.498s-18.667 -80.666 -36 -114.999s-41.166 -62.5 -71.499 -84.5s-68.833 -33 -115.5 -33c-26 0 -50.333 4 -73 12s-42.667 19.5 -60 34.5s-31.333 33 -42 54s-16.667 44.5 -18 70.5h112
c1.33301 -28 9.16602 -48.833 23.499 -62.5s33.166 -20.5 56.499 -20.5c25.333 0 46 9 62 27s28.5 39.667 37.5 65s15 51.5 18 78.5s4.5 49.833 4.5 68.5c-14.667 -24.667 -34.5 -43.834 -59.5 -57.501s-54.5 -20.5 -88.5 -20.5c-34.667 0 -63.5 6.5 -86.5 19.5
s-41.333 29.5 -55 49.5s-23.334 41.5 -29.001 64.5s-8.5 44.5 -8.5 64.5c0 26 3.83301 52 11.5 78s20.167 49.667 37.5 71s39.833 38.666 67.5 51.999s61.167 20 100.5 20c46.667 0 84.5 -8.5 113.5 -25.5s51.5 -39.667 67.5 -68s26.833 -61.333 32.5 -99
s8.5 -76.834 8.5 -117.501zM343.002 443.001c0 40.667 -7.66699 71.667 -23 93s-40 32 -74 32s-58.5 -10.667 -73.5 -32s-22.5 -52.333 -22.5 -93c0 -41.333 7.5 -72.5 22.5 -93.5s39.5 -31.5 73.5 -31.5s58.667 10.5 74 31.5s23 52.167 23 93.5z" />
    <glyph glyph-name="colon" unicode=":" horiz-adv-x="243" 
d="M203 384c0 -10.667 -2.33301 -20.834 -7 -30.501s-10.667 -18 -18 -25s-16 -12.667 -26 -17s-20 -6.5 -30 -6.5c-10.667 0 -21 2.16699 -31 6.5s-18.667 10 -26 17s-13.333 15.333 -18 25s-7 19.834 -7 30.501s2.33301 21 7 31s10.667 18.5 18 25.5s16 12.667 26 17
s20.333 6.5 31 6.5c10 0 20 -2.16699 30 -6.5s18.667 -10 26 -17s13.333 -15.5 18 -25.5s7 -20.333 7 -31zM203 59c0 -10.667 -2.33301 -20.834 -7 -30.501s-10.667 -18 -18 -25s-16 -12.667 -26 -17s-20 -6.5 -30 -6.5c-10.667 0 -21 2.16699 -31 6.5s-18.667 10 -26 17
s-13.333 15.333 -18 25s-7 19.834 -7 30.501s2.33301 20.834 7 30.501s10.667 18.167 18 25.5s16 13 26 17s20.333 6 31 6c10 0 20 -2 30 -6s18.667 -9.66699 26 -17s13.333 -15.833 18 -25.5s7 -19.834 7 -30.501z" />
    <glyph glyph-name="semicolon" unicode=";" horiz-adv-x="245" 
d="M203 385c0 -10.667 -2.33301 -20.834 -7 -30.501s-10.667 -18.167 -18 -25.5s-16 -13.166 -26 -17.499s-20 -6.5 -30 -6.5c-10.667 0 -21 2.16699 -31 6.5s-18.667 10.166 -26 17.499s-13.333 15.833 -18 25.5s-7 19.834 -7 30.501s2.33301 20.834 7 30.501
s10.667 18 18 25s16 12.667 26 17s20.333 6.5 31 6.5c10 0 20 -2.16699 30 -6.5s18.667 -10 26 -17s13.333 -15.333 18 -25s7 -19.834 7 -30.501zM198 55c0 -20 -3.00098 -39.334 -9.00098 -58.001s-13.833 -36.167 -23.5 -52.5s-20.667 -31 -33 -44
s-24.5 -23.5 -36.5 -31.5l-17 14c14 11.333 27 27.5 39 48.5s18 44.167 18 69.5v7c0 2.66699 -0.333008 5 -1 7c-5.33301 -2 -11.166 -4.33301 -17.499 -7s-12.833 -5 -19.5 -7s-12.667 -3.66699 -18 -5s-9.33301 -2 -12 -2c-4.66699 0 -10.5 5.16699 -17.5 15.5
s-10.5 26.5 -10.5 48.5c0 10.667 2.16699 20.834 6.5 30.501s10 18.167 17 25.5s15.167 13.333 24.5 18s19 7 29 7c12 0 23 -2.33301 33 -7s18.5 -11 25.5 -19s12.5 -17 16.5 -27s6 -20.333 6 -31z" />
    <glyph glyph-name="less" unicode="&#x3c;" horiz-adv-x="891" 
d="M712 34l-534 204v57l534 204v-75l-422 -157l422 -157v-76z" />
    <glyph glyph-name="equal" unicode="=" horiz-adv-x="586" 
d="M550 78h-515v93h515v-93zM550 275h-515v92h515v-92z" />
    <glyph glyph-name="greater" unicode="&#x3e;" horiz-adv-x="891" 
d="M712 238l-534 -204v76l422 157l-422 157v75l534 -204v-57z" />
    <glyph glyph-name="question" unicode="?" horiz-adv-x="447" 
d="M269 57c0 -18 -6.33301 -33.167 -19 -45.5s-27.667 -18.5 -45 -18.5s-32 6.5 -44 19.5s-18 27.833 -18 44.5c0 17.333 6 31.833 18 43.5s26.667 17.5 44 17.5s32.333 -5.83301 45 -17.5s19 -26.167 19 -43.5zM392 584c0 -26 -3.49902 -47.5 -10.499 -64.5
s-15.667 -31.333 -26 -43s-21.5 -22 -33.5 -31s-23.167 -18 -33.5 -27s-19 -19.167 -26 -30.5s-10.5 -25.333 -10.5 -42v-146h-93v162c0 20.667 3.5 38 10.5 52s15.667 26.167 26 36.5s21.666 19.833 33.999 28.5s23.666 17.834 33.999 27.501s19 20.667 26 33
s10.5 27.166 10.5 44.499c0 12 -2.66699 23.667 -8 35s-12.333 21.5 -21 30.5s-18.667 16.167 -30 21.5s-23 8 -35 8c-14 0 -26.667 -3 -38 -9s-21.166 -13.833 -29.499 -23.5s-14.833 -20.5 -19.5 -32.5s-7 -24 -7 -36v-23h-92v23c0 19.333 4 40.333 12 63
s19.833 43.834 35.5 63.501s35 36 58 49s49.833 19.5 80.5 19.5c28.667 0 54.5 -5.5 77.5 -16.5s42.5 -25.333 58.5 -43s28.333 -37.834 37 -60.501s13 -45.667 13 -69z" />
    <glyph glyph-name="at" unicode="@" horiz-adv-x="915" 
d="M873 270c0 -30.667 -3.99609 -61.5 -11.9961 -92.5s-20 -59 -36 -84s-35.667 -45.5 -59 -61.5s-50.333 -24 -81 -24c-59.333 0 -101 25.667 -125 77c-17.333 -24 -36.5 -42.167 -57.5 -54.5s-45.5 -18.5 -73.5 -18.5c-27.333 0 -52.166 6 -74.499 18
s-41.5 27.833 -57.5 47.5s-28.333 42.334 -37 68.001s-13 52.5 -13 80.5c0 30 4 58.333 12 85s19.667 50 35 70s33.833 35.833 55.5 47.5s46.5 17.5 74.5 17.5c24 0 45.667 -4.5 65 -13.5s37.666 -24.167 54.999 -45.5v48h108v-296c0 -16 4.66699 -27.167 14 -33.5
s18.666 -9.5 27.999 -9.5c17.333 0 33.166 13 47.499 39s21.5 63.333 21.5 112c0 49.333 -6.83301 93.166 -20.5 131.499s-33.334 70.5 -59.001 96.5s-56.834 45.833 -93.501 59.5s-78 20.5 -124 20.5c-43.333 0 -84 -7.83301 -122 -23.5s-71.333 -37.834 -100 -66.501
s-51.167 -63 -67.5 -103s-24.5 -84.333 -24.5 -133c0 -45.333 7.83301 -87 23.5 -125s37.167 -70.667 64.5 -98s59.5 -48.833 96.5 -64.5s76.5 -23.5 118.5 -23.5c44.667 0 82.334 1.66699 113.001 5s59.334 9.66602 86.001 18.999v-103
c-39.333 -7.33301 -72 -12.166 -98 -14.499s-50 -3.5 -72 -3.5c-59.333 0 -115.833 8.5 -169.5 25.5s-100.667 42.833 -141 77.5s-72.5 78 -96.5 130s-36 113 -36 183c0 62.667 11.667 119.334 35 170.001s54.833 94 94.5 130s85.167 63.667 136.5 83s105 29 161 29
c58 0 111.667 -8.83301 161 -26.5s92.166 -43 128.499 -76s64.666 -72.833 84.999 -119.5s30.5 -99 30.5 -157zM543.004 236c0 40 -7.49805 71.167 -22.498 93.5s-38.167 33.5 -69.5 33.5c-16.667 0 -30.834 -4.16699 -42.501 -12.5s-21.167 -19 -28.5 -32
s-12.666 -27.333 -15.999 -43s-5 -30.834 -5 -45.501c0 -15.333 1.5 -31 4.5 -47s8 -30.5 15 -43.5s16.167 -23.667 27.5 -32s25.666 -12.5 42.999 -12.5s32 4.5 44 13.5s21.667 20.333 29 34s12.666 28.834 15.999 45.501s5 32.667 5 48z" />
    <glyph glyph-name="A" unicode="A" horiz-adv-x="645" 
d="M516 0l-58 149h-275l-56 -149h-117l251 643h121l252 -643h-118zM321 514l-101 -273h200z" />
    <glyph glyph-name="B" unicode="B" horiz-adv-x="600" 
d="M550 170c0 -26.667 -6.5 -50.5 -19.5 -71.5s-29.5 -38.833 -49.5 -53.5s-42.333 -25.834 -67 -33.501s-49 -11.5 -73 -11.5h-275v643h262c25.333 0 49.666 -3.16699 72.999 -9.5s43.833 -16 61.5 -29s31.834 -29.5 42.501 -49.5s16 -43.333 16 -70
c0 -20 -3.33301 -37.833 -10 -53.5s-15.667 -29.5 -27 -41.5s-24.333 -22.5 -39 -31.5s-30 -16.5 -46 -22.5c21.333 -6 41.166 -13.667 59.499 -23s34.333 -20.666 48 -33.999s24.334 -28.833 32.001 -46.5s11.5 -38.5 11.5 -62.5zM405 464c0 27.333 -10 48.333 -30 63
s-47 22 -81 22h-111v-170h104c36 0 64.667 7.66699 86 23s32 36 32 62zM430 191c0 17.333 -3.66504 32.166 -10.998 44.499s-17.333 22.333 -30 30s-27.334 13.334 -44.001 17.001s-34.334 5.5 -53.001 5.5h-109v-194h110c19.333 0 37.333 2 54 6s31.167 10 43.5 18
s22 18 29 30s10.5 26.333 10.5 43z" />
    <glyph glyph-name="C" unicode="C" horiz-adv-x="634" 
d="M584 201c-2.66699 -32 -11.3369 -61.1699 -26.0039 -87.5029s-33.5 -48.833 -56.5 -67.5s-49.667 -33.167 -80 -43.5s-62.166 -15.5 -95.499 -15.5c-50 0 -92.5 9.16699 -127.5 27.5s-63.667 43 -86 74s-38.5 66.5 -48.5 106.5s-15 81.667 -15 125
c0 44.667 5.5 87.334 16.5 128.001s27.667 76.334 50 107.001s51 55 86 73s76.5 27 124.5 27c81.333 0 142.5 -18 183.5 -54s63.5 -86.333 67.5 -151h-115c-4 38 -16.667 66.5 -38 85.5s-54 28.5 -98 28.5c-55.333 0 -95.166 -21.333 -119.499 -64
s-36.5 -102.667 -36.5 -180c0 -80.667 12.167 -141.167 36.5 -181.5s63.833 -60.5 118.5 -60.5c40.667 0 71.834 11.333 93.501 34s34.834 52.334 39.501 89.001h126v0z" />
    <glyph glyph-name="D" unicode="D" horiz-adv-x="646" 
d="M596 322c0 -48.667 -7.5 -92.835 -22.5 -132.502s-36.667 -73.5 -65 -101.5s-63.333 -49.667 -105 -65s-88.834 -23 -141.501 -23h-196v643h196c54.667 0 102.834 -7.83301 144.501 -23.5s76.5 -37.667 104.5 -66s49.167 -62.166 63.5 -101.499
s21.5 -82.666 21.5 -129.999zM479 321.999c0 75.333 -18.333 132.001 -55 170.001s-90.334 57 -161.001 57h-80v-455h80c70.667 0 124.334 19.167 161.001 57.5s55 95.166 55 170.499z" />
    <glyph glyph-name="E" unicode="E" horiz-adv-x="552" 
d="M66 0v643h415v-94h-301v-172h286v-90h-286v-193h310v-94h-424z" />
    <glyph glyph-name="F" unicode="F" horiz-adv-x="516" 
d="M183 284v-284h-117v643h396v-94h-279v-172h261v-93h-261z" />
    <glyph glyph-name="G" unicode="G" horiz-adv-x="687" 
d="M621 29c-46 -13.333 -89.166 -23.667 -129.499 -31s-74.5 -11 -102.5 -11c-58 0 -108.333 8.66699 -151 26s-78 41.333 -106 72s-48.833 66.667 -62.5 108s-20.5 85.666 -20.5 132.999c0 46.667 7.83301 90 23.5 130s37.834 74.833 66.501 104.5
s62.667 52.834 102 69.501s82.666 25 129.999 25c41.333 0 78 -5 110 -15s58.833 -23.833 80.5 -41.5s38 -38.834 49 -63.501s16.5 -51.334 16.5 -80.001h-119c-0.666992 16 -4.5 30.667 -11.5 44s-16.667 24.5 -29 33.5s-26.833 16 -43.5 21s-34.334 7.5 -53.001 7.5
c-36.667 0 -67.834 -6.66699 -93.501 -20s-46.5 -31.166 -62.5 -53.499s-27.5 -47.833 -34.5 -76.5s-10.5 -58 -10.5 -88c0 -34 4.5 -65.833 13.5 -95.5s22.333 -55.167 40 -76.5s39.834 -38.166 66.501 -50.499s57.667 -18.5 93 -18.5c15.333 0 33 1.33301 53 4
s41.667 6.66699 65 12v147h-126v97h246v-313v0z" />
    <glyph glyph-name="H" unicode="H" horiz-adv-x="635" 
d="M453 0v287h-272v-287h-115v643h115v-263h272v263h117v-643h-117z" />
    <glyph glyph-name="I" unicode="I" horiz-adv-x="249" 
d="M66 0v643h117v-643h-117z" />
    <glyph glyph-name="J" unicode="J" horiz-adv-x="541" 
d="M475 191c0 -31.333 -6 -59.667 -18 -85s-28 -46.833 -48 -64.5s-43 -31.167 -69 -40.5s-53.333 -14 -82 -14c-72.667 0 -125.667 18 -159 54s-50 86.333 -50 151h120c0 -39.333 7.83301 -67.5 23.5 -84.5s37.167 -25.5 64.5 -25.5c33.333 0 58.333 9 75 27s25 47 25 87
v448h118v-453v0z" />
    <glyph glyph-name="K" unicode="K" horiz-adv-x="610" 
d="M435 0l-252 328v-328h-117v643h117v-275l232 275h138l-243 -284l272 -359h-147z" />
    <glyph glyph-name="L" unicode="L" horiz-adv-x="495" 
d="M66 0v643h117v-549h289v-94h-406z" />
    <glyph glyph-name="M" unicode="M" horiz-adv-x="818" 
d="M640 0v542l-177 -542h-109l-176 540v-540h-112v643h189l154 -483l155 485h189v-645h-113z" />
    <glyph glyph-name="N" unicode="N" horiz-adv-x="670" 
d="M438 0l-260 518v-518h-112v643h166l260 -519v519h113v-643h-167z" />
    <glyph glyph-name="O" unicode="O" horiz-adv-x="701" 
d="M651 326c0 -48 -6.49805 -92.4971 -19.498 -133.497s-32 -76.833 -57 -107.5s-56.333 -54.667 -94 -72s-80.834 -26 -129.501 -26c-50.667 0 -95 9 -133 27s-69.5 42.5 -94.5 73.5s-43.667 67 -56 108s-18.5 84.5 -18.5 130.5c0 47.333 6.5 91.166 19.5 131.499
s32.333 75.166 58 104.499s57.167 52.166 94.5 68.499s80.666 24.5 129.999 24.5c50.667 0 94.667 -8.66699 132 -26s68.5 -40.833 93.5 -70.5s43.667 -64.5 56 -104.5s18.5 -82.667 18.5 -128zM530.002 326.003c0 74 -13.835 131.667 -41.502 173s-73.5 62 -137.5 62
s-110 -20.667 -138 -62s-42 -99 -42 -173c0 -37.333 3.33301 -71 10 -101s17.334 -55.5 32.001 -76.5s33.334 -37.333 56.001 -49s50 -17.5 82 -17.5s59.333 5.83301 82 17.5s41.167 28 55.5 49s24.833 46.5 31.5 76.5s10 63.667 10 101z" />
    <glyph glyph-name="P" unicode="P" horiz-adv-x="575" 
d="M523 447c0 -37.333 -7.00098 -68.333 -21.001 -93s-32.5 -44.5 -55.5 -59.5s-49.167 -25.5 -78.5 -31.5s-59.333 -9 -90 -9h-95v-254h-117v643h212c32 0 62.833 -3.33301 92.5 -10s55.834 -17.667 78.501 -33s40.667 -35.5 54 -60.5s20 -55.833 20 -92.5zM405.999 447
c0 38 -12.833 64.5 -38.5 79.5s-62.5 22.5 -110.5 22.5h-74v-201h74c46 0 82.333 7 109 21s40 40 40 78z" />
    <glyph glyph-name="Q" unicode="Q" horiz-adv-x="729" 
d="M464 0c-28.667 -4 -52.166 -7.16406 -70.499 -9.49707s-32.5 -3.5 -42.5 -3.5c-50.667 0 -95 9 -133 27s-69.5 42.5 -94.5 73.5s-43.667 67 -56 108s-18.5 84.5 -18.5 130.5c0 47.333 6.5 91.166 19.5 131.499s32.333 75.166 58 104.499s57.167 52.166 94.5 68.499
s80.666 24.5 129.999 24.5c50.667 0 94.667 -8.66699 132 -26s68.5 -40.833 93.5 -70.5s43.667 -64.5 56 -104.5s18.5 -82.667 18.5 -128c0 -48 -6.83301 -92 -20.5 -132s-34.5 -74.667 -62.5 -104h130v-90h-234zM530.001 326.003c0 74 -13.835 131.667 -41.502 173
s-73.5 62 -137.5 62s-110 -20.667 -138 -62s-42 -99 -42 -173c0 -37.333 3.33301 -71 10 -101s17.334 -55.5 32.001 -76.5s33.334 -37.333 56.001 -49s50 -17.5 82 -17.5s59.333 5.83301 82 17.5s41.167 28 55.5 49s24.833 46.5 31.5 76.5s10 63.667 10 101z" />
    <glyph glyph-name="R" unicode="R" horiz-adv-x="591" 
d="M436 0c-4.66699 16 -8.16602 30.6689 -10.499 44.002s-4.33301 25.833 -6 37.5l-5 35l-5.5 37.5c-4 22 -8.83301 40.667 -14.5 56s-13 27.5 -22 36.5s-20.333 15.5 -34 19.5s-30.834 6 -51.501 6h-104v-272h-117v643h233c80.667 0 141.167 -13.833 181.5 -41.5
s60.5 -71.834 60.5 -132.501c0 -19.333 -3.83301 -36.5 -11.5 -51.5s-17.667 -28.5 -30 -40.5s-26.166 -22.5 -41.499 -31.5s-31 -16.833 -47 -23.5c20.667 -4.66699 39 -11.5 55 -20.5s28.333 -23.5 37 -43.5c6 -14 10.667 -32.333 14 -55l10.5 -71
c3.66699 -24.667 7.66699 -48.834 12 -72.501s10.166 -43.5 17.499 -59.5h-121zM423.001 455.002c0 16.667 -3.49902 30.8311 -10.499 42.498s-16.333 21.334 -28 29.001s-24.834 13.334 -39.501 17.001s-30 5.5 -46 5.5h-116v-183h110c15.333 0 30.833 1.83301 46.5 5.5
s29.667 9.16699 42 16.5s22.333 16.5 30 27.5s11.5 24.167 11.5 39.5z" />
    <glyph glyph-name="S" unicode="S" horiz-adv-x="601" 
d="M551 184c0 -34.667 -8.00391 -64.5 -24.0039 -89.5s-36.667 -45.5 -62 -61.5s-53.333 -27.667 -84 -35s-60.334 -11 -89.001 -11c-32.667 0 -63.667 4.5 -93 13.5s-55.166 22.5 -77.499 40.5s-40 40.167 -53 66.5s-19.5 56.833 -19.5 91.5h121
c1.33301 -39.333 13 -68.666 35 -87.999s51.667 -29 89 -29c14.667 0 30.334 1.33301 47.001 4s32 7.5 46 14.5s25.667 16.5 35 28.5s14 27 14 45c0 26 -9.16699 45.833 -27.5 59.5s-41.166 24.667 -68.499 33s-57.166 15.833 -89.499 22.5s-62.166 16.334 -89.499 29.001
s-50.166 30.167 -68.499 52.5s-27.5 53.5 -27.5 93.5c0 30.667 7.16699 57.834 21.5 81.501s32.833 43.667 55.5 60s47.834 28.666 75.501 36.999s54.834 12.5 81.501 12.5c30.667 0 59.834 -3.5 87.501 -10.5s52.167 -18 73.5 -33s38.333 -34.333 51 -58
s19 -51.834 19 -84.501h-119c0 16.667 -3.16699 31.167 -9.5 43.5s-14.666 22.166 -24.999 29.499s-22.333 12.833 -36 16.5s-27.834 5.5 -42.501 5.5c-14 0 -28.167 -1.83301 -42.5 -5.5s-27 -9.33398 -38 -17.001s-20 -17.167 -27 -28.5s-10.5 -24.666 -10.5 -39.999
c0 -23.333 9.16699 -41.333 27.5 -54s41.166 -23.167 68.499 -31.5s57.166 -16.333 89.499 -24s62.166 -18.167 89.499 -31.5s50.166 -31.5 68.499 -54.5s27.5 -54.167 27.5 -93.5z" />
    <glyph glyph-name="T" unicode="T" horiz-adv-x="560" 
d="M338 549v-549h-118v549h-196v94h512v-94h-198z" />
    <glyph glyph-name="U" unicode="U" horiz-adv-x="667" 
d="M603 272c0 -46.667 -6.33105 -87.833 -18.998 -123.5s-30.834 -65.5 -54.501 -89.5s-52.5 -42 -86.5 -54s-72 -18 -114 -18c-88 0 -153.833 25 -197.5 75s-65.5 120 -65.5 210v371h117v-371c0 -36 3.5 -66 10.5 -90s16.833 -43.5 29.5 -58.5s28.167 -25.667 46.5 -32
s39.166 -9.5 62.499 -9.5s44.333 3.16699 63 9.5s34.667 17 48 32s23.5 34.5 30.5 58.5s10.5 54 10.5 90v371h119v-371v0z" />
    <glyph glyph-name="V" unicode="V" horiz-adv-x="632" 
d="M382 0h-138l-234 643h128l177 -506l179 506h127z" />
    <glyph glyph-name="W" unicode="W" horiz-adv-x="882" 
d="M701 0h-128l-132 499l-133 -499h-127l-171 643h126l111 -492l129 492h130l128 -492l111 492h127z" />
    <glyph glyph-name="X" unicode="X" horiz-adv-x="621" 
d="M468 0l-168 256l-163 -256h-124l228 337l-205 306h138l143 -224l141 224h127l-209 -306l230 -337h-138z" />
    <glyph glyph-name="Y" unicode="Y" horiz-adv-x="587" 
d="M352 247v-247h-118v247l-224 396h135l149 -283l150 283h131z" />
    <glyph glyph-name="Z" unicode="Z" horiz-adv-x="559" 
d="M40 0v106l336 443h-317v94h452v-108l-337 -441h344v-94h-478z" />
    <glyph glyph-name="bracketleft" unicode="[" horiz-adv-x="349" 
d="M80 -177v820h189v-69h-91v-682h91v-69h-189z" />
    <glyph glyph-name="backslash" unicode="\" horiz-adv-x="537" 
d="M410 -254l-355 1011l72 68l354 -1007z" />
    <glyph glyph-name="bracketright" unicode="]" horiz-adv-x="349" 
d="M80 -177v69h93v682h-93v69h189v-820h-189z" />
    <glyph glyph-name="asciicircum" unicode="^" horiz-adv-x="535" 
d="M448 569l-180 181l-182 -181l-50 51l232 231l231 -231z" />
    <glyph glyph-name="underscore" unicode="_" horiz-adv-x="577" 
d="M0 -179v93h577v-93h-577z" />
    <glyph glyph-name="grave" unicode="`" horiz-adv-x="218" 
d="M109 534l-132 158h108l84 -158h-60z" />
    <glyph glyph-name="a" unicode="a" horiz-adv-x="491" 
d="M347 0c-2 7.33301 -4.16797 16.5 -6.50098 27.5s-4.16602 20.5 -5.49902 28.5c-12.667 -12.667 -24.167 -23.334 -34.5 -32.001s-20.666 -15.667 -30.999 -21s-21 -9.16602 -32 -11.499s-23.5 -3.5 -37.5 -3.5c-20.667 0 -40.5 3 -59.5 9s-35.833 14.667 -50.5 26
s-26.5 25.333 -35.5 42s-13.5 35.667 -13.5 57c0 32 6.83301 58.667 20.5 80s31.167 38.333 52.5 51s45.166 21.5 71.499 26.5s52.166 7.5 77.499 7.5h65c0.666992 15.333 0.166992 29.333 -1.5 42s-5.5 23.5 -11.5 32.5s-14.333 16 -25 21s-25 7.5 -43 7.5
c-25.333 0 -44.166 -5.33301 -56.499 -16s-19.833 -27.667 -22.5 -51h-107c0 22 4.66699 41.333 14 58s22.333 30.667 39 42s36.334 19.833 59.001 25.5s47.667 8.5 75 8.5c16 0 33.167 -1.16699 51.5 -3.5s35.666 -6.83301 51.999 -13.5s31 -15.5 44 -26.5
s22.167 -24.833 27.5 -41.5c4 -11.333 6.66699 -26.5 8 -45.5s2 -40.167 2 -63.5v-115c0 -28 1 -55.667 3 -83s5.33301 -49 10 -65h-99zM326.999 221c-5.33301 0.666992 -12.002 1.16797 -20.002 1.50098s-15.667 0.5 -23 0.5c-17.333 0 -34.166 -1.66699 -50.499 -5
s-30.666 -8.83301 -42.999 -16.5s-22.166 -17.334 -29.499 -29.001s-11 -25.834 -11 -42.501c0 -19.333 7.16699 -35.666 21.5 -48.999s32.166 -20 53.499 -20c22 0 39.833 4.33301 53.5 13s24 20.334 31 35.001s11.667 31.667 14 51s3.5 39.666 3.5 60.999z" />
    <glyph glyph-name="b" unicode="b" horiz-adv-x="539" 
d="M498 225c0 -36.667 -5.16504 -69.6699 -15.498 -99.0029s-24.5 -54.166 -42.5 -74.499s-39.167 -36 -63.5 -47s-50.5 -16.5 -78.5 -16.5c-30 0 -56.333 5.83301 -79 17.5s-40.334 26.834 -53.001 45.501v-51h-107v643h106v-245c13.333 15.333 30.666 29 51.999 41
s50 18 86 18c38 0 69.667 -7.66699 95 -23s45.333 -34.5 60 -57.5s25 -48.167 31 -75.5s9 -52.666 9 -75.999zM389.002 220.997c0 18.667 -1.83203 37.8311 -5.49902 57.498s-10 37.834 -19 54.501s-20.833 30.334 -35.5 41.001s-33 16 -55 16
c-37.333 0 -64.833 -15 -82.5 -45s-26.5 -70.333 -26.5 -121c0 -20 2 -39.667 6 -59s10.5 -36.833 19.5 -52.5s20.5 -28.167 34.5 -37.5s31 -14 51 -14c18.667 0 35.167 4.33301 49.5 13s26.166 20.5 35.499 35.5s16.333 32 21 51s7 39.167 7 60.5z" />
    <glyph glyph-name="c" unicode="c" horiz-adv-x="461" 
d="M421 159c0 -52.667 -14.501 -94.333 -43.501 -125s-75.5 -46 -139.5 -46c-130.667 0 -196 77 -196 231c0 78.667 16.167 138 48.5 178s80.5 60 144.5 60s111 -14 141 -42s44.333 -68 43 -120h-105c0.666992 32.667 -6.66602 56.167 -21.999 70.5
s-33.666 21.5 -54.999 21.5c-15.333 0 -28.833 -2.66699 -40.5 -8s-21.334 -14.5 -29.001 -27.5s-13.5 -30 -17.5 -51s-6 -47.5 -6 -79.5c0 -60 6.83301 -102.167 20.5 -126.5s37.167 -36.5 70.5 -36.5c16 0 29.167 3 39.5 9s18.333 13.833 24 23.5s9.66699 20.5 12 32.5
s3.5 24 3.5 36h107v0z" />
    <glyph glyph-name="d" unicode="d" horiz-adv-x="539" 
d="M373 0l-0.000976562 58c-17.333 -21.333 -36.5 -38.333 -57.5 -51s-43.5 -19 -67.5 -19c-31.333 0 -59.666 6 -84.999 18s-47 28.333 -65 49s-31.833 44.667 -41.5 72s-14.5 56.666 -14.5 87.999c0 34 4.16699 65.833 12.5 95.5s20.5 55.334 36.5 77.001s36 38.667 60 51
s51.667 18.5 83 18.5c30 0 56.167 -4.33301 78.5 -13s42.5 -23.667 60.5 -45v244h106v-643h-106zM372.999 220c0 52 -9.66309 93.167 -28.9961 123.5s-47 45.5 -83 45.5c-21.333 0 -39.333 -5.5 -54 -16.5s-26.334 -25 -35.001 -42s-14.834 -35.333 -18.501 -55
s-5.5 -38.5 -5.5 -56.5c0 -19.333 2.33301 -38.333 7 -57s11.667 -35.334 21 -50.001s21.166 -26.667 35.499 -36s31.166 -14 50.499 -14c20 0 37 5.16699 51 15.5s25.5 23.333 34.5 39s15.5 32.834 19.5 51.501s6 36 6 52z" />
    <glyph glyph-name="e" unicode="e" horiz-adv-x="493" 
d="M445 139c-5.33301 -45.333 -23.999 -81.834 -55.999 -109.501s-79.667 -41.5 -143 -41.5c-38 0 -70 6.5 -96 19.5s-47 30.333 -63 52s-27.5 46.5 -34.5 74.5s-10.5 57 -10.5 87c0 32 4.16699 62.333 12.5 91s21 53.834 38 75.501s38.833 38.667 65.5 51
s58.334 18.5 95.001 18.5c38.667 0 70.834 -6.66699 96.501 -20s46 -30.5 61 -51.5s25.667 -44.5 32 -70.5s9.5 -51.333 9.5 -76c0 -6.66699 -0.166992 -13 -0.5 -19s-0.833008 -12 -1.5 -18h-298c0 -21.333 1.5 -41 4.5 -59s8.16699 -33.333 15.5 -46
s17.166 -22.5 29.499 -29.5s28.166 -10.5 47.499 -10.5c28 0 48.667 7.83301 62 23.5s21.666 35.167 24.999 58.5h109zM339.001 271.999c1.33301 35.333 -5.16602 63.499 -19.499 84.499s-38.5 31.5 -72.5 31.5c-16.667 0 -30.834 -3 -42.501 -9
s-21.167 -14.167 -28.5 -24.5s-13 -22.666 -17 -36.999s-6.33301 -29.5 -7 -45.5h187z" />
    <glyph glyph-name="f" unicode="f" horiz-adv-x="309" 
d="M309 567c-8 4 -16 7.16602 -24 9.49902s-16.667 3.5 -26 3.5c-23.333 0 -39.166 -5.66699 -47.499 -17s-12.5 -29 -12.5 -53v-65h98v-70h-98v-375h-108v375h-82v70h82v68c0 52.667 11.333 89.334 34 110.001s56.667 31 102 31c27.333 0 54.666 -4.66699 81.999 -14v-73v0
z" />
    <glyph glyph-name="g" unicode="g" horiz-adv-x="539" 
d="M479 11c0 -58.667 -18.8369 -104.668 -56.5039 -138.001s-91.834 -50 -162.501 -50c-39.333 0 -71.666 4.33301 -96.999 13s-45.166 19.5 -59.499 32.5s-24.333 27.5 -30 43.5s-8.5 31 -8.5 45h107c0 -20.667 8.83301 -36.667 26.5 -48s40.167 -17 67.5 -17
c20.667 0 37.834 3 51.501 9s24.5 16.167 32.5 30.5s13.667 33.333 17 57s5 53.167 5 88.5c-17.333 -23.333 -37.166 -41.166 -59.499 -53.499s-45.166 -18.5 -68.499 -18.5c-64.667 0 -114.5 19.5 -149.5 58.5s-52.5 92.167 -52.5 159.5c0 36 4.5 68.333 13.5 97
s22 53.167 39 73.5s37.333 36 61 47s50.167 16.5 79.5 16.5c32 0 58.667 -4.5 80 -13.5s40.333 -22.833 57 -41.5v43h107v-434zM372.996 224.999c0 52 -8.99512 92.168 -26.9951 120.501s-46 42.5 -84 42.5c-22 0 -40.333 -5.16699 -55 -15.5s-26.334 -23.5 -35.001 -39.5
s-14.834 -33.667 -18.501 -53s-5.5 -38.333 -5.5 -57c0 -20 2.16699 -38.833 6.5 -56.5s11.166 -33 20.499 -46s21.166 -23.333 35.499 -31s31.166 -11.5 50.499 -11.5c20 0 37.167 4.5 51.5 13.5s26 20.5 35 34.5s15.5 29.667 19.5 47s6 34.666 6 51.999z" />
    <glyph glyph-name="h" unicode="h" horiz-adv-x="524" 
d="M357 0l-0.000976562 271.002c0 40.667 -7.5 70.667 -22.5 90s-35.5 29 -61.5 29c-17.333 0 -32.666 -3.83301 -45.999 -11.5s-24.5 -17.334 -33.5 -29.001s-15.833 -24.334 -20.5 -38.001s-7 -26.5 -7 -38.5v-273h-107v643h107v-248c15.333 20.667 34.5 36.167 57.5 46.5
s51.833 15.5 86.5 15.5c54 0 93.333 -14.667 118 -44s37 -69 37 -119v-294h-108z" />
    <glyph glyph-name="i" unicode="i" horiz-adv-x="224" 
d="M51 538v105h122v-105h-122zM59 0v445h107v-445h-107z" />
    <glyph glyph-name="j" unicode="j" horiz-adv-x="294" 
d="M212 538l-91 28l28 77l92 -28zM235 -72c0 -33.333 -11.167 -60.998 -33.5 -82.998s-54.5 -33 -96.5 -33c-20.667 0 -42.667 3.66699 -66 11s-43.333 18.666 -60 33.999l53 67c15.333 -15.333 32.333 -23 51 -23c14 0 24.833 4.66699 32.5 14s11.5 22.666 11.5 39.999v490
h108v-517z" />
    <glyph glyph-name="k" unicode="k" horiz-adv-x="474" 
d="M326 0l-160 234v-234h-107v643h107v-378l150 180h129l-167 -192l182 -253h-134z" />
    <glyph glyph-name="l" unicode="l" horiz-adv-x="224" 
d="M59 0v643h107v-643h-107z" />
    <glyph glyph-name="m" unicode="m" horiz-adv-x="808" 
d="M641 0v286.006c0 29.333 -7.5 53.666 -22.5 72.999s-35.5 29 -61.5 29c-14 0 -27 -3.5 -39 -10.5s-22.5 -16 -31.5 -27s-16 -23.333 -21 -37s-7.5 -27.5 -7.5 -41.5v-272h-107v286c0 13.333 -2 26.166 -6 38.499s-9.5 23.166 -16.5 32.499s-15.667 16.833 -26 22.5
s-21.833 8.5 -34.5 8.5c-16 0 -30.167 -3.83301 -42.5 -11.5s-23 -17.334 -32 -29.001s-15.833 -24.667 -20.5 -39s-7 -27.833 -7 -40.5v-268h-107v445h107v-62c17.333 25.333 36.833 44 58.5 56s47.834 18 78.501 18c36.667 0 65.5 -6 86.5 -18s39.167 -33 54.5 -63
c10.667 15.333 21.5 28.166 32.5 38.499s22.333 18.666 34 24.999s24.167 10.833 37.5 13.5s28 4 44 4c28.667 0 53 -4.5 73 -13.5s36.167 -21.167 48.5 -36.5s21.166 -33 26.499 -53s8 -41 8 -63v-291h-107z" />
    <glyph glyph-name="n" unicode="n" horiz-adv-x="524" 
d="M350 0v277c0 36 -8 64 -24 84s-38 30 -66 30c-30 0 -54.5 -12 -73.5 -36s-28.5 -56 -28.5 -96v-259h-107v445h107v-56c16 24.667 34.667 42.167 56 52.5s50 15.5 86 15.5c53.333 0 92.833 -14.333 118.5 -43s38.5 -67 38.5 -115v-299h-107z" />
    <glyph glyph-name="o" unicode="o" horiz-adv-x="535" 
d="M494 222c0 -36 -5.66895 -68.502 -17.002 -97.502s-27.166 -53.667 -47.499 -74s-44.333 -35.833 -72 -46.5s-57.5 -16 -89.5 -16c-33.333 0 -63.833 5.5 -91.5 16.5s-51.5 26.833 -71.5 47.5s-35.5 45.334 -46.5 74.001s-16.5 60.667 -16.5 96
c0 36 5.66699 68.5 17 97.5s27 53.667 47 74s43.833 36 71.5 47s57.834 16.5 90.501 16.5c33.333 0 63.833 -5.66699 91.5 -17s51.5 -27.166 71.5 -47.499s35.5 -45 46.5 -74s16.5 -61.167 16.5 -96.5zM384.998 221.998c0 50 -9.5 89.999 -28.5 119.999s-48.5 45 -88.5 45
c-20 0 -37.5 -4.16699 -52.5 -12.5s-27.333 -19.833 -37 -34.5s-17 -32 -22 -52s-7.5 -42 -7.5 -66s2.5 -46 7.5 -66s12.333 -37.167 22 -51.5s22 -25.666 37 -33.999s32.5 -12.5 52.5 -12.5c40 0 69.5 15 88.5 45s28.5 69.667 28.5 119z" />
    <glyph glyph-name="p" unicode="p" horiz-adv-x="542" 
d="M501 227c0 -36 -4.33398 -68.832 -13.001 -98.499s-21.5 -55 -38.5 -76s-38 -37.167 -63 -48.5s-53.833 -17 -86.5 -17c-30 0 -54.833 4.5 -74.5 13.5s-39.5 22.833 -59.5 41.5v-219h-107v622h107v-60c19.333 23.333 39.333 41.166 60 53.499s43.667 18.5 69 18.5
c34.667 0 64.834 -6 90.501 -18s47 -28.333 64 -49s29.833 -45 38.5 -73s13 -58 13 -90zM391.999 227.001c0 18.667 -2.16797 37.499 -6.50098 56.499s-11 36 -20 51s-20.667 27.167 -35 36.5s-31.833 14 -52.5 14c-21.333 0 -39.166 -5 -53.499 -15
s-25.833 -22.833 -34.5 -38.5s-15 -33 -19 -52s-6 -37.5 -6 -55.5c0 -52 8.83301 -92.833 26.5 -122.5s45.5 -44.5 83.5 -44.5c22 0 40.5 5.33301 55.5 16s27 24.334 36 41.001s15.5 35 19.5 55s6 39.333 6 58z" />
    <glyph glyph-name="q" unicode="q" horiz-adv-x="542" 
d="M375 -177l0.00292969 218.997c-10.667 -9.33301 -20.834 -17.5 -30.501 -24.5s-19.667 -12.667 -30 -17s-21.5 -7.66602 -33.5 -9.99902s-25.333 -3.5 -40 -3.5c-32.667 0 -61.334 5.66699 -86.001 17s-45.334 27.5 -62.001 48.5s-29.334 46.333 -38.001 76
s-13 62.5 -13 98.5c0 32.667 4.16699 63 12.5 91s21 52.333 38 73s38.333 36.834 64 48.501s55.834 17.5 90.501 17.5c28 0 52.167 -6.16699 72.5 -18.5s38.833 -30.166 55.5 -53.499v60h107v-622h-107zM376.003 223.997c0 18.667 -2 37.499 -6 56.499
s-10.5 36.167 -19.5 51.5s-20.667 28 -35 38s-31.5 15 -51.5 15c-21.333 0 -39.333 -4.83301 -54 -14.5s-26.5 -22.167 -35.5 -37.5s-15.5 -32.333 -19.5 -51s-6 -37 -6 -55c0 -20 2 -40 6 -60s10.667 -38.167 20 -54.5s21.5 -29.666 36.5 -39.999s33.5 -15.5 55.5 -15.5
c38 0 65.667 14.833 83 44.5s26 70.5 26 122.5z" />
    <glyph glyph-name="r" unicode="r" horiz-adv-x="338" 
d="M322 361c-53.333 0 -92.668 -10.667 -118.001 -32s-38 -52.666 -38 -93.999v-235h-107v445h107v-66c6.66699 13.333 14.167 24.666 22.5 33.999s18.333 17 30 23s25.834 10.333 42.501 13s37 4 61 4v-92v0z" />
    <glyph glyph-name="s" unicode="s" horiz-adv-x="458" 
d="M416 136c0 -27.333 -5.66797 -50.3428 -17.001 -69.0098s-26.166 -33.834 -44.499 -45.501s-39.333 -20.167 -63 -25.5s-47.5 -8 -71.5 -8c-25.333 0 -48.833 2.66699 -70.5 8s-40.5 13.833 -56.5 25.5s-28.5 26.834 -37.5 45.501s-13.5 41.334 -13.5 68.001h106
c1.33301 -29.333 8.83301 -49.666 22.5 -60.999s33.834 -17 60.501 -17c20.667 0 39.334 5.83301 56.001 17.5s25 27.834 25 48.501c0 16.667 -6.5 29.334 -19.5 38.001s-29 15.834 -48 21.501s-39.833 10.834 -62.5 15.501s-43.5 11.834 -62.5 21.501
s-35 22.834 -48 39.501s-19.5 39.334 -19.5 68.001c0 18 3.83301 34.833 11.5 50.5s19 29.334 34 41.001s33.5 21 55.5 28s47.333 10.5 76 10.5c56 0 99.333 -10.667 130 -32s46 -57 46 -107h-107c-0.666992 21.333 -5.66699 38.333 -15 51s-29 19 -59 19
c-19.333 0 -35.333 -5.66699 -48 -17s-19 -24.666 -19 -39.999c0 -14.667 6.33301 -25.667 19 -33s28.667 -13.5 48 -18.5s40.166 -10 62.499 -15s43.166 -12.333 62.499 -22s35.333 -22.834 48 -39.501s19 -39 19 -67z" />
    <glyph glyph-name="t" unicode="t" horiz-adv-x="352" 
d="M329 3c-25.333 -9.33301 -53.334 -14 -84.001 -14c-18.667 0 -36 2.5 -52 7.5s-30 12.5 -42 22.5s-21.5 22.667 -28.5 38s-10.5 33.333 -10.5 54v264h-86v70h86v76l107 53v-129h104v-70h-104v-241c0 -25.333 5.33301 -43.333 16 -54s26.334 -16 47.001 -16
c15.333 0 31 2.66699 47 8v-69v0z" />
    <glyph glyph-name="u" unicode="u" horiz-adv-x="524" 
d="M357 0v59.001c-16 -25.333 -34.5 -43.5 -55.5 -54.5s-49.5 -16.5 -85.5 -16.5c-52 0 -91.167 13.667 -117.5 41s-39.5 66 -39.5 116v300h107v-277c0 -36.667 8 -64.834 24 -84.501s37.667 -29.5 65 -29.5c32 0 57 11 75 33s27 54 27 96v262h108v-445h-108z" />
    <glyph glyph-name="v" unicode="v" horiz-adv-x="482" 
d="M299 0h-116l-173 445h117l116 -323l114 323h114z" />
    <glyph glyph-name="w" unicode="w" horiz-adv-x="750" 
d="M599 0h-122l-102 331l-102 -331h-122l-141 445h111l93 -312l97 312h127l98 -312l93 312h110z" />
    <glyph glyph-name="x" unicode="x" horiz-adv-x="487" 
d="M347 0l-111 164l-105 -164h-119l165 236l-151 209h128l98 -142l90 142h119l-149 -209l163 -236h-128z" />
    <glyph glyph-name="y" unicode="y" horiz-adv-x="481" 
d="M267 -103c-8.66699 -23.333 -24.001 -42.333 -46.001 -57s-49.333 -22 -82 -22c-28 0 -53.667 7 -77 21s-41.666 33.667 -54.999 59l71 51c12.667 -28 31.667 -42 57 -42c16.667 0 30 14 40 42l18 51l-183 445h122l116 -302l108 302h115z" />
    <glyph glyph-name="z" unicode="z" horiz-adv-x="441" 
d="M42 0v87l235 286h-227v72h340v-87l-236 -288h244v-70h-356z" />
    <glyph glyph-name="braceleft" unicode="{" horiz-adv-x="430" 
d="M375 -413c-48 0 -85.5 12.332 -112.5 36.999s-47.333 58.334 -61 101.001s-22.167 92.834 -25.5 150.501s-5 119.5 -5 185.5c0 20.667 -5.33301 38 -16 52s-22.167 26.833 -34.5 38.5s-23.833 23.167 -34.5 34.5s-16 24.666 -16 39.999c0 14.667 5.33301 27.667 16 39
s22.167 22.833 34.5 34.5s23.833 24.5 34.5 38.5s16 31.333 16 52c0 66 1.66699 127.833 5 185.5s11.833 107.834 25.5 150.501s34 76.334 61 101.001s64.5 37 112.5 37v-90c-24 0 -43.333 -8.83301 -58 -26.5s-26 -43.334 -34 -77.001s-13.333 -75.167 -16 -124.5
s-4 -106 -4 -170c0 -26.667 -4.5 -48.834 -13.5 -66.501s-19 -32.167 -30 -43.5s-21 -20.166 -30 -26.499s-13.5 -10.833 -13.5 -13.5c0 -3.33301 4.5 -7.83301 13.5 -13.5s19 -14.334 30 -26.001s21 -26.5 30 -44.5s13.5 -40.667 13.5 -68
c0 -63.333 1.33301 -119.666 4 -168.999s8 -90.833 16 -124.5s19.333 -59.334 34 -77.001s34 -26.5 58 -26.5v-90v0z" />
    <glyph glyph-name="bar" unicode="|" horiz-adv-x="335" 
d="M124 -230v939h87v-939h-87z" />
    <glyph glyph-name="braceright" unicode="}" horiz-adv-x="429" 
d="M358 226c0 -15.333 -5.16699 -28.665 -15.5 -39.998s-21.666 -22.833 -33.999 -34.5s-23.666 -24.5 -33.999 -38.5s-15.5 -31.333 -15.5 -52c0 -66 -1.66699 -127.833 -5 -185.5s-11.833 -107.834 -25.5 -150.501s-34 -76.334 -61 -101.001s-64.5 -37 -112.5 -37v91
c24 0 43.333 8.83301 58 26.5s25.834 43.334 33.501 77.001s12.834 75.167 15.501 124.5s4 105.666 4 168.999c0 26.667 4.5 49 13.5 67s19 32.667 30 44s21.167 20 30.5 26s14 10.667 14 14c0 2.66699 -4.66699 7 -14 13s-19.5 14.667 -30.5 26s-21 26 -30 44
s-13.5 40.333 -13.5 67c0 64 -1.33301 120.667 -4 170s-7.83398 90.833 -15.501 124.5s-18.834 59.334 -33.501 77.001s-34 26.5 -58 26.5v90c48 0 85.5 -12.167 112.5 -36.5s47.333 -57.833 61 -100.5s22.167 -92.834 25.5 -150.501s5 -119.5 5 -185.5
c0 -20.667 5.16699 -38.167 15.5 -52.5s21.666 -27.333 33.999 -39s23.666 -23.167 33.999 -34.5s15.5 -24.333 15.5 -39z" />
    <glyph glyph-name="asciitilde" unicode="~" horiz-adv-x="571" 
d="M516 233c-23.333 -22 -47.667 -38.3311 -73 -48.998s-49.666 -16 -72.999 -16c-21.333 0 -40 3 -56 9s-30.667 12.667 -44 20l-37 20c-11.333 6 -22.333 9 -33 9c-14 0 -30.167 -3.83301 -48.5 -11.5s-40.833 -23.834 -67.5 -48.501l-29 76
c24.667 25.333 49.5 42.666 74.5 51.999s48.5 14 70.5 14s40.333 -3 55 -9s28 -12.5 40 -19.5l35 -19.5c11.333 -6 24.666 -9 39.999 -9c14 0 29 4 45 12s32 19 48 33l53 -63v0z" />
    <glyph glyph-name="multiply" unicode="&#xd7;" horiz-adv-x="529" 
d="M371 52l-105 106l-106 -106l-66 65l106 107l-105 105l64 66l107 -106l106 107l66 -66l-106 -106l105 -106z" />
    <glyph glyph-name="u1000" unicode="&#x1000;" horiz-adv-x="985" 
d="M930 222c0 -33.333 -6.33301 -64.6621 -19 -93.9951s-30 -55 -52 -77s-47.5 -39.333 -76.5 -52s-59.833 -19 -92.5 -19c-6.66699 0 -17.334 0.666992 -32.001 2s-27.667 5 -39 11l37 85l16 -4c5.33301 -1.33301 11.333 -2 18 -2c20.667 0 40 4 58 12
s33.667 18.833 47 32.5s23.833 29.5 31.5 47.5s11.5 37.333 11.5 58c0 20 -3.83301 39.167 -11.5 57.5s-18.167 34.166 -31.5 47.499s-29 24 -47 32s-37.333 12 -58 12c-20 0 -39.167 -5.33301 -57.5 -16s-34.5 -24.334 -48.5 -41.001s-25 -35 -33 -55s-12 -39 -12 -57
c0 -50 -7 -92.5 -21 -127.5s-37.667 -66.5 -71 -94.5l-54 76c9.33301 10.667 17.333 20.834 24 30.501s12.167 20.334 16.5 32.001s7.5 24.334 9.5 38.001s3 29.834 3 48.501c0 22 -3.5 42.833 -10.5 62.5s-17 37.167 -30 52.5s-28.667 27.5 -47 36.5
s-38.833 13.5 -61.5 13.5s-43.167 -4.5 -61.5 -13.5s-34 -21.167 -47 -36.5s-23 -32.833 -30 -52.5s-10.5 -40.5 -10.5 -62.5c0 -18.667 1 -34.834 3 -48.501s5.33301 -26.334 10 -38.001s10.167 -22.334 16.5 -32.001s14.166 -19.834 23.499 -30.501l-53 -76
c-34 28 -58 60 -72 96s-21 79 -21 129c0 36 6.16699 69.667 18.5 101s29.5 58.666 51.5 81.999s47.667 41.666 77 54.999s61 20 95 20c42.667 0 81.334 -10.333 116.001 -31s62.334 -48.334 83.001 -83.001c20 32 46.667 59.167 80 81.5s71.333 33.5 114 33.5
c32.667 0 63.5 -6.5 92.5 -19.5s54.5 -30.5 76.5 -52.5s39.333 -47.667 52 -77s19 -60.333 19 -93z" />
    <glyph glyph-name="u1001" unicode="&#x1001;" horiz-adv-x="592" 
d="M537 222c0 -32 -6.00098 -62.667 -18.001 -92s-28.667 -55.166 -50 -77.499s-46.833 -40 -76.5 -53s-62.167 -19.5 -97.5 -19.5c-25.333 0 -51.833 4.5 -79.5 13.5s-53 21.833 -76 38.5s-42.333 37 -58 61s-24.167 51.333 -25.5 82
c37.333 24.667 71.333 41.334 102 50.001s56.667 13 78 13c14.667 0 30.667 -2 48 -6s34.333 -9.66699 51 -17s32.667 -16.333 48 -27s28.666 -22.667 39.999 -36c6.66699 9.33301 12 19.833 16 31.5s6 24.5 6 38.5c0 12.667 -2.83301 27.5 -8.5 44.5
s-14.5 33.167 -26.5 48.5s-27.5 28.5 -46.5 39.5s-41.833 16.5 -68.5 16.5c-27.333 0 -53.166 -6.83301 -77.499 -20.5s-45.5 -34.5 -63.5 -62.5l-80 43c10.667 22 24 41.167 40 57.5s33.667 30.166 53 41.499s39.833 19.833 61.5 25.5s43.834 8.5 66.501 8.5
c37.333 0 70.833 -7.33301 100.5 -22s55 -33.5 76 -56.5s37.167 -48.833 48.5 -77.5s17 -57.334 17 -86.001zM368.999 91c-13.333 20 -31.833 36.499 -55.5 49.499s-49.167 19.5 -76.5 19.5c-23.333 0 -49 -5.33301 -77 -16c19.333 -27.333 41.333 -46.166 66 -56.499
s47.667 -15.5 69 -15.5c14 0 27 1.66699 39 5s23.667 8 35 14z" />
    <glyph glyph-name="u1002" unicode="&#x1002;" horiz-adv-x="595" 
d="M540 205c0 -50 -7 -92.999 -21 -128.999s-38 -68 -72 -96l-54 76c9.33301 10.667 17.333 20.834 24 30.501s12.167 20.334 16.5 32.001s7.5 24.334 9.5 38.001s3 29.834 3 48.501c0 22 -3.5 42.833 -10.5 62.5s-17 37.167 -30 52.5s-28.667 27.5 -47 36.5
s-38.833 13.5 -61.5 13.5s-43.167 -4.5 -61.5 -13.5s-34 -21.167 -47 -36.5s-23 -32.833 -30 -52.5s-10.5 -40.5 -10.5 -62.5c0 -18.667 1 -34.834 3 -48.501s5.33301 -26.334 10 -38.001s10.167 -22.334 16.5 -32.001s14.166 -19.834 23.499 -30.501l-53 -76
c-34 28 -58 60 -72 96s-21 79 -21 129c0 36 6.16699 69.667 18.5 101s29.5 58.666 51.5 81.999s47.667 41.666 77 54.999s61 20 95 20c30.667 0 60.667 -6.16699 90 -18.5s55.333 -29.666 78 -51.999s40.834 -49.5 54.501 -81.5s20.5 -67.333 20.5 -106z" />
    <glyph glyph-name="u1003" unicode="&#x1003;" horiz-adv-x="979" 
d="M925 222c0 -33.333 -6.33008 -64.666 -18.9971 -93.999s-30 -55 -52 -77s-47.667 -39.333 -77 -52s-60.333 -19 -93 -19c-42.667 0 -80.667 11 -114 33s-60 49 -80 81c-22 -36 -50.5 -64 -85.5 -84s-73.167 -30 -114.5 -30c-36 0 -68.5 5.83301 -97.5 17.5
s-53.667 26.5 -74 44.5s-36 38 -47 60s-16.5 43.667 -16.5 65c0 24 3.5 43.667 10.5 59s15.5 28 25.5 38s21.167 17.833 33.5 23.5l33.5 16c10 5 18.5 10.167 25.5 15.5s10.5 12.666 10.5 21.999c0 14 -3.5 24 -10.5 30s-15.167 9 -24.5 9s-17 -3 -23 -9
s-9.66699 -12 -11 -18l-70 42c2 9.33301 6.5 18.166 13.5 26.499s15.333 15.5 25 21.5s20.167 10.833 31.5 14.5s22.666 5.5 33.999 5.5c14.667 0 29 -2.5 43 -7.5s26.5 -12.5 37.5 -22.5s19.833 -22.667 26.5 -38s10 -33.333 10 -54c0 -26.667 -6.66699 -47.167 -20 -61.5
s-28 -26.666 -44 -36.999s-30.667 -20.833 -44 -31.5s-20 -25.334 -20 -44.001c0 -7.33301 3 -16.5 9 -27.5s15 -21.5 27 -31.5s26.833 -18.5 44.5 -25.5s38.167 -10.5 61.5 -10.5c21.333 0 41.166 4.16699 59.499 12.5s34 20.166 47 35.499s23.167 33.5 30.5 54.5
s11 44.167 11 69.5c0 28 -4.5 54.667 -13.5 80s-22.167 46.333 -39.5 63l54 76c32 -24 55.5 -55 70.5 -93s22.5 -82.667 22.5 -134c0 -17.333 4.16699 -35.666 12.5 -54.999s19.5 -37 33.5 -53s30.167 -29.333 48.5 -40s37.5 -16 57.5 -16s39 4 57 12
s33.833 18.833 47.5 32.5s24.334 29.5 32.001 47.5s11.5 37.333 11.5 58c0 20 -3.83301 39 -11.5 57s-18.334 33.833 -32.001 47.5s-29.5 24.5 -47.5 32.5s-37 12 -57 12c-5.33301 0 -11 -0.5 -17 -1.5s-11.667 -2.5 -17 -4.5l-36 85c9.33301 5.33301 20.166 9 32.499 11
s24.833 3 37.5 3c32.667 0 63.667 -6.33301 93 -19s55 -30 77 -52s39.333 -47.667 52 -77s19 -60.666 19 -93.999z" />
    <glyph glyph-name="u1004" unicode="&#x1004;" horiz-adv-x="574" 
d="M519 112c-10.667 -21.333 -23.999 -40.165 -39.999 -56.498s-33.833 -30 -53.5 -41s-40.5 -19.5 -62.5 -25.5s-44.333 -9 -67 -9c-32.667 0 -63.667 6.33301 -93 19s-55 30 -77 52s-39.333 47.667 -52 77s-19 60.666 -19 93.999c0 32.667 6.33301 63.667 19 93
s30 55 52 77s47.667 39.5 77 52.5s60.333 19.5 93 19.5c21.333 0 43 -2.83301 65 -8.5s43 -14 63 -25s38.333 -24.833 55 -41.5s30 -36 40 -58l-82 -43c-17.333 28.667 -38 49.667 -62 63s-50.333 20 -79 20c-20 0 -39 -4 -57 -12s-33.667 -18.833 -47 -32.5
s-24 -29.5 -32 -47.5s-12 -37 -12 -57c0 -20.667 4 -40 12 -58s18.667 -33.833 32 -47.5s29 -24.5 47 -32.5s37 -12 57 -12c30 0 57.167 7.16699 81.5 21.5s44.166 35.166 59.499 62.499l82 -44v0z" />
    <glyph glyph-name="u1005" unicode="&#x1005;" horiz-adv-x="586" 
d="M530 222c0 -33.333 -6.16602 -64.666 -18.499 -93.999s-29.166 -55 -50.499 -77s-46.5 -39.333 -75.5 -52s-60.167 -19 -93.5 -19c-32.667 0 -63.334 6.33301 -92.001 19s-53.834 30 -75.501 52s-38.667 47.667 -51 77s-18.5 60.666 -18.5 93.999
c0 32.667 6.16699 63.667 18.5 93s29.166 55 50.499 77s46.333 39.5 75 52.5s59.334 19.5 92.001 19.5c33.333 0 64.5 -6.5 93.5 -19.5s54.333 -30.5 76 -52.5s38.667 -47.667 51 -77s18.5 -60.333 18.5 -93zM437.001 222c0 19.333 -3.49902 37.832 -10.499 55.499
s-16.667 33.334 -29 47.001s-26.833 24.667 -43.5 33s-34.667 12.833 -54 13.5c-4.66699 0 -8.83398 -0.5 -12.501 -1.5l-12.5 -3.5c20 -23.333 33.5 -47.833 40.5 -73.5s10.5 -49.167 10.5 -70.5c0 -22.667 -3.66699 -46.667 -11 -72s-20.666 -49.666 -39.999 -72.999
l12.5 -3.5c3.66699 -1 7.5 -1.5 11.5 -1.5c18.667 1.33301 36.5 6.16602 53.5 14.499s31.667 19.333 44 33s22.166 29.167 29.499 46.5s11 36 11 56zM247.002 221.999c0 17.333 -3.33203 35.999 -9.99902 55.999s-18.334 39.667 -35.001 59c-16 -13.333 -29 -30 -39 -50
s-15 -41.667 -15 -65c0 -24 4.83301 -46 14.5 -66s22.834 -36.667 39.501 -50c15.333 18.667 26.666 37.834 33.999 57.501s11 39.167 11 58.5z" />
    <glyph glyph-name="u1006" unicode="&#x1006;" horiz-adv-x="974" 
d="M919 222c0 -33.333 -6.33105 -64.667 -18.998 -94s-29.667 -55 -51 -77s-46.333 -39.333 -75 -52s-59.334 -19 -92.001 -19c-40.667 0 -77.667 9.16699 -111 27.5s-60.333 42.833 -81 73.5c-20.667 -30 -47.834 -54.333 -81.501 -73s-71.834 -28 -114.501 -28
c-24 0 -49.667 4.33301 -77 13s-52.833 21.5 -76.5 38.5s-43.334 37.833 -59.001 62.5s-24.167 53 -25.5 85c36 22 69.333 37.333 100 46s57.334 13 80.001 13c30 0 62.167 -7 96.5 -21s64.166 -35.667 89.499 -65c6.66699 10 11.834 20.667 15.501 32s5.5 24 5.5 38
c0 12.667 -2.66699 27.5 -8 44.5s-14 33.167 -26 48.5s-27.5 28.5 -46.5 39.5s-41.833 16.5 -68.5 16.5c-24.667 0 -49 -5.83301 -73 -17.5s-46.667 -33.5 -68 -65.5l-80 43c10 21.333 23 40.333 39 57s33.833 30.667 53.5 42s40.5 19.833 62.5 25.5s44 8.5 66 8.5
c44 0 82.5 -9.66699 115.5 -29s59.5 -44.333 79.5 -75c21.333 32 48.666 57.333 81.999 76s70.333 28 111 28c32.667 0 63.334 -6.5 92.001 -19.5s53.834 -30.5 75.501 -52.5s38.667 -47.667 51 -77s18.5 -60.333 18.5 -93zM827.002 221.999
c0 20 -3.83301 39.167 -11.5 57.5s-18 34.166 -31 47.499s-28.333 24 -46 32s-36.5 12 -56.5 12s-39 -4 -57 -12s-33.5 -18.667 -46.5 -32s-23.333 -29.166 -31 -47.499s-11.5 -37.5 -11.5 -57.5c0 -20.667 3.83301 -40 11.5 -58s18.167 -33.833 31.5 -47.5
s28.833 -24.5 46.5 -32.5s36.5 -12 56.5 -12s38.833 4 56.5 12s33 18.833 46 32.5s23.333 29.5 31 47.5s11.5 37.333 11.5 58zM369.002 90.999c-14.667 20 -33.335 36.499 -56.002 49.499s-47.667 19.5 -75 19.5c-23.333 0 -49.666 -5.33301 -78.999 -16
c20 -27.333 42.333 -46.166 67 -56.499s47.334 -15.5 68.001 -15.5c14.667 0 28 1.66699 40 5s23.667 8 35 14z" />
    <glyph glyph-name="u1007" unicode="&#x1007;" horiz-adv-x="635" 
d="M527 103c-7.33301 12 -15.4961 26.165 -24.4961 42.498l-22.5 40.5c-13.333 -15.333 -29 -26.333 -47 -33s-36.667 -10 -56 -10c-14.667 0 -28.834 2.33301 -42.501 7s-25.667 11.167 -36 19.5s-18.666 18.666 -24.999 30.999s-9.5 26.5 -9.5 42.5
c0 11.333 1.83301 22.666 5.5 33.999s9.16699 21.666 16.5 30.999s16.833 17.333 28.5 24s25.5 11 41.5 13c8 0 15.333 -1.66699 22 -5c-8.66699 9.33301 -19.667 17.333 -33 24s-30.333 10 -51 10c-18.667 0 -36.834 -4.16699 -54.501 -12.5s-33.167 -19.5 -46.5 -33.5
s-24.166 -30.167 -32.499 -48.5s-12.5 -37.5 -12.5 -57.5c0 -20.667 3.83301 -40.167 11.5 -58.5s18 -34.166 31 -47.499s28.333 -24 46 -32s36.5 -12 56.5 -12c26.667 0 49.167 3.33301 67.5 10s34.833 15.667 49.5 27l65 -66c-21.333 -21.333 -45.5 -37.166 -72.5 -47.499
s-63.5 -15.5 -109.5 -15.5c-32.667 0 -63.334 6.33301 -92.001 19s-53.834 30 -75.501 52s-38.834 47.667 -51.501 77s-19 60.666 -19 93.999c0 32.667 6.5 63.667 19.5 93s30.5 55 52.5 77s47.333 39.5 76 52.5s58.667 19.5 90 19.5c26 0 51.167 -3.66699 75.5 -11
s46.5 -18.166 66.5 -32.499s36.5 -32.166 49.5 -53.499s21.167 -46.333 24.5 -75c15.333 -17.333 30.166 -38.666 44.499 -63.999s27.833 -50.666 40.5 -75.999zM432.004 251.998c-9.33301 10 -17.999 16.5 -25.999 19.5s-19 4.5 -33 4.5
c-10.667 0 -19.334 -2.66699 -26.001 -8s-10 -13.666 -10 -24.999c0 -10 4.66699 -17 14 -21s18 -6 26 -6c14 0 26.167 2.66699 36.5 8s16.5 14.666 18.5 27.999z" />
    <glyph glyph-name="u1008" unicode="&#x1008;" horiz-adv-x="798" 
d="M339 -372l-0.00195312 357.999c-8.66699 -2 -16.5 -3.33301 -23.5 -4s-14.167 -1 -21.5 -1c-33.333 0 -64.666 6.33301 -93.999 19s-54.666 29.834 -75.999 51.501s-38.166 47.167 -50.499 76.5s-18.5 61 -18.5 95c0 32.667 6.16699 63.667 18.5 93s29.166 55 50.499 77
s46.333 39.5 75 52.5s59.334 19.5 92.001 19.5c34 0 65.5 -6.5 94.5 -19.5s54.167 -30.5 75.5 -52.5s38.166 -47.667 50.499 -77s18.5 -60.333 18.5 -93c0 -42 -8.83301 -80 -26.5 -114s-41.5 -61.667 -71.5 -83v-325l193 -45v803h92v-923zM436.998 222.999
c0 20 -3.66602 38.834 -10.999 56.501s-17.166 33.167 -29.499 46.5s-26.833 24.166 -43.5 32.499s-34.334 12.833 -53.001 13.5c-4.66699 0 -8.83398 -0.333008 -12.501 -1s-7.5 -1.66699 -11.5 -3c19.333 -24 32.5 -48.833 39.5 -74.5s10.5 -49.167 10.5 -70.5
c0 -22 -3.66699 -46 -11 -72s-20.666 -50.667 -39.999 -74c8 -3.33301 16 -5 24 -5c18.667 1.33301 36.5 6.33301 53.5 15s31.667 19.667 44 33s22.166 28.833 29.499 46.5s11 36.5 11 56.5zM246.999 223c0 18 -3.16699 37.001 -9.5 57.001s-18.166 39.667 -35.499 59
c-16.667 -14 -29.834 -31 -39.501 -51s-14.5 -41.667 -14.5 -65c0 -24.667 4.66699 -46.834 14 -66.501s22.333 -36.5 39 -50.5c16 19.333 27.667 39 35 59s11 39.333 11 58z" />
    <glyph glyph-name="u1009" unicode="&#x1009;" horiz-adv-x="575" 
d="M901 -345c0 -23.333 -1.66992 -41.501 -5.00293 -54.501s-8.66602 -23.833 -15.999 -32.5c-8.66699 -10.667 -19.667 -18.667 -33 -24s-32.666 -8 -57.999 -8h-519c-34.667 0 -64.667 5.5 -90 16.5s-47.666 26.167 -66.999 45.5c-20 20.667 -34.667 43.5 -44 68.5
s-14 53.167 -14 84.5v361l83 44c10 -18 21.333 -32.5 34 -43.5s25.334 -19.5 38.001 -25.5s25 -10 37 -12s22.667 -3 32 -3c20.667 0 40 4 58 12s33.667 18.833 47 32.5s23.833 29.5 31.5 47.5s11.5 37.333 11.5 58c0 20 -3.83301 39 -11.5 57s-18.167 33.833 -31.5 47.5
s-29 24.5 -47 32.5s-37.333 12 -58 12c-9.33301 0 -20 -1.16699 -32 -3.5s-24.333 -6.5 -37 -12.5s-25.334 -14.5 -38.001 -25.5s-24 -24.833 -34 -41.5l-83 43c12 23.333 26.667 43.5 44 60.5s36 30.833 56 41.5s40.667 18.5 62 23.5s42 7.5 62 7.5
c32.667 0 63.667 -6.5 93 -19.5s55 -30.5 77 -52.5s39.333 -47.667 52 -77s19 -60.333 19 -93c0 -33.333 -6.33301 -64.666 -19 -93.999s-30 -55 -52 -77s-47.667 -39.333 -77 -52s-60.333 -19 -93 -19c-22 0 -44.167 3 -66.5 9s-43.833 15.333 -64.5 28v-254
c0 -20 2.33301 -38.833 7 -56.5s12.667 -32.167 24 -43.5c13.333 -12.667 28.333 -21.5 45 -26.5s36.667 -7.5 60 -7.5h485c17.333 0 28.333 3 33 9s7 18 7 36v44h92v-63z" />
    <glyph glyph-name="u100A" unicode="&#x100a;" horiz-adv-x="966" 
d="M912 222c0 -33.333 -6.33203 -64.666 -18.999 -93.999s-30 -55 -52 -77s-47.667 -39.333 -77 -52s-60.333 -19 -93 -19c-42.667 0 -80.334 10.667 -113.001 32s-59.667 47.666 -81 78.999c-20.667 -33.333 -48.334 -60.166 -83.001 -80.499s-73 -30.5 -115 -30.5
c-22 0 -44.5 3.16699 -67.5 9.5s-44.167 16.166 -63.5 29.499v-256c0 -20 2.33301 -38.833 7 -56.5s12.667 -32.167 24 -43.5c13.333 -12.667 28.333 -21.5 45 -26.5s36.667 -7.5 60 -7.5h478c17.333 0 28.333 3 33 9s7 18 7 36v44h93v-63
c0 -23.333 -1.83301 -41.5 -5.5 -54.5s-9.16699 -23.833 -16.5 -32.5c-8.66699 -10.667 -19.667 -18.667 -33 -24s-32.666 -8 -57.999 -8h-512c-34.667 0 -64.667 5.5 -90 16.5s-47.666 26.167 -66.999 45.5c-20 20.667 -34.667 43.5 -44 68.5s-14 53.167 -14 84.5v361
l83 44c15.333 -29.333 35.666 -50.666 60.999 -63.999s52 -20 80 -20c20.667 0 40 4 58 12s33.667 18.667 47 32s23.833 29.166 31.5 47.499s11.5 37.5 11.5 57.5c0 18.667 -3.83301 37 -11.5 55s-18 34 -31 48s-28.667 25.333 -47 34s-37.833 13 -58.5 13
c-29.333 0 -56 -6.66699 -80 -20s-44.333 -34.333 -61 -63l-83 43c12 23.333 26.667 43.5 44 60.5s36 30.833 56 41.5s40.667 18.5 62 23.5s42 7.5 62 7.5c32 0 62.5 -6.33301 91.5 -19s54.333 -30 76 -52s39 -47.667 52 -77s19.833 -60.666 20.5 -93.999
c2.66699 -17.333 8.66699 -35 18 -53s20.833 -34.167 34.5 -48.5s29 -26 46 -35s34.833 -13.5 53.5 -13.5c20 0 39 4 57 12s33.833 18.833 47.5 32.5s24.334 29.5 32.001 47.5s11.5 37.333 11.5 58c0 20 -3.83301 39 -11.5 57s-18.334 33.833 -32.001 47.5
s-29.5 24.5 -47.5 32.5s-37 12 -57 12c-12.667 0 -24 -2 -34 -6l-36 85c8.66699 4 19.5 7.33301 32.5 10s25.5 4 37.5 4c32.667 0 63.667 -6.33301 93 -19s55 -29.834 77 -51.501s39.333 -47.167 52 -76.5s19 -61 19 -95z" />
    <glyph glyph-name="u100B" unicode="&#x100b;" horiz-adv-x="621" 
d="M595 -428c-7.33301 -4 -15.498 -8.16113 -24.498 -12.4941s-18 -8.33301 -27 -12s-17.167 -6.5 -24.5 -8.5s-13 -3 -17 -3c-24.667 0 -43.5 7 -56.5 21s-19.5 33.667 -19.5 59v85c-20.667 -6.66699 -42 -11.334 -64 -14.001s-44 -4 -66 -4
c-36 0 -71.833 3.66699 -107.5 11s-69.834 19.666 -102.501 36.999v264c30 -22.667 62.5 -41.334 97.5 -56.001s72.5 -22 112.5 -22c24.667 0 47.667 2.83301 69 8.5s41.666 13.5 60.999 23.5v68c-20.667 -12.667 -42.167 -22 -64.5 -28s-44.166 -9 -65.499 -9
c-32.667 0 -63.667 6.33301 -93 19s-55 30 -77 52s-39.333 47.667 -52 77s-19 60.666 -19 93.999c0 32.667 6.33301 63.667 19 93s30 55 52 77s47.667 39.5 77 52.5s60.333 19.5 93 19.5c20 0 40.5 -2.5 61.5 -7.5s41.5 -12.833 61.5 -23.5s38.667 -24.5 56 -41.5
s32 -37.167 44 -60.5l-82 -43c-15.333 27.333 -35.666 48 -60.999 62s-52 21 -80 21c-20 0 -39 -4 -57 -12s-33.667 -18.833 -47 -32.5s-24 -29.5 -32 -47.5s-12 -37 -12 -57c0 -20.667 4 -40 12 -58s18.667 -33.833 32 -47.5s29 -24.5 47 -32.5s37 -12 57 -12
c30 0 57.167 7.16699 81.5 21.5s44.166 35.166 59.499 62.499l82 -44v-207c-34 -24 -69.667 -42.5 -107 -55.5s-76 -19.5 -116 -19.5c-20 0 -39.833 1.66699 -59.5 5s-38.834 8 -57.501 14v-60c18.667 -7.33301 37.834 -12.5 57.501 -15.5s39.5 -4.5 59.5 -4.5
c41.333 0 79.666 5.16699 114.999 15.5s71.333 26.166 108 47.499v-167c0 -12.667 3.66699 -19 11 -19c4.66699 0 11 1.5 19 4.5s15.667 6.16699 23 9.5l23 -88v0z" />
    <glyph glyph-name="u100C" unicode="&#x100c;" horiz-adv-x="574" 
d="M519 -270c0 -32.667 -5.1709 -59.668 -15.5039 -81.001s-23.166 -40 -38.499 -56c-15.333 -15.333 -33.5 -28.666 -54.5 -39.999s-46.5 -17 -76.5 -17h-137c-22.667 0 -42 4.5 -58 13.5s-29.167 20.5 -39.5 34.5s-18 29.167 -23 45.5s-7.5 31.833 -7.5 46.5
c0 18.667 3.5 36.334 10.5 53.001s16.833 31.167 29.5 43.5s27.5 22 44.5 29s35.5 10.5 55.5 10.5c22.667 0 41 -2.33301 55 -7s26.333 -11 37 -19l-45 -80c-7.33301 4 -14.666 7.33301 -21.999 10s-15.666 4 -24.999 4c-11.333 0 -22 -3.5 -32 -10.5s-15 -18.167 -15 -33.5
s5 -27 15 -35s22.667 -12 38 -12h94c24.667 0 43.167 2.16699 55.5 6.5s23.833 11.833 34.5 22.5c18 18 27 45.667 27 83v276c-20.667 -12.667 -42.167 -22 -64.5 -28s-44.166 -9 -65.499 -9c-32.667 0 -63.667 6.33301 -93 19s-55 30 -77 52s-39.333 47.667 -52 77
s-19 60.666 -19 93.999c0 32.667 6.33301 63.667 19 93s30 55 52 77s47.667 39.5 77 52.5s60.333 19.5 93 19.5c20 0 40.5 -2.5 61.5 -7.5s41.5 -12.833 61.5 -23.5s38.667 -24.5 56 -41.5s32 -37.167 44 -60.5l-82 -43c-17.333 28.667 -38.166 49.667 -62.499 63
s-50.5 20 -78.5 20c-20 0 -39 -4 -57 -12s-33.667 -18.833 -47 -32.5s-24 -29.5 -32 -47.5s-12 -37 -12 -57c0 -20.667 4 -40 12 -58s18.667 -33.833 32 -47.5s29 -24.5 47 -32.5s37 -12 57 -12c28 0 54.167 6.5 78.5 19.5s45.166 34.5 62.499 64.5l82 -44v-382z" />
    <glyph glyph-name="u100D" unicode="&#x100d;" horiz-adv-x="589" 
d="M383 -464l0.000976562 301c-31.333 -11.333 -66 -17 -104 -17c-37.333 0 -76.5 5.16699 -117.5 15.5s-76.5 27.5 -106.5 51.5v225l83 44c17.333 -30 38.166 -51.5 62.499 -64.5s50.5 -19.5 78.5 -19.5c20.667 0 40 4 58 12s33.667 18.833 47 32.5s23.833 29.5 31.5 47.5
s11.5 37.333 11.5 58c0 20 -3.83301 39 -11.5 57s-18.167 33.833 -31.5 47.5s-29 24.5 -47 32.5s-37.333 12 -58 12c-28 0 -54.167 -6.66699 -78.5 -20s-45.166 -34.333 -62.499 -63l-83 43c12 23.333 26.667 43.5 44 60.5s36 30.833 56 41.5s40.667 18.5 62 23.5
s42 7.5 62 7.5c32.667 0 63.667 -6.5 93 -19.5s55 -30.5 77 -52.5s39.333 -47.667 52 -77s19 -60.333 19 -93c0 -33.333 -6.33301 -64.666 -19 -93.999s-30 -55 -52 -77s-47.667 -39.333 -77 -52s-60.333 -19 -93 -19c-22 0 -44.167 3 -66.5 9s-43.5 15.333 -63.5 28v-79
c19.333 -10 39.666 -17.667 60.999 -23s44.333 -8 69 -8c40 0 76.833 6.66699 110.5 20s62.5 28.666 86.5 45.999v-344h69v-93h-162z" />
    <glyph glyph-name="u100E" unicode="&#x100e;" horiz-adv-x="587" 
d="M532 240c0 -39.333 -6.50391 -74.833 -19.5039 -106.5s-30.667 -59 -53 -82s-48.166 -40.667 -77.499 -53s-60 -18.5 -92 -18.5c-36 0 -68.5 5.83301 -97.5 17.5s-53.667 26.5 -74 44.5s-36 38 -47 60s-16.5 43.667 -16.5 65c0 24 3.5 43.667 10.5 59s15.5 28 25.5 38
s21.167 17.833 33.5 23.5l33.5 16c10 5 18.5 10.167 25.5 15.5s10.5 12.666 10.5 21.999c0 14.667 -4 24.834 -12 30.501s-16.667 8.5 -26 8.5c-7.33301 0 -13.833 -2 -19.5 -6s-9.5 -7.66699 -11.5 -11l-70 43c2 6 6.16699 12.333 12.5 19s13.833 12.834 22.5 18.501
s18.334 10.334 29.001 14.001s22 5.5 34 5.5c16.667 0 32.334 -2.5 47.001 -7.5s27.667 -12.5 39 -22.5s20.333 -22.667 27 -38s10 -33.333 10 -54c0 -26.667 -6.66699 -47.167 -20 -61.5s-28 -26.666 -44 -36.999s-30.667 -20.833 -44 -31.5s-20 -25.334 -20 -44.001
c0 -7.33301 3 -16.5 9 -27.5s15 -21.5 27 -31.5s26.833 -18.5 44.5 -25.5s38.167 -10.5 61.5 -10.5c14.667 0 30.834 3.16699 48.501 9.5s33.834 16.166 48.501 29.499s27 30.666 37 51.999s15 47 15 77c0 62.667 -18 111.667 -54 147l54 76
c29.333 -22 52.166 -51 68.499 -87s24.5 -81.333 24.5 -136z" />
    <glyph glyph-name="u100F" unicode="&#x100f;" horiz-adv-x="1047" 
d="M991 222c0 -33.333 -5.33984 -64.6689 -16.0068 -94.002s-25.5 -55 -44.5 -77s-42 -39.333 -69 -52s-56.833 -19 -89.5 -19c-8.66699 0 -18 0.666992 -28 2s-18.333 3.66602 -25 6.99902l32 88c6.66699 -3.33301 13.667 -5 21 -5c20.667 0 38.834 4 54.501 12
s28.834 18.833 39.501 32.5s18.834 29.5 24.501 47.5s8.5 37.333 8.5 58c0 20 -3 39 -9 57s-14.833 33.833 -26.5 47.5s-25.667 24.5 -42 32.5s-34.5 12 -54.5 12c-18.667 0 -35 -4 -49 -12s-25.667 -18.833 -35 -32.5s-16.333 -29.5 -21 -47.5s-7 -37 -7 -57
c0 -13.333 1 -24.666 3 -33.999l6 -27l6 -26c2 -8.66699 3 -18.334 3 -29.001c0 -20.667 -4.66699 -38.834 -14 -54.501s-21.166 -28.834 -35.499 -39.501s-30.166 -18.667 -47.499 -24s-34 -8 -50 -8s-32.667 2.66699 -50 8s-33.333 13.333 -48 24
s-26.667 23.834 -36 39.501s-14 33.834 -14 54.501c0 12.667 1 23.334 3 32.001s4.33301 17.167 7 25.5s5 17 7 26s3 19.833 3 32.5c0 20 -2.66699 39 -8 57s-13 33.833 -23 47.5s-22.333 24.5 -37 32.5s-31.334 12 -50.001 12c-20.667 0 -39.167 -4 -55.5 -12
s-30.166 -18.833 -41.499 -32.5s-20 -29.5 -26 -47.5s-9 -37 -9 -57c0 -20.667 2.83301 -40 8.5 -58s13.834 -33.833 24.501 -47.5s23.834 -24.5 39.501 -32.5s33.834 -12 54.501 -12c8.66699 0 15.667 1.66699 21 5l31 -88c-6 -3.33301 -14.167 -5.66602 -24.5 -6.99902
s-19.5 -2 -27.5 -2c-33.333 0 -63.5 6.33301 -90.5 19s-50 30 -69 52s-33.833 47.667 -44.5 77s-16 60.666 -16 93.999c0 32.667 5.5 63.667 16.5 93s26.5 55 46.5 77s43.667 39.5 71 52.5s57.666 19.5 90.999 19.5c19.333 0 39.666 -3.66699 60.999 -11
s41.333 -17.666 60 -30.999c17.333 12.667 35.833 22.834 55.5 30.501s42.834 11.5 69.501 11.5c25.333 0 48 -3.83301 68 -11.5s38.333 -17.5 55 -29.5c40.667 27.333 80 41 118 41c32.667 0 62.667 -6.5 90 -19.5s51 -30.5 71 -52.5s35.5 -47.667 46.5 -77
s16.5 -60.333 16.5 -93zM590.993 348.997c-8 6 -18.166 11.167 -30.499 15.5s-23.833 6.5 -34.5 6.5c-11.333 0 -23.166 -2 -35.499 -6s-22.833 -9 -31.5 -15c9.33301 -17.333 16.666 -36.666 21.999 -57.999s8 -44.666 8 -69.999c0 -6.66699 -0.833008 -14.5 -2.5 -23.5
s-3.66699 -17.833 -6 -26.5s-4.33301 -16.834 -6 -24.501s-2.5 -13.834 -2.5 -18.501c0 -20.667 5.16699 -35.334 15.5 -44.001s23.166 -13 38.499 -13c13.333 0 25.333 4.33301 36 13s16 23.334 16 44.001c0 6 -0.833008 13 -2.5 21l-5 24.5l-5 25
c-1.66699 8.33301 -2.5 15.833 -2.5 22.5c0 50 9.33301 92.333 28 127z" />
    <glyph glyph-name="u1010" unicode="&#x1010;" horiz-adv-x="977" 
d="M922 222c0 -33.333 -6.33496 -64.667 -19.002 -94s-30 -55 -52 -77s-47.667 -39.333 -77 -52s-60.333 -19 -93 -19c-12 0 -24.333 0.833008 -37 2.5s-23.667 5.16699 -33 10.5l37 85c5.33301 -2 10.833 -3.5 16.5 -4.5s11.167 -1.5 16.5 -1.5c20.667 0 40 4 58 12
s33.667 18.833 47 32.5s24 29.5 32 47.5s12 37.333 12 58c0 20 -4 39 -12 57s-18.667 33.833 -32 47.5s-29 24.5 -47 32.5s-37.333 12 -58 12c-21.333 0 -40.833 -5.33301 -58.5 -16s-33.167 -23.834 -46.5 -39.501s-24 -32.334 -32 -50.001s-12.667 -33.834 -14 -48.501
c0 -29.333 -5.83301 -58.166 -17.5 -86.499s-28 -53.666 -49 -75.999s-45.833 -40.333 -74.5 -54s-60.334 -20.5 -95.001 -20.5c-33.333 0 -64.666 6.33301 -93.999 19s-54.666 30 -75.999 52s-38.166 47.667 -50.499 77s-18.5 60.666 -18.5 93.999
c0 32.667 6.16699 63.667 18.5 93s29.166 55 50.499 77s46.333 39.5 75 52.5s59.334 19.5 92.001 19.5c42 0 80.333 -10.167 115 -30.5s62.334 -47.166 83.001 -80.499c20 30.667 46.667 56.834 80 78.501s70.666 32.5 111.999 32.5c32.667 0 63.667 -6.5 93 -19.5
s55 -30.5 77 -52.5s39.333 -47.667 52 -77s19 -60.333 19 -93zM436.998 219.999c0 20 -3.66602 39.166 -10.999 57.499s-17.5 34.5 -30.5 48.5s-28.167 25 -45.5 33s-36 12 -56 12s-39 -4 -57 -12s-33.5 -18.833 -46.5 -32.5s-23.333 -29.5 -31 -47.5s-11.5 -37 -11.5 -57
c0 -20.667 3.83301 -40 11.5 -58s18 -33.833 31 -47.5s28.167 -24.5 45.5 -32.5s35.666 -12 54.999 -12c20.667 0 40 4.16699 58 12.5s33.5 19.333 46.5 33s23.167 29.334 30.5 47.001s11 36.167 11 55.5z" />
    <glyph glyph-name="u1011" unicode="&#x1011;" horiz-adv-x="971" 
d="M916 222c0 -33.333 -6.33105 -64.666 -18.998 -93.999s-29.667 -55 -51 -77s-46.333 -39.333 -75 -52s-59.334 -19 -92.001 -19c-40.667 0 -77.834 9.16699 -111.501 27.5s-60.834 43.5 -81.501 75.5c-22 -31.333 -49.5 -56.333 -82.5 -75s-69.5 -28 -109.5 -28
c-33.333 0 -64.666 6.33301 -93.999 19s-54.666 30 -75.999 52s-38.166 47.667 -50.499 77s-18.5 60.666 -18.5 93.999c0 32.667 6.16699 63.667 18.5 93s29.166 55 50.499 77s46.333 39.5 75 52.5s59.334 19.5 92.001 19.5c41.333 0 78.666 -9.33301 111.999 -28
s61 -44 83 -76c20.667 32 47.667 57.333 81 76s70 28 110 28c32.667 0 63.667 -6.5 93 -19.5s54.666 -30.5 75.999 -52.5s38.333 -47.667 51 -77s19 -60.333 19 -93zM824.002 222c0 20 -3.83398 39 -11.501 57s-18.167 33.833 -31.5 47.5s-28.666 24.5 -45.999 32.5
s-36 12 -56 12s-39 -4 -57 -12s-33.5 -18.833 -46.5 -32.5s-23.333 -29.5 -31 -47.5s-11.5 -37 -11.5 -57c0 -20.667 3.83301 -40 11.5 -58s18 -33.833 31 -47.5s28.167 -24.5 45.5 -32.5s36 -12 56 -12s39 4 57 12s33.667 18.833 47 32.5s23.833 29.5 31.5 47.5
s11.5 37.333 11.5 58zM437.001 222c0 20 -3.83301 39 -11.5 57s-18 33.833 -31 47.5s-28.167 24.5 -45.5 32.5s-35.666 12 -54.999 12c-20 0 -39 -4 -57 -12s-33.5 -18.833 -46.5 -32.5s-23.333 -29.5 -31 -47.5s-11.5 -37 -11.5 -57c0 -20.667 3.83301 -40 11.5 -58
s18 -33.833 31 -47.5s28.167 -24.5 45.5 -32.5s35.666 -12 54.999 -12c20 0 39 4 57 12s33.5 18.833 46.5 32.5s23.333 29.5 31 47.5s11.5 37.333 11.5 58z" />
    <glyph glyph-name="u1012" unicode="&#x1012;" horiz-adv-x="546" 
d="M491 130c0 -20.667 -4.33301 -39.999 -13 -57.999s-21.834 -33.833 -39.501 -47.5s-40.167 -24.5 -67.5 -32.5s-60 -12 -98 -12c-72.667 0 -127.167 13.167 -163.5 39.5s-54.5 59.5 -54.5 99.5l89 33c0 -8 2.5 -16.667 7.5 -26s12.667 -18 23 -26
s23.666 -14.667 39.999 -20s35.833 -8 58.5 -8c15.333 0 30.5 1 45.5 3s28.5 5.33301 40.5 10s21.667 10.667 29 18s11 16.666 11 27.999c0 8.66699 -3.33301 16.167 -10 22.5s-15.667 11.666 -27 15.999s-24.666 7.66602 -39.999 9.99902s-31.666 3.5 -48.999 3.5v77
c17.333 0.666992 33.666 2 48.999 4s28.666 5.16699 39.999 9.5s20.333 9.83301 27 16.5s10 14.667 10 24c0 10 -3.66699 18.667 -11 26s-17 13.333 -29 18s-25.5 8 -40.5 10s-30.167 3 -45.5 3c-22.667 0 -42.167 -2.66699 -58.5 -8s-29.666 -11.833 -39.999 -19.5
s-18 -16.167 -23 -25.5s-7.5 -18 -7.5 -26l-89 32c0 40 18.667 73.333 56 100s91.333 40 162 40c38 0 70.667 -4 98 -12s49.833 -18.833 67.5 -32.5s30.834 -29.667 39.501 -48s13 -37.833 13 -58.5c0 -19.333 -4.66699 -37.166 -14 -53.499s-22.333 -29.166 -39 -38.499
c16.667 -10 29.667 -23 39 -39s14 -33.333 14 -52z" />
    <glyph glyph-name="u1013" unicode="&#x1013;" horiz-adv-x="586" 
d="M530 222c0 -33.333 -6.16992 -64.666 -18.5029 -93.999s-29.166 -55 -50.499 -77s-46.333 -39.333 -75 -52s-59.334 -19 -92.001 -19c-33.333 0 -64.666 6.33301 -93.999 19s-54.666 30 -75.999 52s-38.166 47.667 -50.499 77s-18.5 60.666 -18.5 93.999
c0 32.667 6.16699 63.667 18.5 93s29.166 55 50.499 77s46.333 39.5 75 52.5s59.334 19.5 92.001 19.5c33.333 0 64.5 -6.5 93.5 -19.5s54.333 -30.5 76 -52.5s38.667 -47.667 51 -77s18.5 -60.333 18.5 -93zM436.997 229c-1.33301 18.667 -5.83496 36.668 -13.502 54.001
s-18 32.5 -31 45.5s-28 23.333 -45 31s-34.833 11.5 -53.5 11.5c-19.333 0 -37.666 -3.66699 -54.999 -11s-32.666 -17.5 -45.999 -30.5s-24 -28.167 -32 -45.5s-12.333 -36 -13 -56c0 -10 1.33301 -18 4 -24c21.333 19.333 44.833 32.166 70.5 38.499s49.167 9.5 70.5 9.5
s44.5 -3.5 69.5 -10.5s48.167 -19.5 69.5 -37.5c3.33301 8.66699 5 17 5 25zM405.995 130.001c-18 15.333 -36.499 26.334 -55.499 33.001s-37.833 10 -56.5 10c-17.333 0 -36 -3.33301 -56 -10s-39.667 -18.334 -59 -35.001c13.333 -17.333 29.666 -31 48.999 -41
s40.333 -15 63 -15c23.333 0 45 5.33301 65 16s36.667 24.667 50 42z" />
    <glyph glyph-name="u1014" unicode="&#x1014;" horiz-adv-x="554" 
d="M506 140c0 -42 -11.6689 -75.0039 -35.002 -99.0039s-59.666 -41.333 -108.999 -52v-453h-93v444h-26c-19.333 0 -40.5 0.833008 -63.5 2.5s-44.167 6.33398 -63.5 14.001s-35.5 19.334 -48.5 35.001s-19.5 37.5 -19.5 65.5c0 16.667 3.83301 32.5 11.5 47.5
s18.167 28 31.5 39s28.5 19.833 45.5 26.5s35.167 10 54.5 10c38 0 72.333 -13.667 103 -41c30.667 -28 51 -62.333 61 -103c17.333 5.33301 31.333 13 42 23s16 23.667 16 41c0 18 -6.66699 33 -20 45s-30 22.5 -50 31.5s-41.667 17.5 -65 25.5s-45 17 -65 27
s-36.667 22.167 -50 36.5s-20 32.166 -20 53.499c0 32 13.333 57.5 40 76.5s62.334 28.5 107.001 28.5c26 0 48 -4.16699 66 -12.5s32 -17.166 42 -26.499l-41 -65c-7.33301 6 -16.833 11.667 -28.5 17s-24.5 8 -38.5 8c-15.333 0 -28.333 -2 -39 -6s-16 -10.667 -16 -20
s6.66699 -17.166 20 -23.499s30 -12.666 50 -18.999l65.5 -21.5c23.667 -8 45.5 -18.5 65.5 -31.5s36.667 -29.333 50 -49s20 -44.5 20 -74.5zM264.998 59.9961c-5.33301 23.333 -14.168 42.001 -26.501 56.001s-28.166 21 -47.499 21c-6.66699 0 -13.5 -1 -20.5 -3
s-13.5 -4.66699 -19.5 -8s-10.833 -7.5 -14.5 -12.5s-5.5 -10.5 -5.5 -16.5c0 -8 3 -14.5 9 -19.5s13.5 -8.83301 22.5 -11.5s19 -4.33398 30 -5.00098s21.833 -1 32.5 -1h40z" />
    <glyph glyph-name="u1015" unicode="&#x1015;" horiz-adv-x="595" 
d="M539 238c0 -36 -6.16406 -69.667 -18.4971 -101s-29.333 -58.666 -51 -81.999s-47.334 -41.666 -77.001 -54.999s-61.5 -20 -95.5 -20s-65.833 6.66699 -95.5 20s-55.334 31.666 -77.001 54.999s-38.667 50.666 -51 81.999s-18.5 65 -18.5 101
c0 50 7.16699 92.667 21.5 128s38.166 67.666 71.499 96.999l53 -76c-9.33301 -10.667 -17.333 -21 -24 -31s-12.167 -20.667 -16.5 -32s-7.5 -23.833 -9.5 -37.5s-3 -29.834 -3 -48.501c0 -22 3.5 -43 10.5 -63s17 -37.667 30 -53s28.667 -27.5 47 -36.5
s38.833 -13.5 61.5 -13.5s43.167 4.5 61.5 13.5s34 21.167 47 36.5s23 33 30 53s10.5 41 10.5 63c0 18.667 -1 34.834 -3 48.501s-5.16699 26.167 -9.5 37.5s-9.83301 22 -16.5 32s-14.667 20.333 -24 31l54 76c33.333 -29.333 57 -61.666 71 -96.999s21 -78 21 -128z" />
    <glyph glyph-name="u1016" unicode="&#x1016;" horiz-adv-x="594" 
d="M539 238c0 -36.667 -6.33398 -70.833 -19.001 -102.5s-30 -59 -52 -82s-47.667 -41 -77 -54s-60.666 -19.5 -93.999 -19.5s-64.666 6.5 -93.999 19.5s-55 31 -77 54s-39.333 50.333 -52 82s-19 65.834 -19 102.501c0 50 7.33301 93.333 22 130
s38.334 68.334 71.001 95.001l53 -76c-17.333 -18 -30.5 -38 -39.5 -60s-13.5 -51.667 -13.5 -89c0 -24 4 -46 12 -66s18.667 -37.5 32 -52.5s29.166 -26.667 47.499 -35s37.5 -12.5 57.5 -12.5c25.333 0 45.666 5.33301 60.999 16
c-22.667 21.333 -40.167 45.166 -52.5 71.499s-18.5 54.5 -18.5 84.5c0 24 3 47.167 9 69.5s14.5 43.166 25.5 62.499s24.5 36.333 40.5 51s33.667 26.667 53 36c16.667 -14.667 32.5 -29.834 47.5 -45.501s28.167 -32.667 39.5 -51s20.333 -38.166 27 -59.499
s10 -44.333 10 -69zM445.999 238.001c0 24.667 -4.50098 45.667 -13.501 63s-20.167 32.666 -33.5 45.999c-11.333 -15.333 -19.666 -31.166 -24.999 -47.499s-8 -34.833 -8 -55.5c0 -21.333 4.66699 -40.5 14 -57.5s22 -32.167 38 -45.5c18.667 26 28 58.333 28 97z" />
    <glyph glyph-name="u1017" unicode="&#x1017;" horiz-adv-x="595" 
d="M539 232c0 -34 -6.16699 -66.333 -18.5 -97s-29.5 -57.5 -51.5 -80.5s-47.667 -41.167 -77 -54.5s-61 -20 -95 -20s-65.667 6.66699 -95 20s-55 31.5 -77 54.5s-39.167 49.833 -51.5 80.5s-18.5 63 -18.5 97c0 48.667 7 93.5 21 134.5s37.667 73.167 71 96.5
c25.333 -42 50.333 -70.833 75 -86.5s49.667 -23.5 75 -23.5s50.5 7.83301 75.5 23.5s49.833 44.5 74.5 86.5c33.333 -23.333 57 -55.833 71 -97.5s21 -86.167 21 -133.5zM446 232c0 17.333 -1.5 32.5 -4.5 45.5s-8.16699 25.5 -15.5 37.5
c-14.667 -17.333 -32.667 -30.833 -54 -40.5s-46.333 -14.5 -75 -14.5c-56 0 -99 18.667 -129 56c-7.33301 -12 -12.5 -24.5 -15.5 -37.5s-4.5 -28.5 -4.5 -46.5c0 -20.667 3.66699 -40.5 11 -59.5s17.5 -36 30.5 -51s28.667 -27 47 -36s38.5 -13.5 60.5 -13.5
c22.667 0 43.167 4.5 61.5 13.5s34 21 47 36s23 32 30 51s10.5 38.833 10.5 59.5z" />
    <glyph glyph-name="u1018" unicode="&#x1018;" horiz-adv-x="965" 
d="M911 222c0 -33.333 -6.33203 -64.665 -18.999 -93.998s-30 -55 -52 -77s-47.667 -39.333 -77 -52s-60.333 -19 -93 -19c-13.333 0 -26 0.833008 -38 2.5s-22.667 5.16699 -32 10.5l35 85c5.33301 -2 11.166 -3.5 17.499 -4.5s12.166 -1.5 17.499 -1.5c20 0 39 4 57 12
s33.833 18.833 47.5 32.5s24.334 29.5 32.001 47.5s11.5 37.333 11.5 58c0 20 -3.83301 39 -11.5 57s-18.334 33.833 -32.001 47.5s-29.5 24.5 -47.5 32.5s-37 12 -57 12s-38.833 -5 -56.5 -15s-33.5 -22.833 -47.5 -38.5s-25.333 -33 -34 -52s-13.334 -37.5 -14.001 -55.5
c0 -28 -6 -55.667 -18 -83s-28.667 -51.833 -50 -73.5s-46.5 -39.334 -75.5 -53.001s-60.833 -20.5 -95.5 -20.5c-20.667 0 -41.834 2.5 -63.501 7.5s-42.5 13 -62.5 24s-38.5 24.667 -55.5 41s-31.167 36.166 -42.5 59.499l83 44c10 -18 21.333 -32.5 34 -43.5
s25.334 -19.5 38.001 -25.5s25 -10 37 -12s22.667 -3 32 -3c20.667 0 40.167 4 58.5 12s34 18.833 47 32.5s23.333 29.5 31 47.5s11.5 36.667 11.5 56c0 20 -3.83301 39.167 -11.5 57.5s-18.167 34.5 -31.5 48.5s-29 25 -47 33s-37.333 12 -58 12
c-9.33301 0 -20 -1.16699 -32 -3.5s-24.333 -6.5 -37 -12.5s-25.334 -14.5 -38.001 -25.5s-24 -24.833 -34 -41.5l-83 43c12 23.333 26.5 43.5 43.5 60.5s35.5 30.833 55.5 41.5s40.833 18.5 62.5 23.5s42.5 7.5 62.5 7.5c42 0 80.333 -10 115 -30
s62.334 -46.667 83.001 -80c20.667 30 47.334 55.833 80.001 77.5s70.334 32.5 113.001 32.5c32.667 0 63.667 -6.5 93 -19.5s55 -30.5 77 -52.5s39.333 -47.667 52 -77s19 -60.333 19 -93z" />
    <glyph glyph-name="u1019" unicode="&#x1019;" horiz-adv-x="595" 
d="M539 238c0 -36 -6.16309 -69.665 -18.4961 -100.998s-29.333 -58.666 -51 -81.999s-47.334 -41.666 -77.001 -54.999s-61.5 -20 -95.5 -20s-65.833 6.66699 -95.5 20s-55.334 31.666 -77.001 54.999s-38.667 50.666 -51 81.999s-18.5 65 -18.5 101
c0 50 7.16699 92.667 21.5 128s38.166 67.666 71.499 96.999l53 -76c-9.33301 -10.667 -17.333 -21.167 -24 -31.5s-12.167 -21.333 -16.5 -33s-7.5 -24.5 -9.5 -38.5s-3 -29.333 -3 -46c0 -10.667 1.66699 -22 5 -34c21.333 18 44.5 30.5 69.5 37.5s49.833 10.5 74.5 10.5
c25.333 0 50.166 -3.66699 74.499 -11s47.5 -20 69.5 -38c2 5.33301 3.33301 11.166 4 17.499s1 12.166 1 17.499c0 33.333 -4.16699 61 -12.5 83s-21.833 44 -40.5 66l54 76c33.333 -29.333 57 -61.666 71 -96.999s21 -78 21 -128zM412.004 129.002
c-18.667 16 -37.667 27.333 -57 34s-38.666 10 -57.999 10c-17.333 0 -35.833 -3.33301 -55.5 -10s-38.834 -18 -57.501 -34c12.667 -17.333 28.667 -31.166 48 -41.499s41 -15.5 65 -15.5c25.333 0 47.333 5.16699 66 15.5s35 24.166 49 41.499z" />
    <glyph glyph-name="u101A" unicode="&#x101a;" horiz-adv-x="983" 
d="M928 222c0 -33.333 -6.33105 -64.665 -18.998 -93.998s-30 -55 -52 -77s-47.5 -39.333 -76.5 -52s-59.833 -19 -92.5 -19c-42.667 0 -80.334 11 -113.001 33s-58.667 48.667 -78 80c-21.333 -35.333 -49.166 -63.166 -83.499 -83.499s-73.166 -30.5 -116.499 -30.5
c-34 0 -65.833 6.66699 -95.5 20s-55.334 31.666 -77.001 54.999s-38.667 50.666 -51 81.999s-18.5 65 -18.5 101c0 50 7.16699 92.667 21.5 128s38.166 67.666 71.499 96.999l53 -76c-19.333 -21.333 -33 -42.833 -41 -64.5s-12 -49.834 -12 -84.501
c0 -22 3.5 -42.833 10.5 -62.5s17 -37.167 30 -52.5s28.667 -27.5 47 -36.5s38.833 -13.5 61.5 -13.5s43.167 4.5 61.5 13.5s34 21.167 47 36.5s23 32.833 30 52.5s10.5 40.5 10.5 62.5c0 34 -4 62 -12 84s-21.667 43.667 -41 65l54 76
c35.333 -30.667 59.5 -64.167 72.5 -100.5s19.5 -77.833 19.5 -124.5c0 -18 4 -36.833 12 -56.5s18.833 -37.5 32.5 -53.5s29.5 -29.167 47.5 -39.5s37 -15.5 57 -15.5s39 4 57 12s33.667 18.833 47 32.5s23.833 29.5 31.5 47.5s11.5 37.333 11.5 58
c0 20 -3.83301 39 -11.5 57s-18.167 33.833 -31.5 47.5s-29 24.5 -47 32.5s-37 12 -57 12c-12.667 0 -24.334 -2 -35.001 -6l-36 85c20 9.33301 43.667 14 71 14c32.667 0 63.5 -6.33301 92.5 -19s54.5 -30 76.5 -52s39.333 -47.667 52 -77s19 -60.666 19 -93.999z" />
    <glyph glyph-name="u101B" unicode="&#x101b;" horiz-adv-x="634" 
d="M480 -464l0.00195312 622.001c0 36.667 -6 68.5 -18 95.5s-27 49.167 -45 66.5s-37.833 30.166 -59.5 38.499s-42.167 12.5 -61.5 12.5c-18 0 -34.833 -2.83301 -50.5 -8.5s-29.5 -13.334 -41.5 -23.001s-22.167 -21 -30.5 -34s-14.166 -26.833 -17.499 -41.5
c24.667 0 50.167 -3.66699 76.5 -11s50.166 -18 71.499 -32c36 -23.333 64 -52.166 84 -86.499s34.333 -73.5 43 -117.5c-16 -12 -36 -21.333 -60 -28s-49 -9.66699 -75 -9c-32.667 0 -63.667 6.33301 -93 19s-55 30 -77 52s-39.333 47.667 -52 77s-19 60.666 -19 93.999
c0 30 6 59.333 18 88s28.667 54.334 50 77.001s46.666 41 75.999 55s61.666 21 96.999 21c34.667 0 68.667 -6.16699 102 -18.5s63 -31 89 -56s46.833 -56 62.5 -93s23.5 -80.167 23.5 -129.5v-537h72v-93h-165zM330.002 76.001c-8 17.333 -17.835 33 -29.502 47
s-26.167 25.667 -43.5 35c-13.333 7.33301 -29.5 13.5 -48.5 18.5s-37.5 7.5 -55.5 7.5c4 -16 10.333 -30.833 19 -44.5s19.334 -25.5 32.001 -35.5s26.834 -17.833 42.501 -23.5s32.167 -8.5 49.5 -8.5c14.667 0 26 1.33301 34 4z" />
    <glyph glyph-name="u101C" unicode="&#x101c;" horiz-adv-x="977" 
d="M922 222c0 -33.333 -5.8291 -64.666 -17.4961 -93.999s-27.834 -55 -48.501 -77s-45 -39.333 -73 -52s-58.333 -19 -91 -19c-42 0 -77.333 7 -106 21s-52.5 32.333 -71.5 55s-34.333 48.5 -46 77.5s-21.5 58.5 -29.5 88.5c-7.33301 28 -16.333 51.5 -27 70.5
s-22.334 34.333 -35.001 46s-26.334 20 -41.001 25s-29.334 7.5 -44.001 7.5c-20 0 -38.833 -3.83301 -56.5 -11.5s-33 -18.334 -46 -32.001s-23.167 -29.5 -30.5 -47.5s-11 -37 -11 -57c0 -20.667 3.66699 -40.167 11 -58.5s17.5 -34.333 30.5 -48s28.333 -24.5 46 -32.5
s36.5 -12 56.5 -12c9.33301 0 17.5 1.16699 24.5 3.5s13.5 4.83301 19.5 7.5l44 -81c-7.33301 -5.33301 -19.166 -10.333 -35.499 -15s-33.833 -7 -52.5 -7c-35.333 0 -67.5 6.33301 -96.5 19s-53.833 30 -74.5 52s-36.834 47.667 -48.501 77s-17.5 60.666 -17.5 93.999
c0 32.667 5.83301 63.667 17.5 93s27.834 55 48.501 77s45.5 39.5 74.5 52.5s61.167 19.5 96.5 19.5c34.667 0 65.5 -6.5 92.5 -19.5s50.5 -30.5 70.5 -52.5s36.833 -47.667 50.5 -77s24.167 -60.333 31.5 -93c11.333 -51.333 30.5 -89.166 57.5 -113.499
s59.5 -36.5 97.5 -36.5c20 0 38.5 4.16699 55.5 12.5s31.5 19.5 43.5 33.5s21.333 30 28 48s10 36.667 10 56c0 20 -3.5 39 -10.5 57s-16.5 33.833 -28.5 47.5s-26.333 24.5 -43 32.5s-35 12 -55 12c-8 0 -16.833 -1 -26.5 -3s-17.834 -4.33301 -24.501 -7l-44 81
c14.667 8.66699 30 14.5 46 17.5s32.333 4.5 49 4.5c30 0 59 -6 87 -18s52.5 -28.667 73.5 -50s37.833 -46.833 50.5 -76.5s19 -62.167 19 -97.5z" />
    <glyph glyph-name="u101D" unicode="&#x101d;" horiz-adv-x="585" 
d="M530 222c0 -33.333 -6.16699 -64.666 -18.5 -93.999s-29.166 -55 -50.499 -77s-46.333 -39.333 -75 -52s-59.334 -19 -92.001 -19c-30.667 0 -60.334 6.33301 -89.001 19s-54.167 30 -76.5 52s-40.166 47.667 -53.499 77s-20 60.666 -20 93.999
c0 32.667 6.16699 63.667 18.5 93s29.166 55 50.499 77s46.333 39.5 75 52.5s59.334 19.5 92.001 19.5c33.333 0 64.5 -6.5 93.5 -19.5s54.333 -30.5 76 -52.5s38.667 -47.667 51 -77s18.5 -60.333 18.5 -93zM437 222c0 20 -3.83301 39.167 -11.5 57.5
s-18 34.166 -31 47.499s-28.167 24 -45.5 32s-35.666 12 -54.999 12c-20.667 0 -39.834 -4 -57.501 -12s-33 -18.667 -46 -32s-23.333 -29.166 -31 -47.499s-11.5 -37.5 -11.5 -57.5c0 -20.667 3.83301 -40 11.5 -58s18 -33.833 31 -47.5s28.167 -24.5 45.5 -32.5
s35.666 -12 54.999 -12c20.667 0 39.834 4 57.501 12s33 18.833 46 32.5s23.333 29.5 31 47.5s11.5 37.333 11.5 58z" />
    <glyph glyph-name="u101E" unicode="&#x101e;" horiz-adv-x="966" 
d="M912 222c0 -33.333 -6.33301 -64.667 -19 -94s-30 -55 -52 -77s-47.667 -39.333 -77 -52s-60.333 -19 -93 -19c-42.667 0 -80.5 10.667 -113.5 32s-59.833 47.666 -80.5 78.999c-20.667 -34 -48.334 -61 -83.001 -81s-73 -30 -115 -30c-46.667 0 -90 11.333 -130 34
s-71.333 55.334 -94 98.001l83 44c19.333 -31.333 40.666 -53.166 63.999 -65.499s49 -18.5 77 -18.5c21.333 0 41 4 59 12s33.667 19 47 33s23.666 30.167 30.999 48.5s11 37.833 11 58.5c0 20 -4 38.833 -12 56.5s-18.833 33.334 -32.5 47.001s-29.5 24.334 -47.5 32.001
s-36.667 11.5 -56 11.5c-28 0 -54.667 -6.83301 -80 -20.5s-45.666 -34.5 -60.999 -62.5l-83 43c21.333 42 51.5 74.667 90.5 98s83.5 35 133.5 35c32 0 62.333 -6.33301 91 -19s54 -29.667 76 -51s39.5 -46.333 52.5 -75s19.5 -59.334 19.5 -92.001
c2 -16.667 7.33301 -34 16 -52s19.834 -34.667 33.501 -50s29.334 -28 47.001 -38s36.5 -15 56.5 -15s39 4 57 12s33.833 18.833 47.5 32.5s24.334 29.5 32.001 47.5s11.5 37.333 11.5 58c0 20 -3.83301 39.167 -11.5 57.5s-18.334 34.166 -32.001 47.499s-29.5 24 -47.5 32
s-37 12 -57 12c-6 0 -11.833 -0.333008 -17.5 -1s-11.5 -2.33398 -17.5 -5.00098l-35 85c18.667 9.33301 42 14 70 14c32.667 0 63.667 -6.5 93 -19.5s55 -30.5 77 -52.5s39.333 -47.667 52 -77s19 -60.333 19 -93z" />
    <glyph glyph-name="u101F" unicode="&#x101f;" horiz-adv-x="984" 
d="M930 222c0 -33.333 -6.33398 -64.6631 -19.001 -93.9961s-30 -55 -52 -77s-47.667 -39.333 -77 -52s-60.333 -19 -93 -19c-12.667 0 -25.334 0.833008 -38.001 2.5s-23.334 5.16699 -32.001 10.5l36 85c10 -4 21.333 -6 34 -6c20 0 39 4 57 12s33.833 18.833 47.5 32.5
s24.334 29.5 32.001 47.5s11.5 37.333 11.5 58c0 20 -3.83301 39 -11.5 57s-18.334 33.833 -32.001 47.5s-29.5 24.5 -47.5 32.5s-37 12 -57 12s-38.667 -5 -56 -15s-32.666 -22.333 -45.999 -37s-24.166 -30.667 -32.499 -48s-13.5 -33.333 -15.5 -48
c-0.666992 -31.333 -7.16699 -61.5 -19.5 -90.5s-29.333 -54.833 -51 -77.5s-47 -40.834 -76 -54.501s-60.833 -20.5 -95.5 -20.5c-33.333 0 -64.666 6.66699 -93.999 20s-55 31.666 -77 54.999s-39.333 50.666 -52 81.999s-19 65 -19 101c0 50 7.16699 92.667 21.5 128
s38.166 67.666 71.499 96.999l57 -72c-10 -10.667 -18.667 -21.167 -26 -31.5s-13.166 -21.333 -17.499 -33s-7.66602 -24.667 -9.99902 -39s-3.5 -30.833 -3.5 -49.5c0 -22 4 -43 12 -63s18.667 -37.667 32 -53s29.166 -27.5 47.499 -36.5s37.5 -13.5 57.5 -13.5
s39.167 4.5 57.5 13.5s34.166 21.167 47.499 36.5s24 33 32 53s12 41 12 63c0 18.667 -1.16699 35.167 -3.5 49.5s-5.83301 27.333 -10.5 39s-10.5 22.5 -17.5 32.5s-15.5 20.667 -25.5 32l58 72c15.333 -13.333 28.5 -27 39.5 -41s19.833 -30.333 26.5 -49
c21.333 26 46.833 47.667 76.5 65s62.834 26 99.501 26c32.667 0 63.667 -6.5 93 -19.5s55 -30.5 77 -52.5s39.333 -47.667 52 -77s19 -60.333 19 -93z" />
    <glyph glyph-name="u1020" unicode="&#x1020;" horiz-adv-x="602" 
d="M519 -106c-29.333 -24 -63.165 -42.3271 -101.498 -54.9941s-78.833 -19 -121.5 -19c-20.667 0 -40.667 1.66699 -60 5s-38.333 8 -57 14v-121c0 -20 2 -36 6 -48s10 -21.667 18 -29c9.33301 -7.33301 18.166 -12.833 26.499 -16.5s21.5 -5.5 39.5 -5.5h118
c18.667 0 33.834 3 45.501 9s17.5 16.333 17.5 31c0 25.333 -16 38 -48 38c-9.33301 0 -17.666 -1.83301 -24.999 -5.5s-14.666 -8.16699 -21.999 -13.5l-44 70c9.33301 7.33301 21.166 14.166 35.499 20.499s32.833 9.5 55.5 9.5c40 0 71.5 -11.167 94.5 -33.5
s34.5 -50.833 34.5 -85.5c0 -16 -2.5 -31.333 -7.5 -46s-12.667 -27.834 -23 -39.501s-23.5 -20.834 -39.5 -27.501s-35 -10 -57 -10h-174c-29.333 0 -51.833 5 -67.5 15s-28.834 21 -39.501 33c-24.667 27.333 -37 72.666 -37 135.999v265
c30 -22.667 62.333 -41.334 97 -56.001s72.334 -22 113.001 -22c25.333 0 48.666 2.5 69.999 7.5s41.333 12.167 60 21.5v81c-20.667 -12.667 -42.167 -22 -64.5 -28s-44.166 -9 -65.499 -9c-33.333 0 -64.5 6.33301 -93.5 19s-54.5 30 -76.5 52s-39.333 47.667 -52 77
s-19 60.666 -19 93.999c0 32.667 6.33301 63.667 19 93s30 55 52 77s47.5 39.5 76.5 52.5s60.167 19.5 93.5 19.5c20 0 40.667 -2.5 62 -7.5s42 -12.833 62 -23.5s38.667 -24.5 56 -41.5s31.666 -37.167 42.999 -60.5l-82 -43c-18.667 30 -39.834 51.333 -63.501 64
s-49.5 19 -77.5 19c-20 0 -39 -4 -57 -12s-33.667 -18.833 -47 -32.5s-24 -29.5 -32 -47.5s-12 -37 -12 -57c0 -20.667 4 -40 12 -58s18.667 -33.833 32 -47.5s29 -24.5 47 -32.5s37 -12 57 -12c28 0 54.167 6.5 78.5 19.5s45.166 34.5 62.499 64.5l82 -44v-218v0z" />
    <glyph glyph-name="u1021" unicode="&#x1021;" horiz-adv-x="932" 
d="M877 222c0 -34 -6.50195 -65.8301 -19.502 -95.4971s-30.5 -55.334 -52.5 -77.001s-47.667 -38.667 -77 -51s-60.333 -18.5 -93 -18.5c-18 0 -35.333 1.66699 -52 5s-32.334 9.66602 -47.001 18.999c0.666992 43.333 9 84.5 25 123.5s40 72.5 72 100.5
c16 14 35.5 26 58.5 36s45.833 17 68.5 21c-7.33301 24 -22.5 44.333 -45.5 61s-48.833 25 -77.5 25c-26 0 -52.5 -5.5 -79.5 -16.5s-49.5 -27.167 -67.5 -48.5c-2.66699 -19.333 -8.16699 -36.166 -16.5 -50.499s-20.166 -25.833 -35.499 -34.5
c16.667 -10.667 29.5 -24 38.5 -40s13.5 -33 13.5 -51c0 -41.333 -17.333 -76.666 -52 -105.999c-33.333 -29.333 -88.333 -44 -165 -44c-74 0 -128.833 13 -164.5 39s-53.5 59.333 -53.5 100l89 33c3.33301 -26.667 16.5 -46.5 39.5 -59.5s52.833 -19.833 89.5 -20.5
c17.333 0 33.666 1.16699 48.999 3.5s28.666 5.83301 39.999 10.5s20.333 10.667 27 18s10 16.333 10 27c0 8 -3.33301 15.167 -10 21.5s-15.667 11.833 -27 16.5s-24.666 8.16699 -39.999 10.5s-31.666 3.5 -48.999 3.5v77c16.667 0.666992 32.667 2.16699 48 4.5
s28.666 5.66602 39.999 9.99902s20.5 9.66602 27.5 15.999s10.5 14.166 10.5 23.499c0 10 -3.33301 18.5 -10 25.5s-15.667 12.833 -27 17.5s-24.666 8.16699 -39.999 10.5s-31.666 3.5 -48.999 3.5c-38.667 0 -69 -6.83301 -91 -20.5s-34.667 -33.167 -38 -58.5l-89 32
c0 40.667 18.5 74.167 55.5 100.5s91.167 39.5 162.5 39.5c45.333 0 82.666 -5.66699 111.999 -17s52.333 -26.333 69 -45c22.667 18.667 48.834 33.667 78.501 45s64.5 17 104.5 17c32.667 0 63.667 -6.5 93 -19.5s54.833 -30.5 76.5 -52.5s38.834 -47.667 51.501 -77
s19 -60.333 19 -93zM782.998 212.003c-16 0 -32.3311 -3.5 -48.998 -10.5s-31.334 -15.167 -44.001 -24.5c-16.667 -11.333 -29.834 -26 -39.501 -44s-17.5 -37.667 -23.5 -59c39.333 -2.66699 75 9.33301 107 36c28.667 23.333 45 57.333 49 102z" />
    <glyph glyph-name="u1022" unicode="&#x1022;" horiz-adv-x="979" 
d="M925 222c0 -33.333 -6.33398 -64.6631 -19.001 -93.9961s-30 -55 -52 -77s-47.667 -39.333 -77 -52s-60.333 -19 -93 -19c-11.333 0 -23 0.833008 -35 2.5s-23.667 5.16699 -35 10.5l36 85c10.667 -4 22 -6 34 -6c20 0 39 4 57 12s33.833 18.833 47.5 32.5
s24.334 29.5 32.001 47.5s11.5 37.333 11.5 58c0 20 -3.83301 39.167 -11.5 57.5s-18.334 34.166 -32.001 47.499s-29.5 24 -47.5 32s-37 12 -57 12s-39.167 -5.33301 -57.5 -16s-34.5 -24.167 -48.5 -40.5s-25.167 -34.333 -33.5 -54s-12.5 -38.5 -12.5 -56.5
c0 -54.667 -8.16699 -100 -24.5 -136s-39.166 -65 -68.499 -87l-54 76c17.333 15.333 30.5 35.166 39.5 59.499s13.5 52.166 13.5 83.499c0 30 -4.66699 55.667 -14 77s-21.166 39 -35.499 53s-30.333 24.333 -48 31s-34.5 10 -50.5 10c-23.333 0 -43.833 -3.5 -61.5 -10.5
s-32.5 -15.333 -44.5 -25s-21 -19.834 -27 -30.501s-9 -20 -9 -28c0 -12.667 3.16699 -23.167 9.5 -31.5s14.333 -16 24 -23s20.167 -13.667 31.5 -20s21.833 -14 31.5 -23s17.667 -19.833 24 -32.5s9.5 -28.334 9.5 -47.001c0 -20 -3.5 -37.5 -10.5 -52.5
s-16.167 -27.333 -27.5 -37s-24.5 -17 -39.5 -22s-30.833 -7.5 -47.5 -7.5c-9.33301 0 -19 1.5 -29 4.5s-19.667 7 -29 12s-17.666 11 -24.999 18s-12.333 14.5 -15 22.5l70 43c6 -11.333 16.333 -17 31 -17c10 0 18.5 3 25.5 9s10.5 15 10.5 27
c0 9.33301 -3.33301 16.833 -10 22.5s-15.167 11.167 -25.5 16.5l-33 17c-11.667 6 -22.667 14 -33 24s-18.833 22.667 -25.5 38s-10 35 -10 59c0 20.667 5.5 42.167 16.5 64.5s26.667 42.5 47 60.5s45 32.833 74 44.5s61.5 17.5 97.5 17.5
c41.333 0 79.666 -10.167 114.999 -30.5s63.666 -48.166 84.999 -83.499c20 32 46.5 59 79.5 81s71.167 33 114.5 33c32.667 0 63.667 -6.5 93 -19.5s55 -30.5 77 -52.5s39.333 -47.667 52 -77s19 -60.333 19 -93z" />
    <glyph glyph-name="u1023" unicode="&#x1023;" horiz-adv-x="985" 
d="M930 205c0 -50 -7.1709 -93.1689 -21.5039 -129.502s-38.166 -68.166 -71.499 -95.499l-54 76c9.33301 10.667 17.5 20.834 24.5 30.501s12.667 20.167 17 31.5s7.5 23.833 9.5 37.5s3 30.167 3 49.5c0 22 -3.66699 42.833 -11 62.5s-17.5 37.167 -30.5 52.5
s-28.667 27.5 -47 36.5s-38.833 13.5 -61.5 13.5c-22 0 -42 -4.33301 -60 -13s-33.5 -20.5 -46.5 -35.5s-23.167 -32.5 -30.5 -52.5s-11 -41.333 -11 -64v-114h-93v114c0 22.667 -3.66699 44 -11 64s-17.666 37.5 -30.999 52.5s-29 26.833 -47 35.5s-38 13 -60 13
c-22.667 0 -43.167 -4.5 -61.5 -13.5s-34 -21.167 -47 -36.5s-23 -32.833 -30 -52.5s-10.5 -40.5 -10.5 -62.5c0 -18.667 1 -35 3 -49s5.16699 -26.5 9.5 -37.5s9.83301 -21.5 16.5 -31.5s14.667 -20.333 24 -31l-53 -76c-34 28.667 -58 60.667 -72 96s-21 78.333 -21 129
c0 36 6.16699 69.667 18.5 101s29.333 58.666 51 81.999s47.334 41.666 77.001 54.999s61.5 20 95.5 20c41.333 0 78.833 -9.66699 112.5 -29s61.5 -45.333 83.5 -78c21.333 32.667 48.833 58.667 82.5 78s70.834 29 111.501 29c34 0 65.833 -6.66699 95.5 -20
s55.5 -31.666 77.5 -54.999s39.167 -50.666 51.5 -81.999s18.5 -65 18.5 -101zM716.996 -464.002l-0.00878906 58.999c12.667 14 22.834 28.833 30.501 44.5s11.5 38.5 11.5 68.5c0 17.333 -2.83301 33.833 -8.5 49.5s-13.5 29.334 -23.5 41.001s-22.167 21 -36.5 28
s-30.166 10.5 -47.499 10.5s-33 -3.33301 -47 -10s-26 -15.834 -36 -27.501s-17.833 -25.334 -23.5 -41.001s-8.5 -32.5 -8.5 -50.5v-87h-70v87c0 18 -3 34.833 -9 50.5s-14.167 29.334 -24.5 41.001s-22.666 20.834 -36.999 27.501s-29.5 10 -45.5 10
c-17.333 0 -33.166 -3.5 -47.499 -10.5s-26.5 -16.333 -36.5 -28s-17.833 -25.334 -23.5 -41.001s-8.5 -32.167 -8.5 -49.5c0 -28.667 3.33301 -51 10 -67s17.667 -31.667 33 -47l-41 -60c-26 21.333 -44.5 45.833 -55.5 73.5s-16.5 61.167 -16.5 100.5
c0 27.333 4.83301 53.166 14.5 77.499s22.834 45.5 39.501 63.5s36.334 32.167 59.001 42.5s47 15.5 73 15.5c32 0 60.833 -7.5 86.5 -22.5s47.167 -35.167 64.5 -60.5c16 25.333 37 45.5 63 60.5s55 22.5 87 22.5c26 0 50.333 -5.16699 73 -15.5s42.334 -24.5 59.001 -42.5
s29.834 -39.167 39.501 -63.5s14.5 -50.166 14.5 -77.499c0 -24 -2.16699 -44.667 -6.5 -62s-10.166 -33.666 -17.499 -48.999h74v-61h-162z" />
    <glyph glyph-name="u1024" unicode="&#x1024;" horiz-adv-x="1202" 
d="M930 -280c0 -27.333 -5.50293 -51.4941 -16.5029 -72.4941s-23.167 -38.5 -36.5 -52.5c-5.33301 -5.33301 -12 -11.5 -20 -18.5s-17.333 -13.5 -28 -19.5s-23 -11 -37 -15s-29.667 -6 -47 -6h-565c-22 0 -41 4.16699 -57 12.5s-29 19 -39 32s-17.333 26.833 -22 41.5
s-7 28.667 -7 42c0 30 6.83301 55.833 20.5 77.5s33.167 39.167 58.5 52.5s56 23.166 92 29.499s76 9.5 120 9.5c30 0 60.333 -1.83301 91 -5.5s59.834 -8.66699 87.501 -15s53 -14 76 -23s41.5 -18.833 55.5 -29.5l-56 -72c-28.667 14 -64.5 25.833 -107.5 35.5
s-91.833 14.5 -146.5 14.5c-29.333 0 -56 -1.16699 -80 -3.5s-44.667 -6.33301 -62 -12s-30.833 -13.167 -40.5 -22.5s-14.5 -21.333 -14.5 -36c0 -6.66699 2.66699 -14.167 8 -22.5s16.666 -12.5 33.999 -12.5h527c12 0 22.333 0.333008 31 1s16.167 2 22.5 4
s12.333 4.66699 18 8s11.834 8 18.501 14c10 9.33301 17.5 20.666 22.5 33.999s7.5 26.666 7.5 39.999v492c0 14.667 -3.16699 30.834 -9.5 48.501s-15.666 33.834 -27.999 48.501s-27.666 27 -45.999 37s-39.833 15 -64.5 15c-20 0 -39.167 -5.16699 -57.5 -15.5
s-34.333 -23.833 -48 -40.5s-24.667 -35 -33 -55s-12.5 -39.333 -12.5 -58c0 -50 -7 -92.5 -21 -127.5s-37.667 -66.5 -71 -94.5l-54 76c9.33301 10.667 17.333 21 24 31s12.167 20.5 16.5 31.5s7.5 23.5 9.5 37.5s3 30.333 3 49c0 22 -3.5 42.833 -10.5 62.5
s-17 37.167 -30 52.5s-28.667 27.5 -47 36.5s-38.833 13.5 -61.5 13.5s-43 -4.5 -61 -13.5s-33.5 -21.167 -46.5 -36.5s-23 -32.833 -30 -52.5s-10.5 -40.5 -10.5 -62.5c0 -18.667 1 -34.834 3 -48.501s5 -26.334 9 -38.001s9.33301 -22.334 16 -32.001
s14.667 -19.834 24 -30.501l-53 -76c-34 28.667 -58 60.667 -72 96s-21 78.333 -21 129c0 36 6.16699 69.667 18.5 101s29.333 58.666 51 81.999s47.334 41.666 77.001 54.999s61.5 20 95.5 20c43.333 0 82.166 -10.167 116.499 -30.5s61.833 -48.166 82.5 -83.499
c20 32.667 46.667 60 80 82s71.333 33 114 33c32.667 0 63.5 -6.5 92.5 -19.5s54.5 -30.5 76.5 -52.5s39.333 -47.667 52 -77s19 -60.333 19 -93v-502zM1050 -463.994l0.00292969 845.002c0 30.667 -6.16699 56.667 -18.5 78s-27.833 40 -46.5 56
s-38.834 30.833 -60.501 44.5s-41.834 28.5 -60.501 44.5s-34.167 34.333 -46.5 55s-18.5 46 -18.5 76c0 26 4.83301 50.167 14.5 72.5s23 41.666 40 57.999s36.833 29.166 59.5 38.499s46.667 14 72 14c20.667 0 40 -2.83301 58 -8.5s33.833 -13.167 47.5 -22.5
s25.167 -20.166 34.5 -32.499s16 -25.166 20 -38.499l-78 -48c-6.66699 17.333 -17.334 31.166 -32.001 41.499s-31.334 15.5 -50.001 15.5c-15.333 0 -28.666 -2.5 -39.999 -7.5s-21 -11.667 -29 -20s-14 -17.833 -18 -28.5s-6 -22 -6 -34
c0 -18.667 6.16699 -34.834 18.5 -48.501s27.833 -27.167 46.5 -40.5l60 -41.5c21.333 -14.333 41.333 -31.5 60 -51.5s34.167 -43.5 46.5 -70.5s18.5 -59.5 18.5 -97.5v-849h-92z" />
    <glyph glyph-name="u1025" unicode="&#x1025;" horiz-adv-x="574" 
d="M510 -346c0 -15.333 -1.49902 -31.1689 -4.49902 -47.502s-9.16699 -30.166 -18.5 -41.499c-10 -10.667 -22.333 -18.167 -37 -22.5s-34.667 -6.5 -60 -6.5h-150c-18 0 -34.167 2.16699 -48.5 6.5s-27 9.5 -38 15.5s-20.167 12.167 -27.5 18.5s-13.333 11.833 -18 16.5
c-6 6 -12 13.167 -18 21.5s-11.667 18 -17 29s-9.66602 23 -12.999 36s-5 26.5 -5 40.5v392l83 44c16 -30 36.5 -51.5 61.5 -64.5s51.5 -19.5 79.5 -19.5c20.667 0 40 4 58 12s33.667 18.833 47 32.5s23.833 29.5 31.5 47.5s11.5 37.333 11.5 58c0 20 -3.83301 39 -11.5 57
s-18.167 33.833 -31.5 47.5s-29 24.5 -47 32.5s-37.333 12 -58 12c-28 0 -54.5 -6.83301 -79.5 -20.5s-45.5 -34.5 -61.5 -62.5l-83 43c12 23.333 26.667 43.5 44 60.5s36 30.833 56 41.5s40.667 18.5 62 23.5s42 7.5 62 7.5c32.667 0 63.667 -6.5 93 -19.5
s55 -30.5 77 -52.5s39.333 -47.667 52 -77s19 -60.333 19 -93c0 -33.333 -6.33301 -64.666 -19 -93.999s-30 -55 -52 -77s-47.667 -39.333 -77 -52s-60.333 -19 -93 -19c-22 0 -44.167 3.16699 -66.5 9.5s-43.5 16.166 -63.5 29.499v-289
c0 -13.333 2.16699 -26.666 6.5 -39.999s11.166 -24 20.499 -32c10.667 -9.33301 22.167 -16.5 34.5 -21.5s26.166 -7.5 41.499 -7.5h125c17.333 0 28.333 3 33 9s7 16.667 7 32v48h93v-64z" />
    <glyph glyph-name="u1026" unicode="&#x1026;" horiz-adv-x="574" 
d="M460 730c0 -26 -4.66602 -50.333 -13.999 -73s-22.333 -42.5 -39 -59.5s-36 -30.333 -58 -40s-45.333 -14.5 -70 -14.5c-25.333 0 -49.166 4.83301 -71.499 14.5s-41.833 23 -58.5 40s-29.834 36.833 -39.501 59.5s-14.5 47 -14.5 73c0 25.333 4.83301 49.333 14.5 72
s22.834 42.5 39.501 59.5s36 30.5 58 40.5s45.333 15 70 15c25.333 0 49.166 -5 71.499 -15s41.666 -23.5 57.999 -40.5s29.333 -36.833 39 -59.5s14.5 -46.667 14.5 -72zM390.001 735c-1.33301 14.667 -5.00195 28.666 -11.002 41.999s-13.833 25.166 -23.5 35.499
s-21.167 18.5 -34.5 24.5s-27.333 9 -42 9c-15.333 0 -29.666 -3 -42.999 -9s-25.166 -14.167 -35.499 -24.5s-18.5 -22.166 -24.5 -35.499s-9.33301 -27.333 -10 -42c0 -6.66699 1 -13 3 -19c18.667 14.667 37.334 24.5 56.001 29.5s36.667 7.5 54 7.5
c16 0 33.667 -2.66699 53 -8s37.666 -14.666 54.999 -27.999c2 4.66699 3 10.667 3 18zM366.999 659.999c-13.333 12 -27.999 20.833 -43.999 26.5s-30.667 8.5 -44 8.5s-27.833 -2.83301 -43.5 -8.5s-31.167 -14.834 -46.5 -27.501
c10.667 -13.333 23.667 -24.166 39 -32.499s31.666 -12.5 48.999 -12.5c18.667 0 35.667 4 51 12s28.333 19.333 39 34zM510 -346.001c0 -15.333 -1.49902 -31.1689 -4.49902 -47.502s-9.16699 -30.166 -18.5 -41.499c-10 -10.667 -22.333 -18.167 -37 -22.5
s-34.667 -6.5 -60 -6.5h-150c-18 0 -34.167 2.16699 -48.5 6.5s-27 9.5 -38 15.5s-20.167 12.167 -27.5 18.5s-13.333 11.833 -18 16.5c-6 6 -12 13.167 -18 21.5s-11.667 18 -17 29s-9.66602 23 -12.999 36s-5 26.5 -5 40.5v392l83 44c16 -30 36.5 -51.5 61.5 -64.5
s51.5 -19.5 79.5 -19.5c20.667 0 40 4 58 12s33.667 18.833 47 32.5s23.833 29.5 31.5 47.5s11.5 37.333 11.5 58c0 20 -3.83301 39 -11.5 57s-18.167 33.833 -31.5 47.5s-29 24.5 -47 32.5s-37.333 12 -58 12c-28 0 -54.5 -6.83301 -79.5 -20.5s-45.5 -34.5 -61.5 -62.5
l-83 43c12 23.333 26.667 43.5 44 60.5s36 30.833 56 41.5s40.667 18.5 62 23.5s42 7.5 62 7.5c32.667 0 63.667 -6.5 93 -19.5s55 -30.5 77 -52.5s39.333 -47.667 52 -77s19 -60.333 19 -93c0 -33.333 -6.33301 -64.666 -19 -93.999s-30 -55 -52 -77
s-47.667 -39.333 -77 -52s-60.333 -19 -93 -19c-22 0 -44.167 3.16699 -66.5 9.5s-43.5 16.166 -63.5 29.499v-289c0 -13.333 2.16699 -26.666 6.5 -39.999s11.166 -24 20.499 -32c10.667 -9.33301 22.167 -16.5 34.5 -21.5s26.166 -7.5 41.499 -7.5h125
c17.333 0 28.333 3 33 9s7 16.667 7 32v48h93v-64z" />
    <glyph glyph-name="u1027" unicode="&#x1027;" horiz-adv-x="597" 
d="M542 145c-4 -16.667 -11.834 -34.6699 -23.501 -54.0029s-27.334 -37.166 -47.001 -53.499s-43.334 -30 -71.001 -41s-59.167 -16.5 -94.5 -16.5c-40.667 0 -76.667 7.16699 -108 21.5s-57.5 33 -78.5 56s-37 48.833 -48 77.5s-16.5 57.667 -16.5 87
c0 28.667 5.5 57.5 16.5 86.5s27 55 48 78s47.167 41.667 78.5 56s67.333 21.5 108 21.5c33.333 0 63.5 -5.16699 90.5 -15.5s50.5 -23.5 70.5 -39.5s36.333 -33.833 49 -53.5s21 -38.834 25 -57.501c-28.667 -22 -58.667 -37.5 -90 -46.5s-60.666 -13.5 -87.999 -13.5
c-41.333 0 -76.5 7.83301 -105.5 23.5s-53.833 35.167 -74.5 58.5c-12 -13.333 -20.833 -29.166 -26.5 -47.499s-8.5 -35.166 -8.5 -50.499c0 -16 2.83301 -33.167 8.5 -51.5s14.5 -34.166 26.5 -47.499c20.667 23.333 45.834 43 75.501 59s64.834 24 105.501 24
c29.333 0 59.5 -4.83301 90.5 -14.5s60.167 -25.167 87.5 -46.5zM428.999 319.997c-16 19.333 -35.999 33.499 -59.999 42.499s-45 13.5 -63 13.5c-21.333 0 -42 -4 -62 -12c18 -19.333 35.667 -33.666 53 -42.999s39.666 -14 66.999 -14c12 0 23.5 0.833008 34.5 2.5
s21.167 5.16699 30.5 10.5zM430 122.996c-13.333 5.33301 -24.999 9 -34.999 11s-20.333 3 -31 3c-29.333 0 -53 -5.33301 -71 -16s-34 -25.334 -48 -44.001c20 -6 40.333 -9 61 -9c9.33301 0 19.666 1 30.999 3s22.5 5.33301 33.5 10s21.667 10.334 32 17.001
s19.5 15 27.5 25z" />
    <glyph glyph-name="u1028" unicode="&#x1028;" horiz-adv-x="585" 
d="M530 -223c0 -32 -5.66895 -62.499 -17.002 -91.499s-27.333 -54.5 -48 -76.5s-45.5 -39.667 -74.5 -53s-61.167 -20 -96.5 -20c-38.667 0 -72.834 7 -102.501 21s-54.667 32.5 -75 55.5s-35.666 48.667 -45.999 77s-15.5 57.166 -15.5 86.499v447
c0 29.333 5.16699 58.333 15.5 87s25.666 54.5 45.999 77.5s45.333 41.5 75 55.5s63.834 21 102.501 21c37.333 0 70.666 -7.16699 99.999 -21.5s54 -33 74 -56s35.333 -49 46 -78s16 -58.167 16 -87.5c0 -31.333 -3.66699 -61.333 -11 -90s-18.666 -54.334 -33.999 -77.001
s-35.166 -40.667 -59.499 -54s-53.5 -20 -87.5 -20c-15.333 0 -30 2.16699 -44 6.5s-26.333 10.666 -37 18.999s-19.167 18.666 -25.5 30.999s-9.5 26.5 -9.5 42.5c0 20 5.66699 35.5 17 46.5s23.833 19.833 37.5 26.5s26.167 12.334 37.5 17.001s17 10.667 17 18
c0 9.33301 -3.33301 17.5 -10 24.5s-15.667 10.5 -27 10.5c-9.33301 0 -18 -3.33301 -26 -10s-12.667 -13.334 -14 -20.001l-57 34c6 17.333 18 32.5 36 45.5s38.333 19.5 61 19.5c14.667 0 28.667 -2.66699 42 -8s24.666 -12.666 33.999 -21.999s16.833 -20.333 22.5 -33
s8.5 -26.334 8.5 -41.001c0 -19.333 -5.33301 -34.333 -16 -45s-22.5 -19.334 -35.5 -26.001s-24.833 -12 -35.5 -16s-16 -8.66699 -16 -14c0 -11.333 4.66699 -18.5 14 -21.5s18 -4.5 26 -4.5c14.667 0 28.834 2.66699 42.501 8s25.667 14.333 36 27s18.5 29.167 24.5 49.5
s9 45.5 9 75.5c0 26 -5.16699 48.5 -15.5 67.5s-23.333 34.667 -39 47s-32.5 21.5 -50.5 27.5s-35 9 -51 9c-20.667 0 -39.834 -3.66699 -57.501 -11s-33 -17.666 -46 -30.999s-23.333 -29 -31 -47s-11.5 -38 -11.5 -60v-444c0 -21.333 3.83301 -41.166 11.5 -59.499
s18 -34.166 31 -47.499s28.333 -23.666 46 -30.999s36.834 -11 57.501 -11c20 0 38.833 3.83301 56.5 11.5s32.834 18.167 45.501 31.5s22.667 29 30 47s11 37.333 11 58h93v0z" />
    <glyph glyph-name="u1029" unicode="&#x1029;" horiz-adv-x="1195" 
d="M1122 222c0 -33.333 -6.32715 -64.6709 -18.9941 -94.0039s-29.834 -55 -51.501 -77s-47 -39.333 -76 -52s-59.833 -19 -92.5 -19c-42 0 -79.333 10.833 -112 32.5s-59.334 47.834 -80.001 78.501c-21.333 -34 -49.666 -61 -84.999 -81s-74 -30 -116 -30
c-20 0 -40.667 2.5 -62 7.5s-42 12.833 -62 23.5s-38.667 24.334 -56 41.001s-31.666 36.667 -42.999 60l82 44c18.667 -31.333 40.334 -53.166 65.001 -65.499s50 -18.5 76 -18.5c21.333 0 41.166 4 59.499 12s34.166 19 47.499 33s23.666 30.167 30.999 48.5
s11 37.833 11 58.5c0 20 -4 38.833 -12 56.5s-18.833 33.334 -32.5 47.001s-29.5 24.334 -47.5 32.001s-37 11.5 -57 11.5c-26 0 -52.167 -6.83301 -78.5 -20.5s-47.166 -34.5 -62.499 -62.5l-82 43c11.333 23.333 25.666 43.5 42.999 60.5s36 30.833 56 41.5
s40.667 18.5 62 23.5s42 7.5 62 7.5c31.333 0 61.5 -6.16699 90.5 -18.5s54.667 -29.333 77 -51s40.166 -46.834 53.499 -75.501s20 -59.334 20 -92.001c2 -16.667 7.16699 -34.167 15.5 -52.5s19.166 -35 32.499 -50s29 -27.5 47 -37.5s37 -15 57 -15
c20.667 0 39.834 4 57.501 12s33.167 18.833 46.5 32.5s23.833 29.5 31.5 47.5s11.5 37.333 11.5 58c0 20 -3.83301 39 -11.5 57s-18.167 33.833 -31.5 47.5s-28.833 24.5 -46.5 32.5s-36.834 12 -57.501 12c-12.667 0 -24.334 -2 -35.001 -6l-36 85
c9.33301 4.66699 20.166 8.16699 32.499 10.5s25.166 3.5 38.499 3.5c32.667 0 63.5 -6.33301 92.5 -19s54.333 -30 76 -52s38.834 -47.667 51.501 -77s19 -60.666 19 -93.999zM1139.01 -196.005c0 -16.667 -1.33594 -33.9971 -4.00293 -51.9971s-6.66699 -35.667 -12 -53
s-12.166 -33.833 -20.499 -49.5s-18.166 -29.5 -29.499 -41.5c-15.333 -16 -31.5 -28.833 -48.5 -38.5s-34.333 -17 -52 -22s-35 -8.16699 -52 -9.5s-33.5 -2 -49.5 -2h-534c-40.667 0 -76.5 5.66699 -107.5 17s-60.167 31.666 -87.5 60.999
c-21.333 22.667 -38.833 49.334 -52.5 80.001s-20.5 67.334 -20.5 110.001v899c0 34.667 6.83301 69.834 20.5 105.501s34.167 66.167 61.5 91.5c24 22 50.167 39.167 78.5 51.5s60.5 18.5 96.5 18.5h544c44 0 82.5 -5.5 115.5 -16.5s62.167 -30.5 87.5 -58.5
c20 -22 35.667 -48.333 47 -79s17.666 -59.667 18.999 -87h-93c-1.33301 18.667 -5.5 37.667 -12.5 57s-16.5 35.666 -28.5 48.999c-17.333 18 -38.833 29.667 -64.5 35s-54.5 8 -86.5 8h-501c-29.333 0 -56.666 -4.33301 -81.999 -13s-46.666 -22.334 -63.999 -41.001
c-17.333 -17.333 -29.166 -39 -35.499 -65s-9.5 -50.667 -9.5 -74v-872c0 -13.333 1.33301 -26.833 4 -40.5s6.5 -26.834 11.5 -39.501s11 -24.5 18 -35.5s14.5 -20.167 22.5 -27.5c10.667 -9.33301 22 -16.833 34 -22.5s24.333 -9.83398 37 -12.501
s25.5 -4.33398 38.5 -5.00098s25.5 -1 37.5 -1h488c34 0 64.167 3.16699 90.5 9.5s48.166 18.833 65.499 37.5c16.667 18 27.167 39.667 31.5 65s6.5 52 6.5 80v75h92v-92z" />
    <glyph glyph-name="u102A" unicode="&#x102a;" horiz-adv-x="2193" 
d="M1634 729c-2 17.333 -6.5 35.0029 -13.5 53.0029s-15.833 33.333 -26.5 46c-17.333 21.333 -39 35 -65 41s-55 9 -87 9h-502c-29.333 0 -56 -3.83301 -80 -11.5s-44.667 -20.5 -62 -38.5c-18.667 -19.333 -31.334 -42.166 -38.001 -68.499s-10 -51.5 -10 -75.5v-871
c0 -13.333 1.33301 -26.833 4 -40.5s6.5 -26.834 11.5 -39.501s11 -24.5 18 -35.5s14.5 -20.167 22.5 -27.5c10.667 -9.33301 22 -16.833 34 -22.5s24.333 -9.83398 37 -12.501s25.334 -4.33398 38.001 -5.00098s25 -1 37 -1h489c32.667 0 62.167 2.83301 88.5 8.5
s48.166 17.5 65.499 35.5s28.333 40 33 66s7 53.333 7 82v75h92v-92c0 -16.667 -1.33301 -34 -4 -52s-6.66699 -35.667 -12 -53s-12.166 -33.833 -20.499 -49.5s-18.166 -29.5 -29.499 -41.5c-15.333 -16 -31.5 -28.833 -48.5 -38.5s-34.333 -17 -52 -22
s-35 -8.16699 -52 -9.5s-33.5 -2 -49.5 -2h-535c-78.667 0 -143.334 26 -194.001 78c-21.333 22 -38.833 49.5 -52.5 82.5s-20.5 68.833 -20.5 107.5v899c0 13.333 1.33301 28.5 4 45.5s7.16699 34.167 13.5 51.5s14.833 34.666 25.5 51.999s23.667 33.333 39 48
c24 22 50.167 39.167 78.5 51.5s60.5 18.5 96.5 18.5h544c54.667 0 98.5 -8 131.5 -24s59.5 -36 79.5 -60c10.667 -14.667 19.667 -29.5 27 -44.5s13.333 -29.5 18 -43.5s8 -27 10 -39s3 -22 3 -30h-93zM2138 222.003c0 -33.333 -6.33105 -64.6699 -18.998 -94.0029
s-29.834 -55 -51.501 -77s-47 -39.333 -76 -52s-59.5 -19 -91.5 -19c-9.33301 0 -22.166 1 -38.499 3s-33.166 7.33301 -50.499 16l36 83c9.33301 -4 19 -6.66699 29 -8s17.667 -2 23 -2c20.667 0 39.834 4 57.501 12s33 18.833 46 32.5s23.333 29.5 31 47.5
s11.5 37.333 11.5 58c0 20 -3.83301 39 -11.5 57s-18 33.833 -31 47.5s-28.333 24.5 -46 32.5s-36.5 12 -56.5 12c-18.667 0 -36.834 -2.83301 -54.501 -8.5s-34.667 -13.5 -51 -23.5s-32 -21.5 -47 -34.5s-29.167 -26.833 -42.5 -41.5
c1.33301 -7.33301 2.5 -14.166 3.5 -20.499s1.5 -13.166 1.5 -20.499c0 -33.333 -6.33301 -64.666 -19 -93.999s-29.834 -55 -51.501 -77s-47 -39.333 -76 -52s-59.833 -19 -92.5 -19c-42 0 -79.333 10.833 -112 32.5s-59.334 47.834 -80.001 78.501
c-21.333 -34 -49.666 -61 -84.999 -81s-74 -30 -116 -30c-20 0 -40.833 2.5 -62.5 7.5s-42.5 13 -62.5 24s-38.5 24.667 -55.5 41s-31.167 36.166 -42.5 59.499l83 44c17.333 -30.667 38.5 -52.334 63.5 -65.001s50.5 -19 76.5 -19c21.333 0 41.166 4 59.499 12
s34.166 19 47.499 33s23.666 30.167 30.999 48.5s11 37.833 11 58.5c0 20 -4 38.833 -12 56.5s-18.833 33.167 -32.5 46.5s-29.5 24 -47.5 32s-37 12 -57 12c-26 0 -52 -6.66699 -78 -20s-46.667 -34.333 -62 -63l-83 43c12 23.333 26.5 43.5 43.5 60.5
s35.5 30.833 55.5 41.5s40.667 18.5 62 23.5s42 7.5 62 7.5c31.333 0 61.5 -6.16699 90.5 -18.5s54.5 -29.333 76.5 -51s39.667 -46.667 53 -75s20 -58.5 20 -90.5c1.33301 -17.333 6.33301 -35.166 15 -53.499s19.834 -35.166 33.501 -50.499s29.5 -28 47.5 -38
s37 -15 57 -15c20.667 0 39.834 4 57.501 12s33.167 18.833 46.5 32.5s23.833 29.5 31.5 47.5s11.5 37.333 11.5 58c0 20 -3.83301 39 -11.5 57s-18.167 33.833 -31.5 47.5s-28.833 24.5 -46.5 32.5s-36.834 12 -57.501 12c-6 0 -12 -0.333008 -18 -1
s-11.667 -2.33398 -17 -5.00098l-37 85c20 9.33301 44 14 72 14c40.667 0 78.334 -9.83301 113.001 -29.5s62.667 -45.5 84 -77.5c36.667 33.333 73.167 59.5 109.5 78.5s77.166 28.5 122.499 28.5c32 0 62.5 -6.5 91.5 -19.5s54.333 -30.5 76 -52.5
s38.834 -47.667 51.5 -77c12.667 -29.333 19 -60.333 19 -93zM535.002 178.999c0 -27.333 -6.83301 -52.999 -20.5 -76.999s-31.667 -45 -54 -63s-47.833 -32.333 -76.5 -43s-58 -16 -88 -16c-35.333 0 -67.666 6.5 -96.999 19.5s-54.666 30.667 -75.999 53
s-38 48.166 -50 77.499s-18 60 -18 92c0 28.667 5.66699 57.5 17 86.5s27.5 55 48.5 78s46.333 41.667 76 56s62.834 21.5 99.501 21.5c20 0 40.667 -2.66699 62 -8s42 -13.333 62 -24s38.5 -24.5 55.5 -41.5s31.167 -36.833 42.5 -59.5l-81 -43
c-16.667 26.667 -37 47.167 -61 61.5s-50.667 21.5 -80 21.5c-24 0 -45.333 -4.83301 -64 -14.5s-34.167 -21.834 -46.5 -36.501s-21.666 -30.667 -27.999 -48s-9.5 -34 -9.5 -50c0 -25.333 7 -48.666 21 -69.999c12.667 14.667 26.667 27.5 42 38.5s31.166 20 47.499 27
s32.666 12.167 48.999 15.5s32.166 5 47.499 5c30 0 60.667 -5.5 92 -16.5s60.666 -25.167 87.999 -42.5zM432.002 144c-15.333 6 -29.166 10 -41.499 12s-24.5 3 -36.5 3c-28.667 0 -54.167 -6.33301 -76.5 -19s-40.833 -29 -55.5 -49c11.333 -6 23 -10.667 35 -14
s25 -5 39 -5c21.333 0 44.166 5 68.499 15s46.833 29 67.5 57zM2084 796c-8 13.333 -19.498 25.165 -34.498 35.498s-31.5 15.5 -49.5 15.5c-12.667 0 -25.834 -2.5 -39.501 -7.5s-26.334 -12.333 -38.001 -22s-21.167 -21.667 -28.5 -36s-11 -31.166 -11 -50.499
c0 -21.333 4.5 -39.666 13.5 -54.999s19.833 -28 32.5 -38s25.667 -17.5 39 -22.5s24 -7.5 32 -7.5v-71c-22 0 -44 4.83301 -66 14.5s-42 23 -60 40s-32.667 37.5 -44 61.5s-17 50 -17 78c0 28.667 5.33301 54.5 16 77.5s24.667 42.667 42 59s37.333 28.833 60 37.5
s45.667 13 69 13c26 0 51.5 -7 76.5 -21s44.5 -33.667 58.5 -59z" />
    <glyph glyph-name="u102B" unicode="&#x102b;" horiz-adv-x="215" 
d="M67 0l-0.00195312 719c0 36.667 -7.16699 62.167 -21.5 76.5s-33.5 21.5 -57.5 21.5c-23.333 0 -43 -6.66699 -59 -20s-24 -38 -24 -74h-91c0 22 3 44 9 66s15.833 42 29.5 60s31.667 32.667 54 44s49.833 17 82.5 17c22.667 0 44.334 -3.66699 65.001 -11
s38.834 -18.833 54.501 -34.5s28.167 -35.5 37.5 -59.5s14 -52.667 14 -86v-719h-93z" />
    <glyph glyph-name="u102C" unicode="&#x102c;" horiz-adv-x="426" 
d="M371 222c0 -33.333 -6.33203 -64.667 -18.999 -94s-29.834 -55 -51.501 -77s-47 -39.333 -76 -52s-59.5 -19 -91.5 -19c-15.333 0 -30.166 1.33301 -44.499 4s-29.166 7.66699 -44.499 15l36 83c7.33301 -3.33301 16 -5.83301 26 -7.5s18.667 -2.5 26 -2.5
c20.667 0 39.834 4 57.501 12s33 18.833 46 32.5s23.333 29.5 31 47.5s11.5 37.333 11.5 58c0 20 -3.66699 39 -11 57s-17.5 33.833 -30.5 47.5s-28.333 24.5 -46 32.5s-36.834 12 -57.501 12c-32 0 -63.5 -10.167 -94.5 -30.5s-66.833 -47.833 -107.5 -82.5l-53 81
l67.5 53.5c20.333 15.667 40.166 28.667 59.499 39s39.166 18.333 59.499 24s43.166 8.5 68.499 8.5c32 0 62.5 -6.5 91.5 -19.5s54.333 -30.5 76 -52.5s38.834 -47.667 51.501 -77s19 -60.333 19 -93z" />
    <glyph glyph-name="u102D" unicode="&#x102d;" 
d="M-55 730c0 -26 -4.66699 -50.333 -14 -73s-22.333 -42.5 -39 -59.5s-36 -30.333 -58 -40s-45.333 -14.5 -70 -14.5c-25.333 0 -49.166 4.83301 -71.499 14.5s-41.666 23 -57.999 40s-29.333 36.833 -39 59.5s-14.5 47 -14.5 73c0 25.333 4.83301 49.333 14.5 72
s22.667 42.5 39 59.5s35.5 30.5 57.5 40.5s45.333 15 70 15c25.333 0 49.166 -5 71.499 -15s41.666 -23.5 57.999 -40.5s29.333 -36.833 39 -59.5s14.5 -46.667 14.5 -72zM-126 730c0 15.333 -2.83301 30 -8.5 44s-13.5 26.333 -23.5 37s-21.667 19.167 -35 25.5
s-27.666 9.5 -42.999 9.5c-16 0 -30.833 -3.16699 -44.5 -9.5s-25.5 -14.833 -35.5 -25.5s-18 -23 -24 -37s-9 -28.667 -9 -44s3 -30 9 -44s14 -26.333 24 -37s21.667 -19.167 35 -25.5s27.666 -9.5 42.999 -9.5c16 0 30.833 3.16699 44.5 9.5s25.5 14.833 35.5 25.5
s17.833 23 23.5 37s8.5 28.667 8.5 44z" />
    <glyph glyph-name="u102E" unicode="&#x102e;" 
d="M-55 730c0 -26 -4.66699 -50.333 -14 -73s-22.333 -42.5 -39 -59.5s-36 -30.333 -58 -40s-45.333 -14.5 -70 -14.5c-25.333 0 -49.166 4.83301 -71.499 14.5s-41.666 23 -57.999 40s-29.333 36.833 -39 59.5s-14.5 47 -14.5 73c0 25.333 4.83301 49.333 14.5 72
s22.667 42.5 39 59.5s35.5 30.5 57.5 40.5s45.333 15 70 15c25.333 0 49.166 -5 71.499 -15s41.666 -23.5 57.999 -40.5s29.333 -36.833 39 -59.5s14.5 -46.667 14.5 -72zM-236 846c-14.667 0 -28.667 -3.00195 -42 -9.00195s-25.166 -14 -35.499 -24
s-18.666 -21.833 -24.999 -35.5s-9.83301 -27.834 -10.5 -42.501c0 -7.33301 1.33301 -13.666 4 -18.999c18.667 14.667 37.167 24.5 55.5 29.5s36.166 7.5 53.499 7.5c16 0 33.667 -2.66699 53 -8s37.666 -14.666 54.999 -27.999c2 4.66699 3 10.667 3 18
c-1.33301 14.667 -4.83301 28.834 -10.5 42.501s-13.5 25.5 -23.5 35.5s-21.5 18 -34.5 24s-27.167 9 -42.5 9zM-148 659.998c-13.333 12 -27.998 20.666 -43.998 25.999s-30.667 8 -44 8s-27.833 -2.66699 -43.5 -8s-30.834 -14.333 -45.501 -27
c10 -13.333 22.667 -24.166 38 -32.499s31.666 -12.5 48.999 -12.5c18.667 0 35.667 4 51 12s28.333 19.333 39 34z" />
    <glyph glyph-name="u102F" unicode="&#x102f;" horiz-adv-x="189" 
d="M40 -464v908h93v-815h83v-93h-176z" />
    <glyph glyph-name="u1030" unicode="&#x1030;" horiz-adv-x="356" 
d="M211 -464v908h92v-815h80v-93h-172zM39 -464v908h93v-908h-93z" />
    <glyph glyph-name="u1031" unicode="&#x1031;" horiz-adv-x="592" 
d="M535 179c0 -27.333 -6.83594 -53 -20.5029 -77s-31.667 -45 -54 -63s-47.833 -32.333 -76.5 -43s-58 -16 -88 -16c-35.333 0 -67.666 6.5 -96.999 19.5s-54.666 30.667 -75.999 53s-38 48.166 -50 77.499s-18 60 -18 92c0 28.667 5.66699 57.5 17 86.5s27.5 55 48.5 78
s46.333 41.667 76 56s62.834 21.5 99.501 21.5c20.667 0 42 -2.83301 64 -8.5s43 -14 63 -25s38.333 -24.833 55 -41.5s30 -36 40 -58l-81 -43c-16.667 26 -36.667 46.333 -60 61s-50.333 22 -81 22c-26.667 0 -49.334 -5.5 -68.001 -16.5s-34 -24.167 -46 -39.5
s-20.667 -31.5 -26 -48.5s-8 -31.833 -8 -44.5c0 -25.333 7 -48.666 21 -69.999c25.333 30 54.833 51.833 88.5 65.5s66.167 20.5 97.5 20.5c24 0 51.833 -4.66699 83.5 -14s63.834 -24.333 96.501 -45zM431.997 144c-15.333 6 -29.168 10.001 -41.501 12.001
s-24.5 3 -36.5 3c-28 0 -53.167 -6 -75.5 -18s-41.166 -28.667 -56.499 -50c11.333 -6 23 -10.667 35 -14s25 -5 39 -5c23.333 0 47.5 5.66699 72.5 17s46.167 29.666 63.5 54.999z" />
    <glyph glyph-name="u1032" unicode="&#x1032;" 
d="M-98 569l-304 241l41 57l306 -241z" />
    <glyph glyph-name="u1033" unicode="&#x1033;" 
d="M-55 730c0 -26 -4.66699 -50.333 -14 -73s-22.166 -42.5 -38.499 -59.5s-35.5 -30.333 -57.5 -40s-45.333 -14.5 -70 -14.5c-26 0 -50.167 4.83301 -72.5 14.5s-41.833 23 -58.5 40s-29.834 36.833 -39.501 59.5s-14.5 47 -14.5 73c0 25.333 4.83301 49.333 14.5 72
s22.667 42.5 39 59.5s35.5 30.5 57.5 40.5s45.667 15 71 15c26 0 50 -5 72 -15s41.333 -23.5 58 -40.5s29.667 -36.833 39 -59.5s14 -46.667 14 -72zM-126 730c0 15.333 -2.83203 30 -8.49902 44s-13.334 26.333 -23.001 37s-21.167 19.167 -34.5 25.5
s-27.666 9.5 -42.999 9.5c-16 0 -31 -3.16699 -45 -9.5s-26 -14.833 -36 -25.5s-18 -23 -24 -37s-9 -28.667 -9 -44s3 -30 9 -44s14 -26.333 24 -37s21.667 -19.167 35 -25.5s27.666 -9.5 42.999 -9.5c16 0 30.833 3.16699 44.5 9.5s25.5 14.833 35.5 25.5
s17.833 23 23.5 37s8.5 28.667 8.5 44zM-176.999 730c0 -15.333 -5.66699 -29.333 -17 -42s-25 -19 -41 -19c-16.667 0 -30.667 6.33301 -42 19s-17 26.667 -17 42s5.66699 29.166 17 41.499s25.333 18.5 42 18.5c16 0 29.667 -6.16699 41 -18.5s17 -26.166 17 -41.499z
M-218.999 730c0 4 -1.66699 7.66699 -5 11s-7 5 -11 5c-4.66699 0 -8.66699 -1.66699 -12 -5s-5 -7 -5 -11c0 -4.66699 1.66699 -8.66699 5 -12s7.33301 -5 12 -5c4 0 7.66699 1.66699 11 5s5 7.33301 5 12z" />
    <glyph glyph-name="u1034" unicode="&#x1034;" 
d="M-359 569l-43 57l306 242l41 -57z" />
    <glyph glyph-name="u1035" unicode="&#x1035;" 
d="M-56 695c0 -21.333 -5.33203 -41.1621 -15.999 -59.4951s-24.834 -34.5 -42.501 -48.5s-37.5 -25 -59.5 -33s-44 -12 -66 -12c-27.333 0 -52.333 5 -75 15s-42.167 23.667 -58.5 41s-29 37.166 -38 59.499s-13.5 46.166 -13.5 71.499c0 22.667 4.33301 45 13 67
s21 41.833 37 59.5s35.333 32 58 43s48.334 16.5 77.001 16.5c16.667 0 33.5 -2.16699 50.5 -6.5s33.167 -10.833 48.5 -19.5s29.166 -19.334 41.499 -32.001s22.5 -27 30.5 -43l-62 -34c-15.333 22 -31.5 38.167 -48.5 48.5s-37.167 15.5 -60.5 15.5
c-17.333 0 -33 -3.33301 -47 -10s-26 -15.334 -36 -26.001s-17.667 -23 -23 -37s-8 -28 -8 -42c0 -22 6 -40 18 -54c18.667 21.333 40.667 37.666 66 48.999s50.333 17 75 17c17.333 0 37.833 -3.33301 61.5 -10s49.5 -18.667 77.5 -36zM-133.999 671.004
c-11.333 4.66699 -22.0029 7.83398 -32.0029 9.50098s-19.667 2.5 -29 2.5c-20.667 0 -40.167 -4.83301 -58.5 -14.5s-33.166 -23.167 -44.499 -40.5c8.66699 -4.66699 17.834 -8.33398 27.501 -11.001s19.834 -4 30.501 -4c16 0 34 4.33301 54 13s37.333 23.667 52 45z" />
    <glyph glyph-name="u1036" unicode="&#x1036;" 
d="M-55 672c0 -13.333 -2.66699 -26 -8 -38s-12.5 -22.5 -21.5 -31.5s-19.5 -16.167 -31.5 -21.5s-24.667 -8 -38 -8s-26 2.66699 -38 8s-22.5 12.5 -31.5 21.5s-16.167 19.5 -21.5 31.5s-8 24.667 -8 38c0 12.667 2.66699 25 8 37s12.5 22.5 21.5 31.5
s19.5 16.167 31.5 21.5s24.667 8 38 8s26 -2.66699 38 -8s22.5 -12.5 31.5 -21.5s16.167 -19.5 21.5 -31.5s8 -24.333 8 -37zM-108 672c0 11.333 -4.5 21.333 -13.5 30s-19.833 13 -32.5 13c-13.333 0 -24.166 -4.33301 -32.499 -13s-12.5 -18.667 -12.5 -30
s4.16699 -22 12.5 -32s19.166 -15 32.499 -15c12.667 0 23.5 4.66699 32.5 14s13.5 20.333 13.5 33z" />
    <glyph glyph-name="u1037" unicode="&#x1037;" 
d="M0 -235c0 -13.333 -2.66699 -25.833 -8 -37.5s-12.5 -22 -21.5 -31s-19.5 -16.167 -31.5 -21.5s-24.667 -8 -38 -8s-26 2.66699 -38 8s-22.5 12.5 -31.5 21.5s-16.167 19.333 -21.5 31s-8 24.167 -8 37.5s2.66699 25.833 8 37.5s12.5 22 21.5 31s19.5 16.167 31.5 21.5
s24.667 8 38 8s26 -2.66699 38 -8s22.5 -12.5 31.5 -21.5s16.167 -19.333 21.5 -31s8 -24.167 8 -37.5zM-53 -235c0 11.333 -4.5 21.5 -13.5 30.5s-19.833 13.5 -32.5 13.5c-13.333 0 -24.166 -4.5 -32.499 -13.5s-12.5 -19.167 -12.5 -30.5s4.16699 -22 12.5 -32
s19.166 -15 32.499 -15c12.667 0 23.5 4.83301 32.5 14.5s13.5 20.5 13.5 32.5z" />
    <glyph glyph-name="u1038" unicode="&#x1038;" horiz-adv-x="308" 
d="M252 93c0 -27.333 -9.5 -50.5 -28.5 -69.5s-42.167 -28.5 -69.5 -28.5s-50.5 9.5 -69.5 28.5s-28.5 42.167 -28.5 69.5c0 28 9.5 51.333 28.5 70s42.167 28 69.5 28s50.5 -9.33301 69.5 -28s28.5 -42 28.5 -70zM198 93c0 11.333 -4.16699 21.666 -12.5 30.999
s-18.833 14 -31.5 14c-13.333 0 -24.166 -4.66699 -32.499 -14s-12.5 -19.666 -12.5 -30.999c0 -12 4.16699 -22.5 12.5 -31.5s19.166 -13.5 32.499 -13.5c12.667 0 23.167 4.5 31.5 13.5s12.5 19.5 12.5 31.5zM252 366c0 -28 -9.5 -51.5 -28.5 -70.5
s-42.167 -28.5 -69.5 -28.5s-50.5 9.5 -69.5 28.5s-28.5 42.5 -28.5 70.5s9.5 51.333 28.5 70s42.167 28 69.5 28s50.5 -9.33301 69.5 -28s28.5 -42 28.5 -70zM198 366c0 12 -4.16699 22.5 -12.5 31.5s-18.833 13.5 -31.5 13.5c-13.333 0 -24.166 -4.5 -32.499 -13.5
s-12.5 -19.5 -12.5 -31.5c0 -11.333 4.16699 -21.666 12.5 -30.999s19.166 -14 32.499 -14c12.667 0 23.167 4.66699 31.5 14s12.5 19.666 12.5 30.999z" />
    <glyph glyph-name="u1039" unicode="&#x1039;" horiz-adv-x="55" 
d="M0 -277c0 -11.333 -6 -17 -18 -17c-11.333 0 -17 5.66699 -17 17s5.66699 17 17 17c12 0 18 -5.66699 18 -17zM-14 -212c0 -11.333 -5.33301 -17 -16 -17c-11.333 0 -17 5.66699 -17 17s5.66699 17 17 17c10.667 0 16 -5.66699 16 -17zM-50 -158
c0 -11.333 -5.66699 -17 -17 -17c-12 0 -18 5.66699 -18 17c0 12 6 18 18 18c11.333 0 17 -6 17 -18zM-106 -119c0 -12 -5.66699 -18 -17 -18s-17 6 -17 18c0 11.333 5.66699 17 17 17s17 -5.66699 17 -17zM-171 -107c0 -11.333 -5.33301 -17 -16 -17
c-12 0 -18 5.66699 -18 17s6 17 18 17c10.667 0 16 -5.66699 16 -17zM-236 -119c0 -12 -5.66699 -18 -17 -18s-17 6 -17 18c0 11.333 5.66699 17 17 17s17 -5.66699 17 -17zM-291 -158c0 -11.333 -6 -17 -18 -17c-11.333 0 -17 5.66699 -17 17c0 12 5.66699 18 17 18
c12 0 18 -6 18 -18zM-329 -212c0 -11.333 -5.33301 -17 -16 -17c-11.333 0 -17 5.66699 -17 17s5.66699 17 17 17c10.667 0 16 -5.66699 16 -17zM-342 -277c0 -11.333 -5.33301 -17 -16 -17c-12 0 -18 5.66699 -18 17s6 17 18 17c10.667 0 16 -5.66699 16 -17zM-329 -343
c0 -11.333 -5.33301 -17 -16 -17c-11.333 0 -17 5.66699 -17 17c0 12 5.66699 18 17 18c10.667 0 16 -6 16 -18zM-291 -398c0 -11.333 -6 -17 -18 -17c-11.333 0 -17 5.66699 -17 17s5.66699 17 17 17c12 0 18 -5.66699 18 -17zM-236 -434c0 -11.333 -5.66699 -17 -17 -17
s-17 5.66699 -17 17s5.66699 17 17 17s17 -5.66699 17 -17zM-171 -448c0 -10.667 -5.33301 -16 -16 -16c-12 0 -18 5.33301 -18 16c0 11.333 6 17 18 17c10.667 0 16 -5.66699 16 -17zM-106 -434c0 -11.333 -5.66699 -17 -17 -17s-17 5.66699 -17 17s5.66699 17 17 17
s17 -5.66699 17 -17zM-50 -398c0 -11.333 -5.66699 -17 -17 -17c-12 0 -18 5.66699 -18 17s6 17 18 17c11.333 0 17 -5.66699 17 -17zM-14 -343c0 -11.333 -5.33301 -17 -16 -17c-11.333 0 -17 5.66699 -17 17c0 12 5.66699 18 17 18c10.667 0 16 -6 16 -18z" />
    <glyph glyph-name="u103A" unicode="&#x103a;" horiz-adv-x="55" 
d="M-51 796c-9.33301 15.333 -21.332 27.666 -35.999 36.999s-30.667 14 -48 14c-14.667 0 -29 -2.66699 -43 -8s-26.5 -13 -37.5 -23s-19.833 -22.167 -26.5 -36.5s-10 -30.5 -10 -48.5c0 -21.333 4.5 -39.666 13.5 -54.999s19.833 -28 32.5 -38s25.667 -17.5 39 -22.5
s24 -7.5 32 -7.5v-71c-22 0 -44 4.83301 -66 14.5s-42 23 -60 40s-32.667 37.5 -44 61.5s-17 50 -17 78c0 28.667 5.33301 54.5 16 77.5s24.667 42.667 42 59s37.333 28.833 60 37.5s45.667 13 69 13s47.666 -6.33301 72.999 -19s46 -33 62 -61z" />
    <glyph glyph-name="u103B" unicode="&#x103b;" horiz-adv-x="204" 
d="M-219 -371v436h93v-363l181 -46v788h93v-908z" />
    <glyph glyph-name="u103C" unicode="&#x103c;" horiz-adv-x="213" 
d="M760 -196c0 -13.333 -0.834961 -28.3311 -2.50195 -44.998s-4.83398 -33.834 -9.50098 -51.501s-11.334 -35.167 -20.001 -52.5s-20 -33 -34 -47c-15.333 -15.333 -31 -27.666 -47 -36.999s-32.5 -16.666 -49.5 -21.999s-34.333 -8.83301 -52 -10.5
s-35.5 -2.5 -53.5 -2.5h-154c-18 0 -35.833 0.833008 -53.5 2.5s-35 5 -52 10s-33.667 12.333 -50 22s-31.833 22.167 -46.5 37.5c-14 14 -25.333 29.333 -34 46s-15.5 33.5 -20.5 50.5s-8.33301 34 -10 51s-2.5 33.167 -2.5 48.5v899c0 13.333 0.833008 28.333 2.5 45
s5 33.667 10 51s11.833 34.666 20.5 51.999s20.334 33.333 35.001 48c30 30 62 49.333 96 58s69 13 105 13h154c36 0 70.833 -4.5 104.5 -13.5s65.5 -28.5 95.5 -58.5c11.333 -11.333 21.166 -24.5 29.499 -39.5s15.333 -30.333 21 -46s10 -30.834 13 -45.501
s4.5 -27.334 4.5 -38.001h-92c0 6 -1 13.667 -3 23s-5 19 -9 29s-8.83301 19.833 -14.5 29.5s-11.834 18.167 -18.501 25.5c-10 10 -21.167 17.833 -33.5 23.5s-25.166 9.83398 -38.499 12.501s-26.666 4.33398 -39.999 5.00098s-26 1 -38 1h-117
c-12 0 -24.667 -0.333008 -38 -1s-26.666 -2.33398 -39.999 -5.00098s-26.166 -6.83398 -38.499 -12.501s-23.5 -13.5 -33.5 -23.5s-18 -21.5 -24 -34.5s-10.5 -26.333 -13.5 -40s-4.83301 -27.334 -5.5 -41.001s-1 -25.834 -1 -36.501v-863c0 -12 0.5 -24.667 1.5 -38
s3 -26.666 6 -39.999s7.33301 -26.166 13 -38.499s13.5 -23.5 23.5 -33.5c19.333 -19.333 42.833 -31.166 70.5 -35.499s54.167 -6.5 79.5 -6.5h118c26 0 52.833 2.33301 80.5 7s50.834 16.334 69.501 35.001c9.33301 10 17 21.167 23 33.5s10.5 25.166 13.5 38.499
s5 26.666 6 39.999s1.5 26 1.5 38v89h92v-106z" />
    <glyph glyph-name="u103D" unicode="&#x103d;" 
d="M-55 -277c0 -26 -4.66504 -50.333 -13.998 -73s-22.333 -42.5 -39 -59.5s-36 -30.333 -58 -40s-45.333 -14.5 -70 -14.5c-25.333 0 -49.166 4.83301 -71.499 14.5s-41.833 23 -58.5 40s-29.834 36.833 -39.501 59.5s-14.5 47 -14.5 73c0 24.667 4.66699 48.334 14 71.001
s22.333 42.667 39 60s36 31 58 41s45.667 15 71 15s49.166 -5 71.499 -15s41.666 -23.667 57.999 -41s29.333 -37.333 39 -60s14.5 -46.334 14.5 -71.001zM-125.998 -277c0 15.333 -2.83301 30.001 -8.5 44.001s-13.5 26.333 -23.5 37s-21.667 19.167 -35 25.5
s-27.666 9.5 -42.999 9.5c-16 0 -30.833 -3.16699 -44.5 -9.5s-25.5 -14.833 -35.5 -25.5s-18 -23 -24 -37s-9 -28.667 -9 -44s3 -30 9 -44s14 -26.333 24 -37s21.667 -19.167 35 -25.5s27.666 -9.5 42.999 -9.5c16 0 30.833 3.16699 44.5 9.5s25.5 14.666 35.5 24.999
s17.833 22.5 23.5 36.5s8.5 29 8.5 45z" />
    <glyph glyph-name="u103E" unicode="&#x103e;" 
d="M-227 -464v83h88v280h84v-363h-172z" />
    <glyph glyph-name="u103F" unicode="&#x103f;" horiz-adv-x="1357" 
d="M1303 222c0 -33.333 -6.33008 -64.6729 -18.9971 -94.0059s-30 -55 -52 -77s-47.667 -39.333 -77 -52s-60.333 -19 -93 -19c-42.667 0 -80.167 10.5 -112.5 31.5s-59.166 47.5 -80.499 79.5c-20.667 -33.333 -48.334 -60.166 -83.001 -80.499s-73 -30.5 -115 -30.5
s-79.5 10.833 -112.5 32.5s-60.167 47.834 -81.5 78.501c-20.667 -33.333 -48.334 -60.166 -83.001 -80.499s-73 -30.5 -115 -30.5c-20 0 -40.833 2.5 -62.5 7.5s-42.5 12.833 -62.5 23.5s-38.5 24.334 -55.5 41.001s-31.5 36.667 -43.5 60l83 44c18 -32 39.5 -54 64.5 -66
s50.5 -18 76.5 -18c20.667 0 40 4 58 12s33.667 18.833 47 32.5s23.833 29.667 31.5 48s11.5 37.833 11.5 58.5c0 20 -3.83301 39 -11.5 57s-18.334 33.667 -32.001 47s-29.5 24 -47.5 32s-37 12 -57 12c-26 0 -52.167 -6.5 -78.5 -19.5s-47.166 -34.167 -62.499 -63.5
l-83 43c11.333 23.333 25.5 43.333 42.5 60s35.5 30.5 55.5 41.5s40.833 19 62.5 24s42.834 7.5 63.501 7.5c32 0 62.5 -6.33301 91.5 -19s54.5 -30 76.5 -52s39.5 -47.333 52.5 -76s19.5 -59 19.5 -91c1.33301 -13.333 6 -28.833 14 -46.5s18.5 -34.5 31.5 -50.5
s28.5 -29.5 46.5 -40.5s38 -16.5 60 -16.5c20.667 0 40 4 58 12s33.667 18.833 47 32.5s23.833 29.667 31.5 48s11.5 37.833 11.5 58.5c0 18.667 -3.83301 36.834 -11.5 54.501s-18 33.5 -31 47.5s-28.667 25.167 -47 33.5s-37.833 12.5 -58.5 12.5
c-12.667 0 -24.334 -2 -35.001 -6l-35 85c8.66699 4.66699 19.167 8.16699 31.5 10.5s25.166 3.5 38.499 3.5c34 0 65.5 -6.5 94.5 -19.5s54.333 -30.5 76 -52.5s38.5 -47.333 50.5 -76s18 -58.667 18 -90c1.33301 -13.333 6 -28.833 14 -46.5s18.5 -34.5 31.5 -50.5
s28.5 -29.5 46.5 -40.5s38 -16.5 60 -16.5c20 0 39 4 57 12s33.833 18.833 47.5 32.5s24.334 29.5 32.001 47.5s11.5 37.333 11.5 58c0 20 -3.83301 39 -11.5 57s-18.334 33.833 -32.001 47.5s-29.5 24.5 -47.5 32.5s-37 12 -57 12c-12.667 0 -24 -2 -34 -6l-36 85
c8.66699 4.66699 19.167 8.16699 31.5 10.5s25.166 3.5 38.499 3.5c32.667 0 63.667 -6.33301 93 -19s55 -30 77 -52s39.333 -47.667 52 -77s19 -60.666 19 -93.999z" />
    <glyph glyph-name="u1040" unicode="&#x1040;" horiz-adv-x="585" 
d="M530 222c0 -33.333 -6.16797 -64.666 -18.501 -93.999s-29.166 -55 -50.499 -77s-46.333 -39.333 -75 -52s-59.334 -19 -92.001 -19c-34 0 -65.5 6.33301 -94.5 19s-54.167 30 -75.5 52s-38.166 47.667 -50.499 77s-18.5 60.666 -18.5 93.999
c0 32.667 6.16699 63.667 18.5 93s29.166 55 50.499 77s46.333 39.5 75 52.5s59.334 19.5 92.001 19.5c33.333 0 64.5 -6.5 93.5 -19.5s54.333 -30.5 76 -52.5s38.667 -47.667 51 -77s18.5 -60.333 18.5 -93zM436.999 222c0 20 -3.66699 39 -11 57s-17.5 33.833 -30.5 47.5
s-28.167 24.5 -45.5 32.5s-36 12 -56 12s-39 -4 -57 -12s-33.5 -18.833 -46.5 -32.5s-23.333 -29.5 -31 -47.5s-11.5 -37 -11.5 -57c0 -20.667 3.66699 -40 11 -58s17.5 -33.833 30.5 -47.5s28.167 -24.5 45.5 -32.5s36 -12 56 -12s39 4 57 12s33.5 18.833 46.5 32.5
s23.333 29.5 31 47.5s11.5 37.333 11.5 58z" />
    <glyph glyph-name="u1041" unicode="&#x1041;" horiz-adv-x="577" 
d="M521 222c0 -33.333 -6.33105 -64.666 -18.998 -93.999s-30 -55 -52 -77s-47.667 -39.333 -77 -52s-60.333 -19 -93 -19c-46 0 -89.167 11.167 -129.5 33.5s-71.833 55.166 -94.5 98.499l82 44c18.667 -30 40 -51.5 64 -64.5s50 -19.5 78 -19.5c20 0 39 4 57 12
s33.833 18.833 47.5 32.5s24.334 29.5 32.001 47.5s11.5 37.333 11.5 58c0 20 -3.83301 39.167 -11.5 57.5s-18.334 34.166 -32.001 47.499s-29.5 24 -47.5 32s-37 12 -57 12c-28 0 -54.333 -6.66699 -79 -20s-45.667 -34.333 -63 -63l-82 43
c10.667 20.667 24 39.334 40 56.001s33.667 30.667 53 42s40.166 20 62.499 26s45.166 9 68.499 9c32.667 0 63.667 -6.5 93 -19.5s55 -30.5 77 -52.5s39.333 -47.667 52 -77s19 -60.333 19 -93z" />
    <glyph glyph-name="u1042" unicode="&#x1042;" horiz-adv-x="567" 
d="M488 -289c0 -22.667 -4.33203 -44.5 -12.999 -65.5s-21.5 -39.667 -38.5 -56s-38.167 -29.333 -63.5 -39s-55 -14.5 -89 -14.5c-34.667 0 -64.667 5.16699 -90 15.5s-46.5 24.833 -63.5 43.5s-29.667 41.167 -38 67.5s-12.5 55.166 -12.5 86.499h91
c0 -23.333 3.16699 -42.666 9.5 -57.999s14.666 -27.5 24.999 -36.5s22.333 -15.5 36 -19.5s27.834 -6 42.501 -6s28.667 1.83301 42 5.5s25.166 9.33398 35.499 17.001s18.5 17.667 24.5 30s9 27.166 9 44.499v733h93v-748z" />
    <glyph glyph-name="u1043" unicode="&#x1043;" horiz-adv-x="592" 
d="M525 222c0 -33.333 -6.33203 -64.668 -18.999 -94.001s-30 -55 -52 -77s-47.667 -39.333 -77 -52s-60.333 -19 -93 -19c-6 0 -12.833 0.333008 -20.5 1s-14.834 2 -21.501 4l268 -449h-108l-325 547l-9.5 15c-3 4.66699 -5.5 9.33398 -7.5 14.001l82 44
c16.667 -30 37.667 -51.5 63 -64.5s51.666 -19.5 78.999 -19.5c20 0 39 4 57 12s33.833 18.833 47.5 32.5s24.334 29.5 32.001 47.5s11.5 37.333 11.5 58c0 20 -3.83301 39 -11.5 57s-18.334 33.833 -32.001 47.5s-29.5 24.5 -47.5 32.5s-37 12 -57 12
c-27.333 0 -53.166 -6.33301 -77.499 -19s-45.833 -34 -64.5 -64l-82 43c12 23.333 26.5 43.5 43.5 60.5s35.5 30.833 55.5 41.5s40.833 18.5 62.5 23.5s42.5 7.5 62.5 7.5c32.667 0 63.667 -6.5 93 -19.5s55 -30.5 77 -52.5s39.333 -47.667 52 -77s19 -60.333 19 -93z" />
    <glyph glyph-name="u1044" unicode="&#x1044;" horiz-adv-x="592" 
d="M531 112c-2.66699 -5.33301 -5.33398 -10.3311 -8.00098 -14.998s-5.66699 -9.33398 -9 -14.001l-324 -547h-110l268 449c-6 -2 -12.833 -3.33301 -20.5 -4s-14.167 -1 -19.5 -1c-33.333 0 -64.5 6.33301 -93.5 19s-54.5 30 -76.5 52s-39.333 47.667 -52 77
s-19 60.666 -19 93.999c0 32.667 6.33301 63.667 19 93s30 55 52 77s47.5 39.5 76.5 52.5s60.167 19.5 93.5 19.5c20 0 40.833 -2.5 62.5 -7.5s42.5 -13 62.5 -24s38.5 -24.833 55.5 -41.5s31.167 -36.667 42.5 -60l-82 -43c-18 28.667 -39 49.667 -63 63s-50 20 -78 20
c-20 0 -39.167 -4 -57.5 -12s-34.166 -18.833 -47.499 -32.5s-24 -29.5 -32 -47.5s-12 -37 -12 -57c0 -20.667 4 -40 12 -58s18.667 -33.833 32 -47.5s29.166 -24.5 47.499 -32.5s37.5 -12 57.5 -12c28 0 53.333 6 76 18s44.334 34 65.001 66l82 -44v0z" />
    <glyph glyph-name="u1045" unicode="&#x1045;" horiz-adv-x="592" 
d="M533 -223c0 -29.333 -5.33789 -58.3281 -16.0049 -86.9951s-26.167 -54.5 -46.5 -77.5s-45.333 -41.5 -75 -55.5s-63.5 -21 -101.5 -21c-37.333 0 -70.666 7 -99.999 21s-54 32.5 -74 55.5s-35.333 49 -46 78s-16 58.167 -16 87.5h93c0 -20 3.66699 -39 11 -57
s17.333 -33.833 30 -47.5s27.667 -24.5 45 -32.5s36.333 -12 57 -12s40 3.66699 58 11s33.5 17.666 46.5 30.999s23.333 29 31 47s11.5 38 11.5 60v444c0 21.333 -3.83301 41.166 -11.5 59.499s-18 34.166 -31 47.499s-28.5 23.666 -46.5 30.999s-37.333 11 -58 11
c-17.333 0 -33 -3.16699 -47 -9.5s-26.667 -14.5 -38 -24.5c12 -2.66699 23.833 -7.16699 35.5 -13.5s22 -14.5 31 -24.5s16.333 -21.333 22 -34s8.5 -26.334 8.5 -41.001c0 -17.333 -3.5 -33.666 -10.5 -48.999s-16.333 -28.666 -28 -39.999s-25.167 -20.333 -40.5 -27
s-31 -10 -47 -10c-17.333 0 -33.5 3.33301 -48.5 10s-28 15.834 -39 27.501s-19.5 25 -25.5 40s-9 31.167 -9 48.5v6c0.666992 31.333 6.83398 61.166 18.501 89.499s27.834 53.166 48.501 74.499s45.334 38.333 74.001 51s60.334 19 95.001 19c38 0 71.833 -7 101.5 -21
s54.667 -32.5 75 -55.5s35.833 -48.833 46.5 -77.5s16 -57.334 16 -86.001v-447zM230.995 224.005c0 13.333 -4.83203 24.833 -14.499 34.5s-21.167 14.5 -34.5 14.5c-15.333 0 -27.5 -4.83301 -36.5 -14.5s-13.5 -21.167 -13.5 -34.5c0 -14.667 4.66699 -27 14 -37
s20.666 -15 33.999 -15c14 0 26 5 36 15s15 22.333 15 37z" />
    <glyph glyph-name="u1046" unicode="&#x1046;" horiz-adv-x="592" 
d="M533 222c0 -29.333 -5.33496 -58.3379 -16.002 -87.0049s-26 -54.5 -46 -77.5s-44.667 -41.667 -74 -56s-62.666 -21.5 -99.999 -21.5c-38.667 0 -72.834 7 -102.501 21s-54.667 32.333 -75 55s-35.666 48.5 -45.999 77.5s-15.5 58.167 -15.5 87.5v447
c0 28.667 5.16699 57.334 15.5 86.001s25.666 54.334 45.999 77.001s45.333 41 75 55s63.834 21 102.501 21c35.333 0 67.5 -6.5 96.5 -19.5s53.833 -30.5 74.5 -52.5s36.667 -47.5 48 -76.5s17 -59.5 17 -91.5h-92c0 20 -3.66699 39.167 -11 57.5
s-17.5 34.166 -30.5 47.499s-28.167 24 -45.5 32s-36.333 12 -57 12s-39.834 -3.83301 -57.501 -11.5s-33 -18.167 -46 -31.5s-23.333 -29.166 -31 -47.499s-11.5 -38.166 -11.5 -59.499v-444c0 -22 3.83301 -42.167 11.5 -60.5s18 -34.166 31 -47.499
s28.333 -23.666 46 -30.999s36.834 -11 57.501 -11c32 0 59.833 9.33301 83.5 28s40.167 41.667 49.5 69l-127 47c-26 9.33301 -47.167 24.166 -63.5 44.499s-24.5 44.5 -24.5 72.5c0 16.667 3.33301 32.5 10 47.5s15.834 28.167 27.501 39.5s25 20.5 40 27.5
s30.833 10.5 47.5 10.5c17.333 0 33.5 -3.5 48.5 -10.5s28 -16.167 39 -27.5s19.667 -24.666 26 -39.999s9.5 -31 9.5 -47c0 -28.667 -9 -54 -27 -76zM388.998 332.995c0 14.667 -4.83301 26.667 -14.5 36s-21.167 14 -34.5 14c-14 0 -25.833 -4.66699 -35.5 -14
s-14.5 -21.333 -14.5 -36c0 -13.333 4.66699 -25.166 14 -35.499s20.666 -15.5 33.999 -15.5c14.667 0 26.834 5.16699 36.501 15.5s14.5 22.166 14.5 35.499z" />
    <glyph glyph-name="u1047" unicode="&#x1047;" horiz-adv-x="586" 
d="M484 -404c-17.333 -23.333 -38.001 -39.166 -62.001 -47.499s-48.667 -12.5 -74 -12.5c-33.333 0 -60.5 6 -81.5 18s-37.5 27 -49.5 45s-20.167 37.5 -24.5 58.5s-6.5 40.5 -6.5 58.5c0 24 6.16699 51.167 18.5 81.5s27.833 62.166 46.5 95.499
s38.834 66.833 60.501 100.5l60.5 96c18.667 30.333 34.167 57.833 46.5 82.5s18.5 44.667 18.5 60c0 24.667 -4.83301 45.834 -14.5 63.501s-21.667 32.167 -36 43.5s-30.166 19.5 -47.499 24.5s-33.333 7.5 -48 7.5c-23.333 0 -44 -4.16699 -62 -12.5s-33 -19.5 -45 -33.5
s-21 -30 -27 -48s-9 -36.333 -9 -55h-93c0 28.667 5.33301 57.5 16 86.5s26 55 46 78s44.667 41.667 74 56s62.666 21.5 99.999 21.5c26 0 53 -5.16699 81 -15.5s53.833 -25.333 77.5 -45s43 -44 58 -73s22.5 -61.833 22.5 -98.5c0 -22 -6.16699 -47.333 -18.5 -76
s-27.833 -59 -46.5 -91s-39 -64.833 -61 -98.5l-61 -96.5c-18.667 -30.667 -34.167 -59.334 -46.5 -86.001s-18.5 -49.334 -18.5 -68.001c0 -10.667 1.5 -21.167 4.5 -31.5s7.33301 -19.666 13 -27.999s12.834 -15 21.501 -20s19 -7.5 31 -7.5c18 0 32.667 3.5 44 10.5
s21.666 14.833 30.999 23.5l61 -67v0z" />
    <glyph glyph-name="u1048" unicode="&#x1048;" horiz-adv-x="595" 
d="M539 205c0 -50 -7.00098 -93.3301 -21.001 -129.997s-37.667 -68.334 -71 -95.001l-54 76c8.66699 9.33301 16.167 18.833 22.5 28.5s11.833 20.334 16.5 32.001s8.16699 24.667 10.5 39s3.5 30.833 3.5 49.5c0 24 -4 46.167 -12 66.5s-18.667 37.666 -32 51.999
s-29.166 25.666 -47.499 33.999s-37.5 12.5 -57.5 12.5c-24.667 0 -44.667 -5.33301 -60 -16c22 -21.333 39.167 -44.833 51.5 -70.5s18.5 -53.5 18.5 -83.5s-4.5 -57.333 -13.5 -82s-20 -46.167 -33 -64.5s-26.833 -33.666 -41.5 -45.999s-27.667 -21.5 -39 -27.5
c-17.333 14 -33.5 28.833 -48.5 44.5s-28.167 32.667 -39.5 51s-20.333 38.166 -27 59.499s-10 44.666 -10 69.999c0 36.667 6.33301 70.667 19 102s30 58.5 52 81.5s47.667 41.167 77 54.5s60.666 20 93.999 20c34 0 65.667 -6.66699 95 -20s54.833 -31.5 76.5 -54.5
s38.834 -50.167 51.501 -81.5s19 -65.333 19 -102zM227.999 199.003c0 22.667 -4.83203 42.334 -14.499 59.001s-22.5 31.667 -38.5 45c-18 -29.333 -27 -62 -27 -98c0 -25.333 4.5 -46.333 13.5 -63s20.167 -32.334 33.5 -47.001c11.333 15.333 19.666 31.5 24.999 48.5
s8 35.5 8 55.5z" />
    <glyph glyph-name="u1049" unicode="&#x1049;" horiz-adv-x="592" 
d="M533 -213c0 -35.333 -5.66602 -68.3369 -16.999 -99.0039s-27.333 -57.167 -48 -79.5s-45.5 -40 -74.5 -53s-61.167 -19.5 -96.5 -19.5c-38.667 0 -72.834 7 -102.501 21s-54.667 32.333 -75 55s-35.666 48.334 -45.999 77.001s-15.5 57.667 -15.5 87v447
c0 28.667 5.16699 57.5 15.5 86.5s25.666 54.833 45.999 77.5s45.333 41.167 75 55.5s63.834 21.5 102.501 21.5c37.333 0 70.666 -7 99.999 -21s54 -32.667 74 -56s35.333 -50.333 46 -81s16 -62.334 16 -95.001l-97 -36c18 -22 27 -47 27 -75
c0 -17.333 -3.16699 -33.5 -9.5 -48.5s-15.166 -28 -26.499 -39s-24.5 -19.833 -39.5 -26.5s-30.833 -10 -47.5 -10s-32.5 2.83301 -47.5 8.5s-28.333 13.834 -40 24.501s-20.834 23.667 -27.501 39s-10 32.666 -10 51.999c0 28 8.16699 52.167 24.5 72.5
s37.5 35.166 63.5 44.499l127 47c-8 32.667 -23.667 58.667 -47 78s-52 29 -86 29c-20.667 0 -39.834 -3.66699 -57.501 -11s-33 -17.666 -46 -30.999s-23.333 -29.166 -31 -47.499s-11.5 -38.166 -11.5 -59.499v-444c0 -22 3.83301 -42 11.5 -60s18 -33.667 31 -47
s28.333 -23.666 46 -30.999s36.834 -11 57.501 -11c20 0 38.833 3.66699 56.5 11s33 17.833 46 31.5s23.167 30.334 30.5 50.001s11 41.5 11 65.5h92zM389.001 99.9961c0 14 -5.00098 26 -15.001 36s-22 15 -36 15c-13.333 0 -24.666 -5 -33.999 -15s-14 -22 -14 -36
c0 -14.667 4.66699 -26.5 14 -35.5s21.333 -13.5 36 -13.5c13.333 0 24.833 4.5 34.5 13.5s14.5 20.833 14.5 35.5z" />
    <glyph glyph-name="u104A" unicode="&#x104a;" horiz-adv-x="204" 
d="M55 0v444h93v-444h-93z" />
    <glyph glyph-name="u104B" unicode="&#x104b;" horiz-adv-x="375" 
d="M226 0v444h93v-444h-93zM55 0v444h93v-444h-93z" />
    <glyph glyph-name="u104C" unicode="&#x104c;" horiz-adv-x="587" 
d="M533 222c0 -33.333 -6.50488 -64.666 -19.5049 -93.999s-30.5 -55 -52.5 -77s-47.667 -39.333 -77 -52s-60.333 -19 -93 -19c-22 0 -44.167 3 -66.5 9s-43.5 15.333 -63.5 28v-81c18 -9.33301 37.667 -16.5 59 -21.5s45 -7.5 71 -7.5c40 0 77.5 7.33301 112.5 22
s67.5 33.334 97.5 56.001v-265c0 -34.667 -4.33301 -62.5 -13 -83.5s-19 -38.167 -31 -51.5c-11.333 -13.333 -26.166 -24.833 -44.499 -34.5s-43.833 -14.5 -76.5 -14.5h-152c-22 0 -41.167 3.5 -57.5 10.5s-29.666 16.167 -39.999 27.5s-18.166 24.5 -23.499 39.5
s-8 30.167 -8 45.5c0 34.667 11.333 63.167 34 85.5s54.667 33.5 96 33.5c23.333 0 42 -3 56 -9s25.667 -13 35 -21l-45 -70c-10 7.33301 -18.167 12.333 -24.5 15s-13.5 4 -21.5 4c-32 0 -48 -12.667 -48 -38c0 -26.667 20.333 -40 61 -40h110
c11.333 0 20.833 0.333008 28.5 1s14.334 2 20.001 4s10.834 4.5 15.501 7.5s9.33398 6.83301 14.001 11.5c8.66699 7.33301 14.5 17.666 17.5 30.999s4.5 27 4.5 41v124c-19.333 -6 -38.833 -10.667 -58.5 -14s-39.167 -5 -58.5 -5c-42 0 -82.333 6.33301 -121 19
s-72.667 31 -102 55v218l83 44c18 -30.667 38.833 -52.334 62.5 -65.001s49.5 -19 77.5 -19c20 0 39.167 4 57.5 12s34.166 18.833 47.499 32.5s24 29.5 32 47.5s12 37.333 12 58c0 20 -4 39 -12 57s-18.667 33.833 -32 47.5s-29.166 24.5 -47.499 32.5s-37.5 12 -57.5 12
c-28 0 -54 -6.5 -78 -19.5s-44.667 -34.167 -62 -63.5l-83 43c11.333 23.333 25.666 43.5 42.999 60.5s36 30.833 56 41.5s40.667 18.5 62 23.5s42 7.5 62 7.5c32.667 0 63.667 -6.5 93 -19.5s55 -30.5 77 -52.5s39.5 -47.667 52.5 -77s19.5 -60.333 19.5 -93zM463.995 796
c-10 15.333 -22.1699 27.667 -36.5029 37s-30.166 14 -47.499 14c-12.667 0 -26 -2.5 -40 -7.5s-26.667 -12.333 -38 -22s-20.833 -21.834 -28.5 -36.501s-11.5 -31.334 -11.5 -50.001c0 -21.333 4.66699 -39.666 14 -54.999s20.333 -28 33 -38s25.667 -17.5 39 -22.5
s24 -7.5 32 -7.5v-70c-21.333 0 -43.166 4.66699 -65.499 14s-42.5 22.5 -60.5 39.5s-32.833 37.333 -44.5 61s-17.5 49.834 -17.5 78.501s5.33301 54.5 16 77.5s24.667 42.667 42 59s37.333 28.833 60 37.5s46 13 70 13s48.333 -6.33301 73 -19s45.334 -33 62.001 -61z" />
    <glyph glyph-name="u104D" unicode="&#x104d;" horiz-adv-x="841" 
d="M780 -280c0 -28.667 -6 -54.0059 -18 -76.0059s-24 -39 -36 -51c-4 -4 -9.66699 -9.33301 -17 -16s-16.833 -13 -28.5 -19s-25.334 -11.167 -41.001 -15.5s-33.834 -6.5 -54.501 -6.5h-362c-22.667 0 -42.167 4.5 -58.5 13.5s-29.666 20.5 -39.999 34.5
s-18 29.167 -23 45.5s-7.5 31.833 -7.5 46.5c0 18.667 3.66699 36.334 11 53.001s17.166 31.167 29.499 43.5s27 22 44 29s35.5 10.5 55.5 10.5c27.333 0 47 -2.33301 59 -7s22.667 -11 32 -19l-45 -80c-7.33301 4 -14.5 7.16699 -21.5 9.5s-15.167 3.5 -24.5 3.5
c-11.333 0 -21.833 -3.33301 -31.5 -10s-14.5 -17.667 -14.5 -33c0 -10.667 4.16699 -21.167 12.5 -31.5s20.5 -15.5 36.5 -15.5h330c25.333 0 44 2.33301 56 7s24 12 36 22c10 8 17.167 18.667 21.5 32s6.5 26.666 6.5 39.999v653c0 30 -6.16699 55.667 -18.5 77
s-27.666 40 -45.999 56s-38.333 30.833 -60 44.5s-41.667 28.334 -60 44.001s-33.666 33.5 -45.999 53.5s-18.5 44.333 -18.5 73c0 28 5 53.5 15 76.5s23.5 42.667 40.5 59s37 29 60 38s47.5 13.5 73.5 13.5c20.667 0 39.667 -2.83301 57 -8.5s32.666 -13.167 45.999 -22.5
s24.5 -20.166 33.5 -32.499s15.5 -25.166 19.5 -38.499l-78 -48c-6 16.667 -15.667 30.334 -29 41.001s-29.666 16 -48.999 16c-32 0 -56.167 -9 -72.5 -27s-24.5 -40.333 -24.5 -67c0 -17.333 6.16699 -32.5 18.5 -45.5s27.833 -26 46.5 -39l60 -41
c21.333 -14.333 41.333 -31.666 60 -51.999s34.167 -44.166 46.5 -71.499s18.5 -60.333 18.5 -99v-663zM480 -302.006l0.00292969 459.999c0 36.667 -6 68.334 -18 95.001s-27 48.834 -45 66.501s-37.833 30.667 -59.5 39s-42.167 12.5 -61.5 12.5
c-36.667 0 -67.334 -10.333 -92.001 -31s-40.667 -46 -48 -76c26.667 0 53.167 -3.83301 79.5 -11.5s49.166 -18.167 68.499 -31.5c37.333 -24 65.666 -53 84.999 -87s33.333 -73 42 -117c-19.333 -15.333 -40.833 -25.333 -64.5 -30s-47.167 -7 -70.5 -7
c-33.333 0 -64.5 6.33301 -93.5 19s-54.5 30 -76.5 52s-39.333 47.667 -52 77s-19 60.666 -19 93.999c0 30 5.83301 59.5 17.5 88.5s28.167 54.667 49.5 77s46.833 40.5 76.5 54.5s62.167 21 97.5 21c34.667 0 68.667 -6.16699 102 -18.5s63 -31 89 -56s46.833 -56 62.5 -93
s23.5 -80.167 23.5 -129.5v-468h-93zM330.003 74.9932c-9.33301 17.333 -19.5039 33.1689 -30.5039 47.502s-25.167 26.166 -42.5 35.499c-31.333 17.333 -66 26 -104 26c4 -16 10.333 -30.833 19 -44.5s19.334 -25.5 32.001 -35.5s26.834 -17.833 42.501 -23.5
s32.167 -8.5 49.5 -8.5c6.66699 0 12.334 0.166992 17.001 0.5s10.334 1.16602 17.001 2.49902z" />
    <glyph glyph-name="u104E" unicode="&#x104e;" horiz-adv-x="574" 
d="M427 -464l0.000976562 483.001c-20 -13.333 -41.167 -23.166 -63.5 -29.499s-44.833 -9.5 -67.5 -9.5c-33.333 0 -64.5 6.33301 -93.5 19s-54.5 30 -76.5 52s-39.333 47.667 -52 77s-19 60.666 -19 93.999c0 32.667 6.33301 63.667 19 93s30 55 52 77
s47.5 39.5 76.5 52.5s60.167 19.5 93.5 19.5c20 0 40.667 -2.5 62 -7.5s42 -12.833 62 -23.5s38.667 -24.5 56 -41.5s31.666 -37.167 42.999 -60.5l-82 -43c-18.667 30 -40 51.333 -64 64s-49.667 19 -77 19c-20 0 -39 -4 -57 -12s-33.667 -18.833 -47 -32.5
s-24 -29.5 -32 -47.5s-12 -37 -12 -57c0 -20.667 4 -40 12 -58s18.667 -33.833 32 -47.5s29 -24.5 47 -32.5s37 -12 57 -12c27.333 0 53 6.16699 77 18.5s45.333 34.166 64 65.499l82 -44v-576h-92z" />
    <glyph glyph-name="u104F" unicode="&#x104f;" horiz-adv-x="1015" 
d="M657 -5l0.00195312 308.999c0 23.333 -6 40.333 -18 51s-26.667 16 -44 16c-16.667 0 -30.834 -3.5 -42.501 -10.5s-21.5 -15.167 -29.5 -24.5c6.66699 -11.333 12 -24 16 -38c-32 -23.333 -62.333 -39.166 -91 -47.499s-57 -12.5 -85 -12.5c-41.333 0 -76.5 8 -105.5 24
s-53.833 35.333 -74.5 58c-23.333 -29.333 -35 -62 -35 -98c0 -17.333 3 -34.5 9 -51.5s14.667 -32.833 26 -47.5c20 23.333 45 43 75 59s65.333 24 106 24c28.667 0 58.5 -4.83301 89.5 -14.5s59.5 -25.167 85.5 -46.5c-5.33301 -24 -14.833 -46 -28.5 -66
s-30.667 -37.333 -51 -52s-43.5 -26.167 -69.5 -34.5s-54 -12.5 -84 -12.5c-40.667 0 -76.667 7.16699 -108 21.5s-57.5 33 -78.5 56s-37 48.833 -48 77.5s-16.5 57.667 -16.5 87c0 28.667 5.5 57.5 16.5 86.5s27 55 48 78s47.167 41.667 78.5 56s67.333 21.5 108 21.5
c29.333 0 57.333 -4.16699 84 -12.5s51.334 -21.5 74.001 -39.5c19.333 19.333 39.166 32.833 59.499 40.5s44.166 11.5 71.499 11.5c20.667 0 40.334 -3.33301 59.001 -10s35.167 -16.667 49.5 -30s25.666 -30 33.999 -50s12.5 -43.333 12.5 -70v-309h-93z
M861.002 -5.00098l0.00195312 391.001c0 28.667 -6.16699 53.167 -18.5 73.5s-27.833 38.666 -46.5 54.999s-38.667 31.5 -60 45.5s-41.333 29 -60 45s-34.167 34 -46.5 54s-18.5 44 -18.5 72s5 53.5 15 76.5s23.5 42.667 40.5 59s37 29 60 38s47.5 13.5 73.5 13.5
c40 0 73.5 -9.5 100.5 -28.5s45.833 -43.5 56.5 -73.5l-78 -48c-7.33301 18 -17.5 32 -30.5 42s-29.167 15 -48.5 15c-32 0 -56 -9 -72 -27s-24 -40.333 -24 -67c0 -16.667 6.16699 -31.5 18.5 -44.5s27.666 -26 45.999 -39l60 -42c21.667 -15 41.667 -32.5 60 -52.5
s33.666 -43.5 45.999 -70.5s18.5 -59.167 18.5 -96.5v-391h-92zM430.004 123c-13.333 5.33301 -24.833 8.99902 -34.5 10.999s-20.167 3 -31.5 3c-28 0 -51 -5.16699 -69 -15.5s-34.667 -25.166 -50 -44.499c20 -6 40.333 -9 61 -9c21.333 0 43.833 4.66699 67.5 14
s42.5 23 56.5 41zM429.004 319.999c-16 19.333 -36 33.502 -60 42.502s-45 13.5 -63 13.5c-12 0 -22.667 -0.833008 -32 -2.5s-19 -4.83398 -29 -9.50098c14 -16.667 30.167 -30.334 48.5 -41.001s41.5 -16 69.5 -16c11.333 0 22.333 0.833008 33 2.5
s21.667 5.16699 33 10.5z" />
    <glyph glyph-name="u1050" unicode="&#x1050;" horiz-adv-x="595" 
d="M540 205c0 -50.667 -7.00098 -93.667 -21.001 -129s-38 -67.333 -72 -96l-54 76c9.33301 10.667 17.333 21 24 31s12.167 20.5 16.5 31.5s7.5 23.5 9.5 37.5s3 30.333 3 49c0 22 -3.5 42.833 -10.5 62.5s-17 37.167 -30 52.5s-28.667 27.5 -47 36.5
s-38.833 13.5 -61.5 13.5s-43.167 -4.5 -61.5 -13.5s-34 -21.167 -47 -36.5s-23 -32.833 -30 -52.5s-10.5 -40.5 -10.5 -62.5c0 -18.667 1 -35 3 -49s5.16699 -26.5 9.5 -37.5s9.83301 -21.5 16.5 -31.5s14.667 -20.333 24 -31l-53 -76c-34 28.667 -58 60.667 -72 96
s-21 78.333 -21 129c0 36 6.16699 69.667 18.5 101s29.333 58.666 51 81.999s47.334 41.666 77.001 54.999s61.5 20 95.5 20s65.833 -6.66699 95.5 -20s55.5 -31.666 77.5 -54.999s39.167 -50.666 51.5 -81.999s18.5 -65 18.5 -101zM371.999 205
c0 -20 -7.16895 -37.501 -21.502 -52.501s-32.166 -22.5 -53.499 -22.5c-20 0 -37.167 7.33301 -51.5 22s-21.5 32.334 -21.5 53.001c0 21.333 7.16699 39.333 21.5 54s31.5 22 51.5 22c20.667 0 38.334 -7.33301 53.001 -22s22 -32.667 22 -54zM317.997 204.999
c0 6 -2 11 -6 15s-9 6 -15 6s-11 -2 -15 -6s-6 -9 -6 -15s2 -11 6 -15s9 -6 15 -6s11 2 15 6s6 9 6 15z" />
    <glyph glyph-name="u1051" unicode="&#x1051;" horiz-adv-x="595" 
d="M540 237c0 -36 -6.16602 -69.5 -18.499 -100.5s-29.5 -58.167 -51.5 -81.5s-47.833 -41.666 -77.5 -54.999s-61.5 -20 -95.5 -20s-65.833 6.66699 -95.5 20s-55.334 31.666 -77.001 54.999s-38.667 50.5 -51 81.5s-18.5 64.5 -18.5 100.5c0 50.667 7 93.834 21 129.501
s38 67.834 72 96.501l53 -76c-9.33301 -10.667 -17.333 -21 -24 -31s-12.167 -20.667 -16.5 -32s-7.5 -24 -9.5 -38s-3 -30.333 -3 -49c0 -21.333 3.5 -42 10.5 -62s17 -37.667 30 -53s28.667 -27.5 47 -36.5s38.833 -13.5 61.5 -13.5s43.167 4.5 61.5 13.5
s34 21.167 47 36.5s23 33 30 53s10.5 40.667 10.5 62c0 18.667 -1 35 -3 49s-5.16699 26.667 -9.5 38s-9.83301 22 -16.5 32s-14.667 20.333 -24 31l54 76c34 -28.667 58 -60.834 72 -96.501s21 -78.834 21 -129.501zM372.001 237c0 -20 -7.16895 -37.501 -21.502 -52.501
s-32.166 -22.5 -53.499 -22.5c-20 0 -37.167 7.33301 -51.5 22s-21.5 32.334 -21.5 53.001c0 21.333 7.16699 39.333 21.5 54s31.5 22 51.5 22c20.667 0 38.334 -7.33301 53.001 -22s22 -32.667 22 -54zM317.999 236.999c0 6 -2 11 -6 15s-9 6 -15 6s-11 -2 -15 -6
s-6 -9 -6 -15s2 -11 6 -15s9 -6 15 -6s11 2 15 6s6 9 6 15z" />
    <glyph glyph-name="u1052" unicode="&#x1052;" horiz-adv-x="587" 
d="M532 167c0 -21.333 -5.50098 -43.0029 -16.501 -65.0029s-26.667 -42 -47 -60s-45 -32.833 -74 -44.5s-61.5 -17.5 -97.5 -17.5c-32 0 -62.667 6.33301 -92 19s-55.166 30.334 -77.499 53.001s-40 50 -53 82s-19.5 67.333 -19.5 106c0 54.667 8.16699 100 24.5 136
s39.166 65 68.499 87l53 -76c-18.667 -18.667 -32.167 -40.334 -40.5 -65.001s-12.5 -52 -12.5 -82s5 -55.667 15 -77s22.333 -38.666 37 -51.999s30.667 -23.166 48 -29.499s33.666 -9.5 48.999 -9.5c23.333 0 43.833 3.5 61.5 10.5s32.5 15.5 44.5 25.5s21 20.5 27 31.5
s9 20.167 9 27.5c0 18.667 -6.66699 33.334 -20 44.001s-28 21.167 -44 31.5s-30.667 22.666 -44 36.999s-20 34.833 -20 61.5c0 20.667 3.33301 38.667 10 54s15.667 28 27 38s24.333 17.5 39 22.5s30.334 7.5 47.001 7.5c20.667 0 40 -5.33301 58 -16
s31.333 -24.334 40 -41.001l-70 -43c-2.66699 4.66699 -6.5 8.66699 -11.5 12s-10.5 5 -16.5 5c-11.333 0 -20.666 -2.66699 -27.999 -8s-11 -15.666 -11 -30.999c0 -9.33301 3.33301 -16.666 10 -21.999s15.167 -10.5 25.5 -15.5l33 -16
c11.667 -5.66699 22.667 -13.5 33 -23.5s18.833 -22.667 25.5 -38s10 -35 10 -59z" />
    <glyph glyph-name="u1053" unicode="&#x1053;" horiz-adv-x="662" 
d="M546 353c-4 5.33301 -9.16602 11.167 -15.499 17.5s-15.5 9.5 -27.5 9.5c-9.33301 0 -17.666 -3 -24.999 -9s-11 -16 -11 -30c0 -12 5.16699 -22 15.5 -30s21.666 -17.5 33.999 -28.5s23.666 -25.333 33.999 -43s15.5 -41.834 15.5 -72.501c0 -21.333 -5.5 -43 -16.5 -65
s-26.833 -42 -47.5 -60s-45.5 -32.833 -74.5 -44.5s-61.5 -17.5 -97.5 -17.5s-68.5 5.83301 -97.5 17.5s-53.667 26.5 -74 44.5s-36 38 -47 60s-16.5 43.667 -16.5 65c0 30.667 5.16699 54.5 15.5 71.5s21.666 30.833 33.999 41.5s23.666 20 33.999 28s15.5 19 15.5 33
s-3.66699 24 -11 30s-15.666 9 -24.999 9c-11.333 0 -20.333 -3.16699 -27 -9.5s-11.667 -12.166 -15 -17.499l-61 53c9.33301 14.667 22.333 27.834 39 39.501s36.334 17.5 59.001 17.5c16.667 0 32.334 -2.5 47.001 -7.5s27.667 -12.5 39 -22.5s20.333 -22.667 27 -38
s10 -33.333 10 -54c0 -26.667 -4.66699 -47.167 -14 -61.5s-19.5 -26.666 -30.5 -36.999s-21.167 -20.833 -30.5 -31.5s-14 -25.334 -14 -44.001c0 -7.33301 3 -16.5 9 -27.5s15 -21.5 27 -31.5s27 -18.5 45 -25.5s38.667 -10.5 62 -10.5s43.833 3.5 61.5 10.5
s32.5 15.5 44.5 25.5s21.167 20.5 27.5 31.5s9.5 20.167 9.5 27.5c0 18.667 -4.66699 33.667 -14 45s-19.5 22.333 -30.5 33s-21 23.167 -30 37.5s-13.5 33.833 -13.5 58.5c0 20.667 3.33301 38.667 10 54s15.667 28 27 38s24.333 17.5 39 22.5s30.334 7.5 47.001 7.5
c23.333 0 43.166 -5.83301 59.499 -17.5s29.166 -24.834 38.499 -39.501z" />
    <glyph glyph-name="u1054" unicode="&#x1054;" horiz-adv-x="592" 
d="M535 265c-38 -23.333 -72.1641 -39.168 -102.497 -47.501s-56.5 -12.5 -78.5 -12.5c-14.667 0 -30.334 1.83301 -47.001 5.5s-33.167 9.16699 -49.5 16.5s-32.166 16.333 -47.499 27s-29 23 -41 37c-14 -21.333 -21 -44.666 -21 -69.999
c0 -17.333 3.33301 -34.833 10 -52.5s16.334 -33.667 29.001 -48s28.167 -26 46.5 -35s39.166 -13.5 62.499 -13.5c57.333 0 104.333 28 141 84l80 -44c-11.333 -23.333 -25.333 -43.166 -42 -59.499s-35 -30 -55 -41s-40.667 -19 -62 -24s-42 -7.5 -62 -7.5
c-36.667 0 -69.834 7.16699 -99.501 21.5s-55 33 -76 56s-37.167 48.833 -48.5 77.5s-17 57.334 -17 86.001c0 32 5.83301 62.667 17.5 92s28.167 55.166 49.5 77.499s46.833 40.166 76.5 53.499s62.167 20 97.5 20c30.667 0 60.167 -5.33301 88.5 -16
s53.666 -25.167 75.999 -43.5s40.166 -39.5 53.499 -63.5s20.333 -49.333 21 -76zM432.003 298.998c-20.667 28 -43.1689 47 -67.502 57s-47.166 15 -68.499 15c-14 0 -27 -1.66699 -39 -5s-23.667 -8 -35 -14c15.333 -20.667 34.333 -37.167 57 -49.5
s47.334 -18.5 74.001 -18.5c11.333 0 23.5 1 36.5 3s27.167 6 42.5 12z" />
    <glyph glyph-name="u1055" unicode="&#x1055;" horiz-adv-x="592" 
d="M535 265c-36 -22.667 -69.334 -38.166 -100.001 -46.499s-57.667 -12.5 -81 -12.5c-30 0 -62.167 7 -96.5 21s-63.833 35.333 -88.5 64c-6.66699 -9.33301 -11.834 -19.5 -15.501 -30.5s-5.5 -24.167 -5.5 -39.5c0 -14 1.83301 -29.167 5.5 -45.5
s8.83398 -31.833 15.501 -46.5s14.5 -26.834 23.5 -36.501s19.167 -14.5 30.5 -14.5c5.33301 0 10.5 3.5 15.5 10.5l16.5 24c6 9 13 17.167 21 24.5s18 11 30 11s22 -3.66699 30 -11s15 -15.333 21 -24l16.5 -24c5 -7.33301 10.167 -11 15.5 -11c11.333 0 21.333 6 30 18
s17 26.667 25 44l78 -39c-6.66699 -14.667 -14.334 -28.834 -23.001 -42.501s-18.667 -26 -30 -37s-23.666 -19.833 -36.999 -26.5s-27.666 -10 -42.999 -10c-14 0 -25.5 3.66699 -34.5 11s-16.5 15.333 -22.5 24s-10.833 16.667 -14.5 24s-7.5 11 -11.5 11
s-7.83301 -3.66699 -11.5 -11s-8.5 -15.333 -14.5 -24s-13.5 -16.667 -22.5 -24s-20.5 -11 -34.5 -11c-26.667 0 -50.334 7.83301 -71.001 23.5s-38.167 35.167 -52.5 58.5s-25.333 48.833 -33 76.5s-11.5 53.5 -11.5 77.5c0 30.667 5.83301 60.667 17.5 90
s28.167 55.333 49.5 78s46.833 40.834 76.5 54.501s62.167 20.5 97.5 20.5c32 0 62.333 -5.33301 91 -16s53.834 -25.167 75.501 -43.5s39 -39.5 52 -63.5s19.833 -49.333 20.5 -76zM431.999 299.001c-20.667 28 -43.166 47 -67.499 57s-47.166 15 -68.499 15
c-14 0 -27 -1.66699 -39 -5s-23.667 -8 -35 -14c15.333 -21.333 34.166 -38 56.499 -50s47.166 -18 74.499 -18c11.333 0 23.5 1 36.5 3s27.167 6 42.5 12z" />
    <glyph glyph-name="u1056" unicode="&#x1056;" horiz-adv-x="526" 
d="M471 157c0 -32 -5.99707 -59.3359 -17.9971 -82.0029s-27.833 -41 -47.5 -55s-41.667 -24.167 -66 -30.5s-48.833 -9.5 -73.5 -9.5c-13.333 0 -29.5 2.33301 -48.5 7s-38.5 12.334 -58.5 23.001s-39.167 25 -57.5 43s-33.833 40.667 -46.5 68l76 55
c8 -18.667 17.667 -34.667 29 -48s23.166 -24.166 35.499 -32.499s24.5 -14.333 36.5 -18s23 -5.5 33 -5.5c12 0 24.5 1 37.5 3s25.167 6.16699 36.5 12.5s20.666 15 27.999 26s11 25.5 11 43.5c0 12.667 -4.83301 23.334 -14.5 32.001s-21.667 16.667 -36 24
s-29.833 14.833 -46.5 22.5s-32.167 16.667 -46.5 27s-26.333 22.5 -36 36.5s-14.5 31.667 -14.5 53c0 18.667 4 35 12 49s18 25.667 30 35s24.833 16.333 38.5 21s26.5 7 38.5 7c22 0 42.833 -3.33301 62.5 -10s41.834 -22.334 66.501 -47.001l-50 -64
c-16 16.667 -30.5 27.167 -43.5 31.5s-24.833 6.5 -35.5 6.5c-5.33301 0 -11 -2.33301 -17 -7s-9 -12 -9 -22c1.33301 -6.66699 7.16602 -13 17.499 -19s22.666 -12.667 36.999 -20l46 -24c16.333 -8.66699 31.5 -19.167 45.5 -31.5s25.5 -26.666 34.5 -42.999
s13.5 -35.5 13.5 -57.5z" />
    <glyph glyph-name="u1057" unicode="&#x1057;" horiz-adv-x="511" 
d="M474 157c0 -18 -2.66602 -37.002 -7.99902 -57.002s-13.166 -38.5 -23.499 -55.5s-23.166 -31.167 -38.499 -42.5s-33 -17 -53 -17c-14 0 -25.5 3.66699 -34.5 11s-16.5 15.333 -22.5 24s-10.833 16.667 -14.5 24s-7.5 11 -11.5 11s-7.83301 -3.66699 -11.5 -11
s-8.5 -15.333 -14.5 -24s-13.5 -16.667 -22.5 -24s-20.5 -11 -34.5 -11c-24 0 -46.833 8.83301 -68.5 26.5s-43.167 47.5 -64.5 89.5l78 39c17.333 -41.333 35.666 -62 54.999 -62c5.33301 0 10.5 3.66699 15.5 11l16.5 24c6 8.66699 13 16.667 21 24s18 11 30 11
s22 -3.66699 30 -11s15 -15.333 21 -24l16.5 -24c5 -7.33301 10.167 -11 15.5 -11c4.66699 0 8.83398 2.33301 12.501 7s6.83398 10.834 9.50098 18.501s4.66699 16.167 6 25.5s2 18.666 2 27.999c0 12.667 -4.83301 23.334 -14.5 32.001s-21.667 16.667 -36 24
s-29.833 14.833 -46.5 22.5s-32.167 16.667 -46.5 27s-26.333 22.5 -36 36.5s-14.5 31.667 -14.5 53c0 18.667 4 35 12 49s18 25.667 30 35s24.833 16.333 38.5 21s26.5 7 38.5 7c11.333 0 22.166 -0.666992 32.499 -2s20.5 -4 30.5 -8s20.5 -9.66699 31.5 -17
s22.5 -17.333 34.5 -30l-49 -64c-17.333 16.667 -32.333 27.167 -45 31.5s-24.334 6.5 -35.001 6.5c-5.33301 0 -11 -2.33301 -17 -7s-9 -12 -9 -22c1.33301 -6.66699 7.16602 -13 17.499 -19s22.666 -12.667 36.999 -20l46 -24c16.333 -8.66699 31.5 -19.167 45.5 -31.5
s25.5 -26.666 34.5 -42.999s13.5 -35.5 13.5 -57.5z" />
    <glyph glyph-name="u1058" unicode="&#x1058;" horiz-adv-x="2" 
d="M-110 -244c-28 -18 -53.667 -30.332 -77 -36.999s-43.666 -10 -60.999 -10c-10.667 0 -22.5 1.5 -35.5 4.5s-26 7.33301 -39 13s-25.5 12.667 -37.5 21s-22.333 18.166 -31 29.499c-12 -17.333 -18 -35.333 -18 -54c0 -13.333 2.5 -26.833 7.5 -40.5
s12.333 -26.167 22 -37.5s21.667 -20.5 36 -27.5s30.5 -10.5 48.5 -10.5c20.667 0 40.834 5.16699 60.501 15.5s36.167 26.833 49.5 49.5l61 -34c-8.66699 -18 -19.834 -33.5 -33.501 -46.5s-28.334 -23.5 -44.001 -31.5s-31.667 -14 -48 -18s-31.5 -6 -45.5 -6
c-28 0 -53.5 5.5 -76.5 16.5s-42.5 25.333 -58.5 43s-28.333 37.667 -37 60s-13 44.833 -13 67.5c0 24.667 4.5 48.334 13.5 71.001s21.667 42.667 38 60s35.833 31 58.5 41s47.667 15 75 15c22.667 0 45 -4.16699 67 -12.5s41.667 -19.5 59 -33.5s31.5 -30.333 42.5 -49
s16.5 -38.334 16.5 -59.001zM-189 -217.999c-14.667 21.333 -32.001 36.167 -52.001 44.5s-38 12.5 -54 12.5c-20 0 -39 -5.33301 -57 -16c10 -15.333 24.5 -28.333 43.5 -39s39.167 -16 60.5 -16c18.667 0 38.334 4.66699 59.001 14z" />
    <glyph glyph-name="u1059" unicode="&#x1059;" horiz-adv-x="2" 
d="M-112 -243c-28 -17.333 -53.834 -29.167 -77.501 -35.5s-44.167 -9.5 -61.5 -9.5c-23.333 0 -48.166 5.33301 -74.499 16s-49.166 27.334 -68.499 50.001c-10.667 -17.333 -16 -35.333 -16 -54c0 -7.33301 1.16699 -17.166 3.5 -29.499s6 -24.5 11 -36.5
s11 -22.5 18 -31.5s15.5 -13.5 25.5 -13.5c4 0 8 2.83301 12 8.5l13 18.5c4.66699 6.66699 10 12.834 16 18.501s13.667 8.5 23 8.5c8.66699 0 16.167 -2.83301 22.5 -8.5s11.833 -11.834 16.5 -18.501l12.5 -18.5c3.66699 -5.66699 7.5 -8.5 11.5 -8.5
c9.33301 0 17.833 6 25.5 18s14.5 24.667 20.5 38l59 -31c-5.33301 -11.333 -11.333 -22.833 -18 -34.5s-14.5 -22.167 -23.5 -31.5s-18.833 -16.833 -29.5 -22.5s-22 -8.5 -34 -8.5c-10.667 0 -19.334 2.83301 -26.001 8.5s-12.334 12 -17.001 19s-8.5 13.333 -11.5 19
s-5.83301 8.5 -8.5 8.5c-3.33301 0 -6.5 -2.83301 -9.5 -8.5s-6.66699 -12 -11 -19s-10 -13.333 -17 -19s-15.833 -8.5 -26.5 -8.5c-20 0 -38.167 6 -54.5 18s-30 27.167 -41 45.5s-19.5 38.166 -25.5 59.499s-9 41.333 -9 60c0 23.333 4.5 46.166 13.5 68.499
s21.833 42.333 38.5 60s36.334 31.834 59.001 42.501s47.667 16 75 16c24.667 0 48.167 -4.16699 70.5 -12.5s41.833 -19.5 58.5 -33.5s30 -30.333 40 -49s15 -38.334 15 -59.001zM-191.001 -216.001c-16 21.333 -33.498 35.833 -52.498 43.5s-36.5 11.5 -52.5 11.5
c-20.667 0 -39.334 -4.66699 -56.001 -14c11.333 -16 25.666 -28.667 42.999 -38s36.666 -14 57.999 -14c8.66699 0 17.834 0.666992 27.501 2s20.5 4.33301 32.5 9z" />
    <glyph glyph-name="u105A" unicode="&#x105a;" horiz-adv-x="574" 
d="M519 112c-11.333 -23.333 -25.666 -43.3311 -42.999 -59.998s-36 -30.334 -56 -41.001s-40.667 -18.5 -62 -23.5s-42 -7.5 -62 -7.5c-33.333 0 -64.5 6.33301 -93.5 19s-54.5 30 -76.5 52s-39.333 47.667 -52 77s-19 60.666 -19 93.999c0 32.667 6.33301 63.667 19 93
s30 55 52 77s47.5 39.5 76.5 52.5s60.167 19.5 93.5 19.5c20 0 40.667 -2.5 62 -7.5s42 -12.833 62 -23.5s38.667 -24.5 56 -41.5s31.666 -37.167 42.999 -60.5l-82 -43c-18.667 30 -40.5 51.333 -65.5 64s-50.167 19 -75.5 19c-20 0 -39 -4 -57 -12
s-33.667 -18.833 -47 -32.5s-24 -29.5 -32 -47.5s-12 -37 -12 -57c0 -20.667 4 -40 12 -58s18.667 -33.833 32 -47.5s29 -24.5 47 -32.5s37 -12 57 -12c25.333 0 50.333 6 75 18s46.667 34 66 66zM387 -188.998c0 -13.333 -5 -27.5 -15 -42.5s-21 -29.833 -33 -44.5
l-33 -41.5c-10 -13 -15 -24.167 -15 -33.5c0 -7.33301 2 -12.833 6 -16.5s9 -5.5 15 -5.5c7.33301 0 14 1.66699 20 5s11 6.66602 15 9.99902l26 -68c-17.333 -14 -37.666 -21 -60.999 -21c-9.33301 0 -19.5 1.33301 -30.5 4s-21.333 7.5 -31 14.5
s-17.834 16.833 -24.501 29.5s-10 28.667 -10 48c0 16.667 5 33.167 15 49.5s21.167 31.666 33.5 45.999l33.5 39c10 11.667 15 20.834 15 27.501c0 9.33301 -2.5 16.333 -7.5 21s-11.5 7 -19.5 7c-9.33301 0 -17 -4 -23 -12s-9 -17.667 -9 -29h-74
c0 13.333 2.33301 27 7 41s11.5 26.5 20.5 37.5s20.167 20 33.5 27s28.333 10.5 45 10.5c11.333 0 23 -1.66699 35 -5s22.833 -9 32.5 -17s17.667 -18.667 24 -32s9.5 -29.666 9.5 -48.999z" />
    <glyph glyph-name="u105B" unicode="&#x105b;" horiz-adv-x="780" 
d="M332 -371l0.00390625 353.997c-12 -2 -25 -3 -39 -3c-32.667 0 -63.334 6.33301 -92.001 19s-53.834 30 -75.501 52s-38.834 47.667 -51.501 77s-19 60.666 -19 93.999c0 32.667 6.5 63.667 19.5 93s30.5 55 52.5 77s47.333 39.5 76 52.5s58.667 19.5 90 19.5
c26 0 51.333 -3.66699 76 -11s46.834 -18.166 66.501 -32.499s36 -32.166 49 -53.499s21.167 -46.333 24.5 -75c14.667 -17.333 28.667 -37.166 42 -59.499s27.666 -49.166 42.999 -80.499l-67 -49l-23 42l-24 41c-13.333 -15.333 -29 -26.333 -47 -33s-36.667 -10 -56 -10
c-14.667 0 -28.834 2.33301 -42.501 7s-25.667 11.167 -36 19.5s-18.666 18.666 -24.999 30.999s-9.5 26.5 -9.5 42.5c0 23.333 7.33301 45 22 65s38 32.333 70 37c8 0 15.333 -1.66699 22 -5c-8.66699 9.33301 -19.834 17.333 -33.501 24s-30.5 10 -50.5 10
c-18.667 0 -36.834 -4.16699 -54.501 -12.5s-33.167 -19.5 -46.5 -33.5s-24.166 -30.167 -32.499 -48.5s-12.5 -37.5 -12.5 -57.5c0 -20.667 3.83301 -40.167 11.5 -58.5s18 -34.166 31 -47.499s28.333 -24 46 -32s36.5 -12 56.5 -12c26.667 0 49.167 3.33301 67.5 10
s34.833 15.667 49.5 27l65 -66c-16.667 -16 -33.667 -28.667 -51 -38v-303l208 -46v788h93v-908zM432.004 251.997c-9.33301 10 -17.999 16.5 -25.999 19.5s-19 4.5 -33 4.5c-10.667 0 -19.334 -2.66699 -26.001 -8s-10 -13.666 -10 -24.999c0 -10 4.66699 -17 14 -21
s18 -6 26 -6c14 0 26.167 2.66699 36.5 8s16.5 14.666 18.5 27.999z" />
    <glyph glyph-name="u105C" unicode="&#x105c;" horiz-adv-x="591" 
d="M536 221c0 -33.333 -6.33301 -64.666 -19 -93.999s-29.834 -55 -51.501 -77s-47 -39.333 -76 -52s-59.833 -19 -92.5 -19c-33.333 0 -64.666 6.33301 -93.999 19s-55 30 -77 52s-39.333 47.667 -52 77s-19 60.666 -19 93.999s6.33301 64.833 19 94.5s30 55.5 52 77.5
s47.5 39.333 76.5 52s59.833 19 92.5 19c33.333 0 64.666 -6.33301 93.999 -19s54.833 -30 76.5 -52s38.834 -47.833 51.501 -77.5s19 -61.167 19 -94.5zM451 221c0 22 -3.99902 42.5 -11.999 61.5s-19 35.667 -33 50s-30.333 25.666 -49 33.999s-38.667 12.5 -60 12.5
s-41.5 -4.16699 -60.5 -12.5s-35.5 -19.666 -49.5 -33.999s-25 -31 -33 -50s-12 -39.5 -12 -61.5c0 -21.333 4 -41.5 12 -60.5s19 -35.5 33 -49.5s30.167 -25 48.5 -33s38.166 -12 59.499 -12c22 0 42.5 4 61.5 12s35.5 19 49.5 33s25 30.5 33 49.5s12 39.167 12 60.5z
M371.001 221c0 -20.667 -7.33301 -38.334 -22 -53.001s-32 -22 -52 -22s-37.333 7.33301 -52 22s-22 32.334 -22 53.001c0 21.333 7.33301 39.333 22 54s32 22 52 22s37.333 -7.33301 52 -22s22 -32.667 22 -54zM318.001 221c0 6 -2.16699 11 -6.5 15s-9.16602 6 -14.499 6
c-6 0 -11.167 -2 -15.5 -6s-6.5 -9 -6.5 -15s2.16699 -11 6.5 -15s9.5 -6 15.5 -6c5.33301 0 10.166 2 14.499 6s6.5 9 6.5 15z" />
    <glyph glyph-name="u105D" unicode="&#x105d;" horiz-adv-x="594" 
d="M539 -270c0 -28 -4.99805 -53.8311 -14.998 -77.498s-23.5 -44.167 -40.5 -61.5s-36.833 -30.833 -59.5 -40.5s-46.667 -14.5 -72 -14.5h-135c-22.667 0 -42 4.5 -58 13.5s-29.167 20.5 -39.5 34.5s-18 29.167 -23 45.5s-7.5 31.833 -7.5 46.5
c0 18.667 3.5 36.334 10.5 53.001s16.833 31.167 29.5 43.5s27.5 22 44.5 29s35.5 10.5 55.5 10.5c37.333 0 68 -8.66699 92 -26l-45 -80c-8 4.66699 -15.667 8.16699 -23 10.5s-15.333 3.5 -24 3.5c-11.333 0 -22 -3.5 -32 -10.5s-15 -18.167 -15 -33.5
c0 -10.667 4 -21.167 12 -31.5s21.667 -15.5 41 -15.5h101c40 0 68.333 10.333 85 31s25 47.667 25 81v292c-15.333 -16 -35.333 -28.833 -60 -38.5s-54.334 -14.5 -89.001 -14.5c-34 0 -65.833 6.66699 -95.5 20s-55.334 31.666 -77.001 54.999s-38.667 50.666 -51 81.999
s-18.5 65 -18.5 101c0 50 7.16699 92.667 21.5 128s38.166 67.666 71.499 96.999l53 -76c-10 -11.333 -18.333 -22.333 -25 -33s-12.167 -21.834 -16.5 -33.501s-7.33301 -24.334 -9 -38.001s-2.5 -29.167 -2.5 -46.5c0 -9.33301 1.66699 -20 5 -32
c21.333 16.667 44.5 28.834 69.5 36.501s49.833 11.5 74.5 11.5s49.334 -3.83301 74.001 -11.5s48 -20.167 70 -37.5c2 5.33301 3.33301 10.666 4 15.999s1 10.666 1 15.999c0 17.333 -0.833008 32.833 -2.5 46.5s-4.66699 26.334 -9 38.001s-9.83301 22.834 -16.5 33.501
s-15 22 -25 34l54 76c33.333 -29.333 57 -61.666 71 -96.999s21 -78 21 -128v-508zM412.002 129.002c-18.667 16 -37.667 27.333 -57 34s-38.666 10 -57.999 10c-17.333 0 -35.833 -3.33301 -55.5 -10s-38.834 -18 -57.501 -34c12.667 -17.333 28.667 -31.166 48 -41.499
s41 -15.5 65 -15.5c25.333 0 47.333 5.16699 66 15.5s35 24.166 49 41.499z" />
    <glyph glyph-name="u105E" unicode="&#x105e;" 
d="M29 -318c-14 12 -27.999 20.832 -41.999 26.499s-28 9.83398 -42 12.501v-75c0 -38 -6.66699 -65.833 -20 -83.5s-38.333 -26.5 -75 -26.5c-6 0 -16.833 1.66699 -32.5 5s-31.667 9.83301 -48 19.5s-31 23.334 -44 41.001s-19.5 41.167 -19.5 70.5
c0 27.333 6.16699 49.166 18.5 65.499s27.166 28.833 44.499 37.5s35.333 14.5 54 17.5s34.334 5.16699 47.001 6.5v100h75v-103c21.333 -4 41.166 -10.5 59.499 -19.5s37.833 -24.167 58.5 -45.5zM-129.999 -274.001c-8 0 -17.167 -1 -27.5 -3s-20 -5.16699 -29 -9.5
s-16.667 -9.83301 -23 -16.5s-9.5 -15 -9.5 -25c0 -9.33301 2.5 -17.666 7.5 -24.999s11 -13.5 18 -18.5s14.5 -8.66699 22.5 -11s15 -3.5 21 -3.5c9.33301 0 15 2.16699 17 6.5s3 10.166 3 17.499v88z" />
    <glyph glyph-name="u105F" unicode="&#x105f;" 
d="M60 -395c-25.333 -26.667 -51.834 -44.833 -79.501 -54.5s-56.167 -14.5 -85.5 -14.5c-14 0 -31.667 1.33301 -53 4s-42 8.66699 -62 18s-37.333 23 -52 41s-22 42.333 -22 73c0 26.667 5.83301 48.167 17.5 64.5s26 29 43 38s35 15.167 54 18.5s35.5 5.33301 49.5 6v100
h75v-177c-11.333 3.33301 -28 5 -50 5c-12.667 0 -25.667 -0.833008 -39 -2.5s-25.5 -4.66699 -36.5 -9s-20.167 -10 -27.5 -17s-11 -15.833 -11 -26.5c0 -12 3.16699 -22 9.5 -30s14.833 -14.167 25.5 -18.5s22.834 -7.5 36.501 -9.5s27.834 -3 42.501 -3
c20.667 0 43.167 3.5 67.5 10.5s45.166 18.167 62.499 33.5l35 -50v0z" />
    <glyph glyph-name="u1060" unicode="&#x1060;" 
d="M-418 -464l203 369h102l-150 -276h208v-93h-363z" />
    <glyph glyph-name="u1061" unicode="&#x1061;" horiz-adv-x="628" 
d="M480 -464l0.000976562 624.001c0 36.667 -6 68.167 -18 94.5s-27 48.166 -45 65.499s-37.833 30.166 -59.5 38.499s-42.167 12.5 -61.5 12.5c-18 0 -34.833 -2.83301 -50.5 -8.5s-29.5 -13.334 -41.5 -23.001s-22.167 -21 -30.5 -34s-14.166 -26.833 -17.499 -41.5
c26.667 0 53 -3.83301 79 -11.5s49 -18.167 69 -31.5c36 -23.333 64.167 -52 84.5 -86s34.5 -73.333 42.5 -118c-18.667 -13.333 -39 -22.833 -61 -28.5s-46.667 -8.5 -74 -8.5c-32.667 0 -63.667 6.33301 -93 19s-55 30 -77 52s-39.333 47.667 -52 77
s-19 60.666 -19 93.999c0 30.667 6 60.334 18 89.001s28.667 54.334 50 77.001s46.666 40.834 75.999 54.501s61.666 20.5 96.999 20.5c34.667 0 68.667 -6.16699 102 -18.5s63 -30.833 89 -55.5s46.833 -55.5 62.5 -92.5s23.5 -79.833 23.5 -128.5v-632h-93z
M330.001 77.001c-8.66699 16.667 -18.498 31.999 -29.498 45.999s-25.5 25.667 -43.5 35c-16 8.66699 -32.667 15.334 -50 20.001s-35.333 7 -54 7c7.33301 -33.333 24.166 -60.166 50.499 -80.499s57.166 -30.5 92.499 -30.5c8 0 14.333 0.166992 19 0.5
s9.66699 1.16602 15 2.49902zM230.003 -464v83h88v280h84v-363h-172z" />
    <glyph glyph-name="u1062" unicode="&#x1062;" horiz-adv-x="312" 
d="M169 0v351h-129v93h216v-444h-87z" />
    <glyph glyph-name="u1063" unicode="&#x1063;" horiz-adv-x="574" 
d="M519 222c0 -33.333 -6.33691 -64.665 -19.0039 -93.998s-30 -55 -52 -77s-47.667 -39.333 -77 -52s-60.333 -19 -93 -19c-22 0 -44.333 3.16699 -67 9.5s-44 16.166 -64 29.499v-483h-92v578l82 42c18.667 -30.667 39.834 -52.334 63.501 -65.001s49.5 -19 77.5 -19
c20 0 39 4 57 12s33.667 18.833 47 32.5s24 29.5 32 47.5s12 37.333 12 58c0 20 -4 39 -12 57s-18.667 33.833 -32 47.5s-29 24.5 -47 32.5s-37 12 -57 12c-28 0 -54 -6.5 -78 -19.5s-45 -34.167 -63 -63.5l-82 43c10.667 22 24.334 41.333 41.001 58
s34.834 30.5 54.501 41.5s40.334 19.333 62.001 25s43.5 8.5 65.5 8.5c32.667 0 63.667 -6.5 93 -19.5s55 -30.5 77 -52.5s39.333 -47.667 52 -77s19 -60.333 19 -93z" />
    <glyph glyph-name="u1064" unicode="&#x1064;" horiz-adv-x="426" 
d="M169 0v351h-129v93h216v-351h130v-93h-217z" />
    <glyph glyph-name="u1065" unicode="&#x1065;" horiz-adv-x="577" 
d="M521 222c0 -33.333 -6.33496 -64.666 -19.002 -93.999s-30 -55 -52 -77s-47.667 -39.333 -77 -52s-60.333 -19 -93 -19c-23.333 0 -46.166 3 -68.499 9s-43.166 14.5 -62.499 25.5s-37 24.667 -53 41s-29.333 35.166 -40 56.499l82 44
c18.667 -29.333 39.5 -50.666 62.5 -63.999s49.5 -20 79.5 -20c20 0 39 4 57 12s33.833 18.833 47.5 32.5s24.334 29.5 32.001 47.5s11.5 37.333 11.5 58c0 20 -3.83301 39.167 -11.5 57.5s-18.334 34.166 -32.001 47.499s-29.5 24 -47.5 32s-37 12 -57 12
c-30 0 -57.333 -7.16699 -82 -21.5s-44.667 -34.833 -60 -61.5l-82 43c22.667 43.333 54.167 76.333 94.5 99s83.5 34 129.5 34c32.667 0 63.667 -6.5 93 -19.5s55 -30.5 77 -52.5s39.333 -47.667 52 -77s19 -60.333 19 -93z" />
    <glyph glyph-name="u1066" unicode="&#x1066;" horiz-adv-x="595" 
d="M540 237c0 -36 -6.16504 -69.5029 -18.498 -100.503s-29.5 -58.167 -51.5 -81.5s-47.833 -41.666 -77.5 -54.999s-61.5 -20 -95.5 -20s-65.833 6.66699 -95.5 20s-55.334 31.666 -77.001 54.999s-38.667 50.5 -51 81.5s-18.5 64.5 -18.5 100.5
c0 50.667 7 93.834 21 129.501s38 67.834 72 96.501l53 -76c-9.33301 -10.667 -17.333 -21 -24 -31s-12.167 -20.667 -16.5 -32s-7.5 -24 -9.5 -38s-3 -30.333 -3 -49c0 -21.333 3.5 -42 10.5 -62s17 -37.667 30 -53s28.667 -27.5 47 -36.5s38.833 -13.5 61.5 -13.5
s43.167 4.5 61.5 13.5s34 21.167 47 36.5s23 33 30 53s10.5 40.667 10.5 62c0 18.667 -1 35 -3 49s-5.16699 26.667 -9.5 38s-9.83301 22 -16.5 32s-14.667 20.333 -24 31l54 76c33.333 -29.333 57.166 -61.666 71.499 -96.999s21.5 -78.333 21.5 -129zM168.002 -464.003v83
h88v280h84v-363h-172z" />
    <glyph glyph-name="u1067" unicode="&#x1067;" horiz-adv-x="344" 
d="M294 105c0 -20 -3.33496 -37.833 -10.002 -53.5s-15.667 -28.834 -27 -39.501s-24.666 -18.667 -39.999 -24s-31.666 -8 -48.999 -8c-16 0 -31.167 3.16699 -45.5 9.5s-26.833 15 -37.5 26s-19.167 23.833 -25.5 38.5s-9.5 30.334 -9.5 47.001
c0 16 3.16699 31.333 9.5 46s14.833 27.5 25.5 38.5s23.167 19.667 37.5 26s29.5 9.5 45.5 9.5c12.667 0 24 -2.33301 34 -7v255h92v-364zM212.998 101c0 11.333 -4.33105 21.333 -12.998 30s-19.334 13 -32.001 13c-13.333 0 -24.166 -4.33301 -32.499 -13
s-12.5 -18.667 -12.5 -30s4.16699 -22 12.5 -32s19.166 -15 32.499 -15s24.166 4.83301 32.499 14.5s12.5 20.5 12.5 32.5z" />
    <glyph glyph-name="u1068" unicode="&#x1068;" horiz-adv-x="384" 
d="M329 672c0 -13.333 -2.66699 -26 -8 -38s-12.5 -22.5 -21.5 -31.5s-19.5 -16.167 -31.5 -21.5s-24.667 -8 -38 -8s-25.833 2.66699 -37.5 8s-22 12.5 -31 21.5s-16.167 19.5 -21.5 31.5s-8 24.667 -8 38s2.66699 25.833 8 37.5s12.5 22 21.5 31s19.333 16.167 31 21.5
s24.167 8 37.5 8s26 -2.66699 38 -8s22.5 -12.5 31.5 -21.5s16.167 -19.333 21.5 -31s8 -24.167 8 -37.5zM276 672c0 11.333 -4.5 21.333 -13.5 30s-19.833 13 -32.5 13c-13.333 0 -24.166 -4.33301 -32.499 -13s-12.5 -18.667 -12.5 -30s4.16699 -22 12.5 -32
s19.166 -15 32.499 -15c12.667 0 23.5 4.66699 32.5 14s13.5 20.333 13.5 33zM55 0v93h129v351h87v-444h-216z" />
    <glyph glyph-name="u1069" unicode="&#x1069;" horiz-adv-x="382" 
d="M337 328c0 -14.667 -2.66602 -30.1699 -7.99902 -46.5029s-16.666 -31.5 -33.999 -45.5c-10 -8 -21 -14.5 -33 -19.5s-23.833 -9.16699 -35.5 -12.5s-22.834 -6.33301 -33.501 -9s-20.334 -6 -29.001 -10c-8 -4 -15.167 -9.66699 -21.5 -17s-9.5 -16.333 -9.5 -27
c0 -23.333 6.33301 -40.666 19 -51.999s25.667 -17 39 -17s27 2.5 41 7.5s27.667 14.5 41 28.5l58 -71c-10 -12.667 -21.5 -22.667 -34.5 -30s-26.167 -13 -39.5 -17s-25.833 -6.66699 -37.5 -8s-21.167 -2 -28.5 -2c-13.333 0 -28.833 2.83301 -46.5 8.5
s-34.167 14.834 -49.5 27.501s-28.333 29.5 -39 50.5s-16 47.167 -16 78.5c0 22.667 5.83301 44 17.5 64s28.834 36 51.501 48c8 4 17.167 7.66699 27.5 11l32 10c11 3.33301 21.833 6.83301 32.5 10.5s20 7.83398 28 12.501c10 6 15 15 15 27c0 11.333 -4 22 -12 32
s-19.667 15 -35 15c-12.667 0 -25.334 -2.66699 -38.001 -8s-25.667 -14 -39 -26l-58 68c12 12 24.5 21.667 37.5 29s25.5 12.833 37.5 16.5s23.167 6.16699 33.5 7.5s19.166 2 26.499 2c18.667 0 36.334 -3.33301 53.001 -10s31.5 -16 44.5 -28s23.333 -26.333 31 -43
s11.5 -35 11.5 -55z" />
    <glyph glyph-name="u106A" unicode="&#x106a;" horiz-adv-x="351" 
d="M302 108c0 -20.667 -3.33496 -39.001 -10.002 -55.001s-15.5 -29.333 -26.5 -40s-24 -18.834 -39 -24.501s-30.833 -8.5 -47.5 -8.5c-17.333 0 -33.666 3.33301 -48.999 10s-28.5 15.834 -39.5 27.501s-19.667 25.334 -26 41.001s-9.5 32.5 -9.5 50.5h92
c0 -13.333 3.5 -23.5 10.5 -30.5s14.167 -10.5 21.5 -10.5c8.66699 0 15.834 3.33301 21.501 10s8.5 16.667 8.5 30v356h93v-356z" />
    <glyph glyph-name="u106B" unicode="&#x106b;" horiz-adv-x="351" 
d="M204 -5l-0.000976562 338.998c0 15.333 -3.16699 27 -9.5 35s-13.5 12 -21.5 12s-15.167 -3.66699 -21.5 -11s-9.5 -17.666 -9.5 -30.999h-92c0 36.667 10.833 67.5 32.5 92.5s51.834 37.5 90.501 37.5c38 0 68 -12.667 90 -38s33 -57.666 33 -96.999v-339h-92z" />
    <glyph glyph-name="u106C" unicode="&#x106c;" horiz-adv-x="351" 
d="M296 109c0 -18 -3 -34.832 -9 -50.499s-14.5 -29.334 -25.5 -41.001s-24 -20.834 -39 -27.501s-31.167 -10 -48.5 -10c-16.667 0 -32.5 2.83301 -47.5 8.5s-28.167 13.834 -39.5 24.501s-20.333 24 -27 40s-10 34.333 -10 55v356h92v-356c0 -12 3 -21.667 9 -29
s13.667 -11 23 -11c7.33301 0 14.333 3.66699 21 11s10 17.333 10 30h91v0z" />
    <glyph glyph-name="u106D" unicode="&#x106d;" horiz-adv-x="382" 
d="M341 145c0 -31.333 -5.33789 -57.498 -16.0049 -78.498s-23.667 -37.833 -39 -50.5s-31.666 -21.834 -48.999 -27.501s-32.666 -8.5 -45.999 -8.5c-7.33301 0 -17 0.666992 -29 2s-24.5 4 -37.5 8s-26.167 9.66699 -39.5 17s-25 17.333 -35 30l58 71
c14.667 -15.333 29.334 -25.166 44.001 -29.499s27.667 -6.5 39 -6.5c12 0 24.5 6 37.5 18s19.5 30 19.5 54c0 10.667 -3 19.167 -9 25.5s-13.333 11.5 -22 15.5c-8 3.33301 -17.333 6.33301 -28 9s-22 5.83398 -34 9.50098s-23.833 8 -35.5 13s-22.5 11.5 -32.5 19.5
c-18.667 13.333 -30.5 28.166 -35.5 44.499s-7.5 32.166 -7.5 47.499c0 20 3.83301 38.333 11.5 55s18 31 31 43s28 21.333 45 28s34.833 10 53.5 10c6.66699 0 15.167 -0.666992 25.5 -2s21.5 -3.83301 33.5 -7.5s24.5 -9.16699 37.5 -16.5s25.5 -17 37.5 -29l-58 -68
c-13.333 12 -26.333 20.667 -39 26s-25 8 -37 8c-15.333 0 -27.166 -5 -35.499 -15s-12.5 -20.667 -12.5 -32s5.33301 -20.333 16 -27c8 -4.66699 17.167 -8.83398 27.5 -12.501s21 -7.16699 32 -10.5l32 -10c10.333 -3.33301 19.5 -7 27.5 -11
c22.667 -12 39.834 -28 51.501 -48s17.5 -41.333 17.5 -64z" />
    <glyph glyph-name="u106E" unicode="&#x106e;" horiz-adv-x="1203" 
d="M1148 222c0 -33.333 -6.33008 -64.668 -18.9971 -94.001s-29.834 -55 -51.501 -77s-47 -39.333 -76 -52s-59.833 -19 -92.5 -19c-11.333 0 -23.5 0.833008 -36.5 2.5s-24.5 5.16699 -34.5 10.5l37 85c10.667 -4 22 -6 34 -6c20.667 0 40 4 58 12s33.667 18.833 47 32.5
s23.833 29.5 31.5 47.5s11.5 37.333 11.5 58c0 20 -3.83301 39.167 -11.5 57.5s-18.167 34.166 -31.5 47.499s-29 24 -47 32s-37.333 12 -58 12c-20 0 -39.167 -5.33301 -57.5 -16s-34.5 -24.334 -48.5 -41.001s-25 -35 -33 -55s-12 -39 -12 -57c0 -50 -7 -92.5 -21 -127.5
s-37.667 -66.5 -71 -94.5l-54 76c9.33301 10.667 17.333 20.834 24 30.501s12.167 20.334 16.5 32.001s7.5 24.334 9.5 38.001s3 29.834 3 48.501c0 22 -3.5 42.833 -10.5 62.5s-17 37.167 -30 52.5s-28.667 27.5 -47 36.5s-38.833 13.5 -61.5 13.5
c-6 0 -11.833 -0.333008 -17.5 -1s-10.5 -1.66699 -14.5 -3c16.667 -20 30 -43.5 40 -70.5s15 -57.167 15 -90.5c0 -50 -6.83301 -92.833 -20.5 -128.5s-37.5 -67.834 -71.5 -96.501l-54 76c9.33301 10.667 17.333 20.834 24 30.501s12.167 20.334 16.5 32.001
s7.5 24.334 9.5 38.001s3 29.834 3 48.501c0 22 -3.5 42.833 -10.5 62.5s-17 37.167 -30 52.5s-28.667 27.5 -47 36.5s-38.833 13.5 -61.5 13.5s-43.167 -4.5 -61.5 -13.5s-34 -21.167 -47 -36.5s-23 -32.833 -30 -52.5s-10.5 -40.5 -10.5 -62.5
c0 -18.667 1 -34.834 3 -48.501s5.33301 -26.334 10 -38.001s10.167 -22.334 16.5 -32.001s14.166 -19.834 23.499 -30.501l-53 -76c-34 28 -58 60 -72 96s-21 79 -21 129c0 36 6.16699 69.667 18.5 101s29.5 58.666 51.5 81.999s47.667 41.666 77 54.999s61 20 95 20
c19.333 0 38 -2.16699 56 -6.5s35.667 -11.166 53 -20.499c15.333 8.66699 32.666 15.334 51.999 20.001s38.666 7 57.999 7c40 0 77.5 -9.5 112.5 -28.5s63.833 -47.5 86.5 -85.5c20 32 46.667 59.167 80 81.5s71.333 33.5 114 33.5c32.667 0 63.5 -6.5 92.5 -19.5
s54.333 -30.5 76 -52.5s38.834 -47.667 51.501 -77s19 -60.333 19 -93z" />
    <glyph glyph-name="u106F" unicode="&#x106f;" horiz-adv-x="984" 
d="M930 222c0 -33.333 -6.33691 -64.6631 -19.0039 -93.9961s-30 -55 -52 -77s-47.667 -39.333 -77 -52s-60.333 -19 -93 -19c-12.667 0 -25.167 1 -37.5 3s-23.166 5.33301 -32.499 10l36 85c10 -4 21.333 -6 34 -6c20 0 39 4 57 12s33.833 18.833 47.5 32.5
s24.334 29.5 32.001 47.5s11.5 37.333 11.5 58c0 20 -3.83301 39 -11.5 57s-18.334 33.833 -32.001 47.5s-29.5 24.5 -47.5 32.5s-37 12 -57 12s-38.667 -5 -56 -15s-32.666 -22.333 -45.999 -37s-24.166 -30.667 -32.499 -48s-13.5 -33.333 -15.5 -48
c-0.666992 -31.333 -7.16699 -61.5 -19.5 -90.5s-29.333 -54.833 -51 -77.5s-47 -40.834 -76 -54.501s-60.833 -20.5 -95.5 -20.5c-33.333 0 -64.666 6.66699 -93.999 20s-55 31.666 -77 54.999s-39.333 50.666 -52 81.999s-19 65 -19 101c0 50 7.16699 92.667 21.5 128
s38.166 67.666 71.499 96.999l57 -72c-10 -10.667 -18.667 -21.167 -26 -31.5s-13.166 -21.333 -17.499 -33s-7.66602 -24.667 -9.99902 -39s-3.5 -30.833 -3.5 -49.5c0 -22 4 -43 12 -63s18.667 -37.667 32 -53s29.166 -27.5 47.499 -36.5s37.5 -13.5 57.5 -13.5
s39.167 4.5 57.5 13.5s34.166 21.167 47.499 36.5s24 33 32 53s12 41 12 63c0 18.667 -1.16699 35.167 -3.5 49.5s-5.83301 27.333 -10.5 39s-10.5 22.5 -17.5 32.5s-15.5 20.667 -25.5 32l58 72c15.333 -13.333 28.5 -27 39.5 -41s19.833 -30.333 26.5 -49
c21.333 26 46.833 47.667 76.5 65s62.834 26 99.501 26c32.667 0 63.667 -6.5 93 -19.5s55 -30.5 77 -52.5s39.333 -47.667 52 -77s19 -60.333 19 -93zM554.996 -463.997v83h87v280h84v-363h-171z" />
    <glyph glyph-name="u1070" unicode="&#x1070;" horiz-adv-x="979" 
d="M925 222c0 -33.333 -6.32812 -64.6709 -18.9951 -94.0039s-30 -55 -52 -77s-47.667 -39.333 -77 -52s-60.333 -19 -93 -19c-42.667 0 -80.667 11 -114 33s-60 49 -80 81c-22 -36.667 -50.5 -64.834 -85.5 -84.501s-73.167 -29.5 -114.5 -29.5
c-36 0 -68.5 5.83301 -97.5 17.5s-53.667 26.5 -74 44.5s-36 38 -47 60s-16.5 43.667 -16.5 65c0 24 3.5 43.667 10.5 59s15.5 27.833 25.5 37.5s21.167 17.5 33.5 23.5l33.5 16c10 4.66699 18.5 9.83398 25.5 15.501s10.5 13.167 10.5 22.5
c0 14.667 -3.83301 24.834 -11.5 30.501s-15.5 8.5 -23.5 8.5s-14.833 -2.66699 -20.5 -8s-10.167 -11.666 -13.5 -18.999l-70 42c2.66699 10 7.5 19.167 14.5 27.5s15.167 15.5 24.5 21.5s19.666 10.667 30.999 14s22.666 5 33.999 5c14.667 0 29 -2.5 43 -7.5
s26.5 -12.5 37.5 -22.5s19.833 -22.667 26.5 -38s10 -33.333 10 -54c0 -26.667 -6.66699 -47.167 -20 -61.5s-28 -26.666 -44 -36.999s-30.667 -20.833 -44 -31.5s-20 -25.334 -20 -44.001c0 -8 3 -17.333 9 -28s15 -21 27 -31s26.833 -18.5 44.5 -25.5
s38.167 -10.5 61.5 -10.5c16.667 0 33.667 3.33301 51 10s33.166 17 47.499 31s26.166 31.833 35.499 53.5s14 47.5 14 77.5c0 28.667 -5.16699 55.667 -15.5 81s-22.833 46 -37.5 62l54 76c29.333 -22 52.166 -51 68.499 -87s24.5 -83 24.5 -141
c0 -17.333 4.33301 -35.666 13 -54.999s20 -37 34 -53s30 -29.167 48 -39.5s37 -15.5 57 -15.5s39 4 57 12s33.833 18.833 47.5 32.5s24.334 29.5 32.001 47.5s11.5 37.333 11.5 58c0 20 -3.83301 39 -11.5 57s-18.334 33.833 -32.001 47.5s-29.5 24.5 -47.5 32.5
s-37 12 -57 12c-12 0 -23.333 -2 -34 -6l-36 85c9.33301 4.66699 20.333 8.16699 33 10.5s25 3.5 37 3.5c32.667 0 63.667 -6.33301 93 -19s55 -30 77 -52s39.333 -47.667 52 -77s19 -60.666 19 -93.999zM555.005 -464.005v83h87v280h84v-363h-171z" />
    <glyph glyph-name="u1071" unicode="&#x1071;" horiz-adv-x="2" 
d="M-321 639c0 -13.333 -2.66699 -26 -8 -38s-12.5 -22.5 -21.5 -31.5s-19.5 -16 -31.5 -21s-24.667 -7.5 -38 -7.5s-25.833 2.5 -37.5 7.5s-22 12 -31 21s-16.167 19.5 -21.5 31.5s-8 24.667 -8 38s2.66699 25.833 8 37.5s12.5 22 21.5 31s19.333 16.167 31 21.5
s24.167 8 37.5 8s26 -2.66699 38 -8s22.5 -12.5 31.5 -21.5s16.167 -19.333 21.5 -31s8 -24.167 8 -37.5zM-374 639c0 10.667 -4.33301 20.5 -13 29.5s-19.667 13.5 -33 13.5s-24.166 -4.5 -32.499 -13.5s-12.5 -18.833 -12.5 -29.5c0 -11.333 4.16699 -22 12.5 -32
s19.166 -15 32.499 -15s24.333 4.83301 33 14.5s13 20.5 13 32.5zM-71 639c0 -13.333 -2.66699 -26 -8 -38s-12.5 -22.5 -21.5 -31.5s-19.333 -16 -31 -21s-24.167 -7.5 -37.5 -7.5s-26 2.5 -38 7.5s-22.5 12 -31.5 21s-16.167 19.5 -21.5 31.5s-8 24.667 -8 38
s2.66699 25.833 8 37.5s12.5 22 21.5 31s19.5 16.167 31.5 21.5s24.667 8 38 8s25.833 -2.66699 37.5 -8s22 -12.5 31 -21.5s16.167 -19.333 21.5 -31s8 -24.167 8 -37.5zM-124 639c0 10.667 -4.16699 20.5 -12.5 29.5s-19.166 13.5 -32.499 13.5c-14 0 -25 -4.5 -33 -13.5
s-12 -18.833 -12 -29.5c0 -11.333 4 -22 12 -32s19 -15 33 -15c13.333 0 24.166 4.83301 32.499 14.5s12.5 20.5 12.5 32.5z" />
    <glyph glyph-name="u1072" unicode="&#x1072;" 
d="M-106 796c-9.33301 15.333 -21.332 27.666 -35.999 36.999s-30.667 14 -48 14c-14.667 0 -29 -2.66699 -43 -8s-26.5 -13 -37.5 -23s-19.833 -22.167 -26.5 -36.5s-10 -30.5 -10 -48.5c0 -21.333 4.5 -39.666 13.5 -54.999s19.833 -28 32.5 -38s25.667 -17.5 39 -22.5
s24 -7.5 32 -7.5v-71c-22 0 -44 4.83301 -66 14.5s-42 23 -60 40s-32.667 37.5 -44 61.5s-17 50 -17 78c0 28.667 5.33301 54.5 16 77.5s24.667 42.667 42 59s37.333 28.833 60 37.5s45.667 13 69 13s47.666 -6.33301 72.999 -19s46 -33 62 -61z" />
    <glyph glyph-name="u1073" unicode="&#x1073;" horiz-adv-x="2" 
d="M-116 570l-179 178l-180 -178l-51 50l231 231l231 -231z" />
    <glyph glyph-name="u1074" unicode="&#x1074;" 
d="M-285 570l-232 231l52 50l180 -178l179 178l51 -50z" />
    <glyph glyph-name="u1075" unicode="&#x1075;" horiz-adv-x="587" 
d="M532 203c0 -56 -8.15918 -101.496 -24.4922 -136.496s-39.166 -63.833 -68.499 -86.5l-54 76c21.333 21.333 35.666 45.333 42.999 72s11 51.667 11 75c0 30 -5 55.5 -15 76.5s-22.333 38.333 -37 52s-30.834 23.5 -48.501 29.5s-33.834 9 -48.501 9
c-23.333 0 -43.833 -3.5 -61.5 -10.5s-32.5 -15.5 -44.5 -25.5s-21 -20.333 -27 -31s-9 -19.667 -9 -27c0 -12.667 3.16699 -23.334 9.5 -32.001s14.166 -16.5 23.499 -23.5s19.666 -13.833 30.999 -20.5s21.666 -14.167 30.999 -22.5s17.166 -18.5 23.499 -30.5
s9.5 -27 9.5 -45c0 -20.667 -3.33301 -38.667 -10 -54s-15.667 -28 -27 -38s-24.333 -17.5 -39 -22.5s-30.334 -7.5 -47.001 -7.5c-17.333 0 -35.5 4.66699 -54.5 14s-33.5 23.666 -43.5 42.999l70 43c3.33301 -4.66699 7.5 -8.66699 12.5 -12s10.167 -5 15.5 -5
c8.66699 0 17.667 2.5 27 7.5s14 15.5 14 31.5c0 9.33301 -3.5 16.666 -10.5 21.999s-15.5 10.5 -25.5 15.5l-33.5 16c-12.333 5.66699 -23.5 13.5 -33.5 23.5s-18.5 22.667 -25.5 38s-10.5 35 -10.5 59c0 20.667 5.5 42 16.5 64s26.667 42.167 47 60.5s45 33.333 74 45
s61.5 17.5 97.5 17.5c32 0 62.667 -6.33301 92 -19s55.166 -30.334 77.499 -53.001s40 -50 53 -82s19.5 -67.333 19.5 -106z" />
    <glyph glyph-name="u1076" unicode="&#x1076;" horiz-adv-x="592" 
d="M536 222c0 -32.667 -6.17188 -63.667 -18.5049 -93s-29.333 -55 -51 -77s-47.334 -39.5 -77.001 -52.5s-61.5 -19.5 -95.5 -19.5c-40.667 0 -75.667 6.83301 -105 20.5s-53.333 30.5 -72 50.5s-32.5 41.5 -41.5 64.5s-13.833 44.167 -14.5 63.5
c36 22 69.333 37.333 100 46s57.667 13 81 13c28.667 0 59.834 -6.66699 93.501 -20s63.167 -34 88.5 -62c12.667 18.667 19 41 19 67c0 14 -2.33301 29.5 -7 46.5s-12.167 33 -22.5 48s-24.166 27.667 -41.499 38s-38.333 15.5 -63 15.5
c-13.333 0 -23.166 -5.33301 -29.499 -16l-20.5 -35c-7.33301 -12.667 -17.166 -24.334 -29.499 -35.001s-31.166 -16 -56.499 -16c-16 0 -31.167 2.33301 -45.5 7s-26.833 11.5 -37.5 20.5s-19.167 19.667 -25.5 32s-9.5 26.166 -9.5 41.499
c0 21.333 3.83301 39.5 11.5 54.5s21.834 28.167 42.501 39.5l48 -53c-6 -3.33301 -11 -7.83301 -15 -13.5s-6 -11.5 -6 -17.5c0 -9.33301 2.83301 -17 8.5 -23s15.167 -9 28.5 -9c8 0 14.333 2.83301 19 8.5s9 12.834 13 21.501l13 28c4.66699 10 10.667 19.333 18 28
s16.833 15.834 28.5 21.501s26.5 8.5 44.5 8.5c32 0 61.833 -7 89.5 -21s51.667 -32.5 72 -55.5s36.333 -48.833 48 -77.5s17.5 -58 17.5 -88zM371.995 93c-14.667 19.333 -33.168 35.332 -55.501 47.999s-46.833 19 -73.5 19c-12.667 0 -25.167 -1.16699 -37.5 -3.5
s-26.166 -6.5 -41.499 -12.5c19.333 -28 40 -47 62 -57s44.667 -15 68 -15c15.333 0 29.333 1.83301 42 5.5s24.667 8.83398 36 15.501z" />
    <glyph glyph-name="u1077" unicode="&#x1077;" horiz-adv-x="594" 
d="M545 205c0 -24.667 -3.33203 -47.667 -9.99902 -69s-15.667 -41.166 -27 -59.499s-24.666 -35.5 -39.999 -51.5s-31.333 -31 -48 -45c-11.333 6 -24.333 15 -39 27s-28.5 27.333 -41.5 46s-23.833 40.167 -32.5 64.5s-13 51.5 -13 81.5s6 57.667 18 83
s28.667 48.666 50 69.999c-8.66699 5.33301 -18.5 9.66602 -29.5 12.999s-22.167 5 -33.5 5c-25.333 0 -47.333 -3.5 -66 -10.5s-34.334 -15.5 -47.001 -25.5s-22.167 -20.333 -28.5 -31s-9.5 -19.667 -9.5 -27c0 -19.333 6.33301 -34.166 19 -44.499
s26.667 -20.666 42 -30.999s29.333 -22.666 42 -36.999s19 -34.833 19 -61.5c0 -41.333 -11.167 -72 -33.5 -92s-50.166 -30 -83.499 -30c-7.33301 0 -15.666 1.16699 -24.999 3.5s-18.5 5.83301 -27.5 10.5s-17.667 10.5 -26 17.5s-14.833 15.5 -19.5 25.5l70 43
c2 -3.33301 5.66699 -7 11 -11s11 -6 17 -6c8.66699 0 16.5 3 23.5 9s10.5 16 10.5 30c0 9.33301 -3.33301 16.666 -10 21.999s-14.834 10.5 -24.501 15.5l-31.5 16c-11.333 5.66699 -21.833 13.5 -31.5 23.5s-17.834 22.667 -24.501 38s-10 35 -10 59
c0 20.667 5.66699 42 17 64s27.5 42.167 48.5 60.5s46.667 33.333 77 45s64.166 17.5 101.499 17.5c33.333 0 65 -6.5 95 -19.5s56.167 -31 78.5 -54s40 -50.333 53 -82s19.5 -65.834 19.5 -102.501zM453.001 205c0 37.333 -9 69.666 -27 96.999
c-16 -13.333 -28.833 -28.666 -38.5 -45.999s-14.5 -36.666 -14.5 -57.999c0 -38.667 11 -73.334 33 -104.001c13.333 14.667 24.5 30.5 33.5 47.5s13.5 38.167 13.5 63.5z" />
    <glyph glyph-name="u1078" unicode="&#x1078;" horiz-adv-x="977" 
d="M921 222c0 -33.333 -6.16797 -64.666 -18.501 -93.999s-29.333 -55 -51 -77s-47 -39.333 -76 -52s-60.167 -19 -93.5 -19c-34 0 -65.5 6.83301 -94.5 20.5s-53.833 31.667 -74.5 54s-36.834 47.666 -48.501 75.999s-17.5 57.166 -17.5 86.499
c-1.33301 14.667 -6.16602 30.834 -14.499 48.501s-19.166 34.334 -32.499 50.001s-29 28.834 -47 39.501s-37.333 16 -58 16c-20 0 -39 -4 -57 -12s-33.667 -18.667 -47 -32s-23.833 -29.166 -31.5 -47.499s-11.5 -37.5 -11.5 -57.5c0 -20.667 3.83301 -40 11.5 -58
s18.167 -33.833 31.5 -47.5s29 -24.5 47 -32.5s37 -12 57 -12c11.333 0 22.666 2 33.999 6l36 -85c-10 -5.33301 -21.5 -8.83301 -34.5 -10.5s-24.833 -2.5 -35.5 -2.5c-32.667 0 -63.5 6.33301 -92.5 19s-54.5 30 -76.5 52s-39.333 47.667 -52 77s-19 60.666 -19 93.999
c0 32.667 6.33301 63.667 19 93s30 55 52 77s47.5 39.5 76.5 52.5s59.833 19.5 92.5 19.5c42 0 79.5 -10.833 112.5 -32.5s59.5 -47.834 79.5 -78.501c20.667 33.333 48.334 60.166 83.001 80.499s73 30.5 115 30.5c32.667 0 63.334 -6.5 92.001 -19.5
s53.667 -30.5 75 -52.5s38.166 -47.667 50.499 -77s18.5 -60.333 18.5 -93zM829.999 222c0 20 -3.83203 39.1689 -11.499 57.502s-18.167 34.166 -31.5 47.499s-29 24 -47 32s-37.333 12 -58 12c-20 0 -38.667 -4 -56 -12s-32.5 -18.833 -45.5 -32.5
s-23.167 -29.667 -30.5 -48s-11 -37.833 -11 -58.5c0 -19.333 3.66699 -37.833 11 -55.5s17.5 -33.334 30.5 -47.001s28.5 -24.667 46.5 -33s37.333 -12.5 58 -12.5c20 0 38.667 4 56 12s32.666 18.833 45.999 32.5s23.833 29.5 31.5 47.5s11.5 37.333 11.5 58z" />
    <glyph glyph-name="u1079" unicode="&#x1079;" horiz-adv-x="947" 
d="M892 222c0 -33.333 -6.16797 -64.666 -18.501 -93.999s-29.333 -55 -51 -77s-47 -39.333 -76 -52s-60.167 -19 -93.5 -19c-32.667 0 -63.334 6.33301 -92.001 19s-53.667 30 -75 52s-38.166 47.667 -50.499 77s-18.5 60.666 -18.5 93.999c0 17.333 1.66699 33.5 5 48.5
s8 30.167 14 45.5c-25.333 21.333 -50 35.833 -74 43.5s-46.333 11.5 -67 11.5c-28.667 0 -54.167 -8.33301 -76.5 -25s-37.833 -37 -46.5 -61c24 -3.33301 47 -9.83301 69 -19.5s41.333 -22.167 58 -37.5c32 -30 55.833 -63.667 71.5 -101s24.167 -78.333 25.5 -123
c-15.333 -10 -31.666 -16.5 -48.999 -19.5s-34 -4.5 -50 -4.5c-32 0 -62.667 6.16699 -92 18.5s-55.166 29.333 -77.499 51s-40 47.334 -53 77.001s-19.5 61.5 -19.5 95.5c0 33.333 6.33301 64.666 19 93.999s30 55 52 77s47.5 39.333 76.5 52s59.833 19 92.5 19
c44 0 80.833 -6.16699 110.5 -18.5s57.167 -29.833 82.5 -52.5c22 21.333 47.167 38.5 75.5 51.5s59.166 19.5 92.499 19.5c32.667 0 63.334 -6.5 92.001 -19.5s53.667 -30.5 75 -52.5s38.166 -47.667 50.499 -77s18.5 -60.333 18.5 -93zM798.999 222
c0 20 -3.83301 39 -11.5 57s-18 33.833 -31 47.5s-28.5 24.5 -46.5 32.5s-37 12 -57 12s-38.667 -4 -56 -12s-32.5 -18.833 -45.5 -32.5s-23.167 -29.5 -30.5 -47.5s-11 -37 -11 -57c0 -20.667 3.83301 -40 11.5 -58s18.167 -33.833 31.5 -47.5s28.833 -24.5 46.5 -32.5
s36.5 -12 56.5 -12s38.667 4 56 12s32.5 18.833 45.5 32.5s23.167 29.5 30.5 47.5s11 37.333 11 58zM148.999 211c2 -20.667 7.49902 -39.6689 16.499 -57.002s20.667 -32.166 35 -44.499s30.5 -21.666 48.5 -27.999s36.667 -8.83301 56 -7.5
c-5.33301 19.333 -13.166 38.5 -23.499 57.5s-23.5 34.167 -39.5 45.5c-26.667 22 -57.667 33.333 -93 34z" />
    <glyph glyph-name="u107A" unicode="&#x107a;" horiz-adv-x="1014" 
d="M959 222c0 -33.333 -6.33008 -64.6719 -18.9971 -94.0049s-30 -55 -52 -77s-47.5 -39.333 -76.5 -52s-59.833 -19 -92.5 -19c-30 0 -57.167 5.66699 -81.5 17s-45.833 26.333 -64.5 45v-413h72v-93h-165v622c0 36.667 -6 68.334 -18 95.001s-27.333 48.834 -46 66.501
s-38.834 30.667 -60.501 39s-42.167 12.5 -61.5 12.5c-22.667 0 -43 -4 -61 -12s-33.333 -18.833 -46 -32.5s-22.334 -29.5 -29.001 -47.5s-10 -37 -10 -57c0 -21.333 4 -41.166 12 -59.499s18.833 -34.166 32.5 -47.499s29.167 -23.833 46.5 -31.5
s35.666 -11.5 54.999 -11.5c12 0 23.833 1.66699 35.5 5s21.167 7 28.5 11l31 -88c-15.333 -7.33301 -31 -12.5 -47 -15.5s-32 -4.5 -48 -4.5c-32 0 -62.5 6.16699 -91.5 18.5s-54.5 29.5 -76.5 51.5s-39.333 47.667 -52 77s-19 61 -19 95c0 30 5.66699 59.5 17 88.5
s27.5 54.667 48.5 77s46.167 40.5 75.5 54.5s62 21 98 21c32.667 0 64.5 -5.5 95.5 -16.5s59 -27.333 84 -49s46.167 -48.667 63.5 -81s28.666 -69.5 33.999 -111.5c4.66699 -16 11.667 -32 21 -48s20.5 -30.167 33.5 -42.5s27.5 -22.5 43.5 -30.5s32.667 -12 50 -12
c20 0 39 4 57 12s33.833 18.833 47.5 32.5s24.334 29.5 32.001 47.5s11.5 37.333 11.5 58c0 20 -3.83301 39 -11.5 57s-18.334 33.833 -32.001 47.5s-29.5 24.5 -47.5 32.5s-37 12 -57 12c-12.667 0 -24 -2 -34 -6l-37 85c10.667 5.33301 21.834 9 33.501 11
s24.167 3 37.5 3c32.667 0 63.5 -6.33301 92.5 -19s54.5 -30 76.5 -52s39.333 -47.667 52 -77s19 -60.666 19 -93.999z" />
    <glyph glyph-name="u107B" unicode="&#x107b;" horiz-adv-x="947" 
d="M892 222c0 -34 -6.5 -65.834 -19.5 -95.501s-30.667 -55.334 -53 -77.001s-48.166 -38.667 -77.499 -51s-60 -18.5 -92 -18.5c-16 0 -32.667 1.5 -50 4.5s-33.666 9.5 -48.999 19.5c2.66699 46.667 11.5 88.167 26.5 124.5s37.5 67.833 67.5 94.5
c37.333 32.667 80.666 53.334 129.999 62.001c-8.66699 24 -24.167 44.333 -46.5 61s-47.833 25 -76.5 25c-21.333 0 -44 -3.83301 -68 -11.5s-48.667 -22.167 -74 -43.5c6.66699 -15.333 11.667 -30.5 15 -45.5s5 -31.167 5 -48.5
c0 -33.333 -6.16699 -64.666 -18.5 -93.999s-29.166 -55 -50.499 -77s-46.333 -39.333 -75 -52s-59.334 -19 -92.001 -19c-33.333 0 -64.5 6.33301 -93.5 19s-54.333 30 -76 52s-38.667 47.667 -51 77s-18.5 60.666 -18.5 93.999c0 32.667 6.16699 63.667 18.5 93
s29.166 55 50.499 77s46.333 39.5 75 52.5s59.334 19.5 92.001 19.5c33.333 0 64.166 -6.5 92.499 -19.5s53.5 -30.167 75.5 -51.5c25.333 22.667 52.833 40.167 82.5 52.5s66.5 18.5 110.5 18.5c32.667 0 63.5 -6.33301 92.5 -19s54.5 -30 76.5 -52s39.333 -47.667 52 -77
s19 -60.666 19 -93.999zM437 221.999c0 20 -3.66699 39 -11 57s-17.5 33.833 -30.5 47.5s-28.167 24.5 -45.5 32.5s-36 12 -56 12s-39 -4 -57 -12s-33.5 -18.833 -46.5 -32.5s-23.333 -29.5 -31 -47.5s-11.5 -37 -11.5 -57c0 -20.667 3.66699 -40 11 -58
s17.5 -33.833 30.5 -47.5s28.167 -24.5 45.5 -32.5s36 -12 56 -12s38.833 4 56.5 12s33.167 18.833 46.5 32.5s23.833 29.5 31.5 47.5s11.5 37.333 11.5 58zM798 210.999c-36.667 -2 -67.667 -13.3311 -93 -33.998c-18 -13.333 -31.5 -28.5 -40.5 -45.5
s-16.5 -36.167 -22.5 -57.5c19.333 -1.33301 38 1.16699 56 7.5s34.167 15.666 48.5 27.999s26 27.166 35 44.499s14.5 36.333 16.5 57z" />
    <glyph glyph-name="u107C" unicode="&#x107c;" horiz-adv-x="1012" 
d="M958 127c-3.33301 -8 -9.83398 -20.1699 -19.501 -36.5029s-23.5 -32.666 -41.5 -48.999s-41 -30.666 -69 -42.999s-62 -18.5 -102 -18.5c-48 0 -91.167 12 -129.5 36s-67.5 55.667 -87.5 95c-10 -19.333 -22.833 -37.166 -38.5 -53.499s-33.167 -30.166 -52.5 -41.499
s-40.166 -20.166 -62.499 -26.499s-45.166 -9.5 -68.499 -9.5c-40 0 -73.667 6.16699 -101 18.5s-50 26.666 -68 42.999s-31.5 32.666 -40.5 48.999s-14.833 28.5 -17.5 36.5c14 23.333 29.833 43 47.5 59s36.334 28.833 56.001 38.5s40 16.667 61 21s41.833 6.5 62.5 6.5
c25.333 0 50.166 -3.66699 74.499 -11s48.166 -21.666 71.499 -42.999c1.33301 2.66699 2 5.33398 2 8.00098v8c0 25.333 -4.5 47.833 -13.5 67.5s-20.667 36.167 -35 49.5s-30.333 23.333 -48 30s-34.834 10 -51.501 10c-28 0 -54.667 -6.83301 -80 -20.5
s-45.666 -34.5 -60.999 -62.5l-81 43c10 22 23.333 41.333 40 58s35 30.5 55 41.5s41 19.333 63 25s43.333 8.5 64 8.5c23.333 0 46.166 -3.5 68.499 -10.5s43.166 -16.5 62.499 -28.5s37 -26.333 53 -43s29 -34.667 39 -54c20 39.333 49 71.833 87 97.5s81 38.5 129 38.5
c22.667 0 45.334 -3 68.001 -9s44 -14.667 64 -26s38 -25.333 54 -42s29 -35.334 39 -56.001l-83 -43c-16.667 26.667 -36.167 47.167 -58.5 61.5s-50.166 21.5 -83.499 21.5c-16.667 0 -33.667 -3.33301 -51 -10s-33 -16.667 -47 -30s-25.333 -29.833 -34 -49.5
s-13 -42.5 -13 -68.5v-8c0 -2.66699 0.666992 -5.33398 2 -8.00098c21.333 21.333 44.5 35.833 69.5 43.5s50.833 11.5 77.5 11.5c20.667 0 41.5 -2.16699 62.5 -6.5s41.5 -11.333 61.5 -21s38.833 -22.5 56.5 -38.5s33.5 -35.667 47.5 -59zM401.999 129.997
c-14.667 14 -32.8301 25.833 -54.4971 35.5s-42.167 14.5 -61.5 14.5c-22.667 0 -44.834 -3.83301 -66.501 -11.5s-40.5 -20.167 -56.5 -37.5c12.667 -20 30.667 -34.833 54 -44.5s46.333 -14.5 69 -14.5c21.333 0 41.666 4 60.999 12s37.666 23.333 54.999 46z
M853.003 130.997c-11.333 15.333 -28.1689 27.3291 -50.502 35.9961s-46.5 13 -72.5 13c-8 0 -17 -1 -27 -3s-20.167 -5.16699 -30.5 -9.5s-20.666 -9.66602 -30.999 -15.999s-19.5 -13.833 -27.5 -22.5c17.333 -21.333 36.333 -36.166 57 -44.499
s40.334 -12.5 59.001 -12.5c10 0 20.667 1 32 3s22.5 5.33301 33.5 10s21.5 10.834 31.5 18.501s18.667 16.834 26 27.501z" />
    <glyph glyph-name="u107D" unicode="&#x107d;" horiz-adv-x="976" 
d="M920 179c0 -27.333 -7.1709 -52.9961 -21.5039 -76.9961s-32.666 -45 -54.999 -63s-47.666 -32.333 -75.999 -43s-56.833 -16 -85.5 -16c-42.667 0 -81 9.33301 -115 28s-61.333 43.667 -82 75c-19.333 -28 -44.5 -52.167 -75.5 -72.5s-70.167 -30.5 -117.5 -30.5
c-36 0 -68.5 5.83301 -97.5 17.5s-53.667 26.5 -74 44.5s-36 38 -47 60s-16.5 43.667 -16.5 65c0 24 3.5 43.667 10.5 59s15.5 28 25.5 38s21.167 17.833 33.5 23.5l33.5 16c10 5 18.5 10.167 25.5 15.5s10.5 12.666 10.5 21.999c0 15.333 -3.83301 25.666 -11.5 30.999
s-15.834 8 -24.501 8c-14.667 0 -25.334 -5.66699 -32.001 -17l-71 43c9.33301 17.333 23 31.166 41 41.499s37.333 15.5 58 15.5c16.667 0 32.334 -2.5 47.001 -7.5s27.667 -12.5 39 -22.5s20.333 -22.667 27 -38s10 -33.333 10 -54c0 -26.667 -6.66699 -47.167 -20 -61.5
s-28.166 -26.666 -44.499 -36.999s-31.166 -20.833 -44.499 -31.5s-20 -25.334 -20 -44.001c0 -7.33301 3 -16.5 9 -27.5s15 -21.5 27 -31.5s26.833 -18.5 44.5 -25.5s38.167 -10.5 61.5 -10.5c14.667 0 30.834 3.16699 48.501 9.5s34 16.166 49 29.499
s27.5 30.666 37.5 51.999s15 47 15 77c0 30.667 -3.83301 57.5 -11.5 80.5s-21.834 45.167 -42.501 66.5l54 76c13.333 -10.667 25.5 -22.5 36.5 -35.5s20.167 -27.833 27.5 -44.5c18.667 22.667 43.167 41.834 73.5 57.501s64.5 23.5 102.5 23.5c18 0 37.5 -2.5 58.5 -7.5
s41.667 -12.667 62 -23s39.5 -24 57.5 -41s32.667 -37.5 44 -61.5l-81 -43c-21.333 32 -43.833 53.833 -67.5 65.5s-48.167 17.5 -73.5 17.5c-21.333 0 -41 -4 -59 -12s-33.667 -18.833 -47 -32.5s-23.833 -29.5 -31.5 -47.5s-11.5 -36.667 -11.5 -56c0 -14 2 -27 6 -39
s9.33301 -22.667 16 -32c12 14 25.5 26.5 40.5 37.5s30.667 20 47 27s32.833 12.333 49.5 16s32.334 5.5 47.001 5.5c22.667 0 49.5 -4.33301 80.5 -13s64.5 -24 100.5 -46zM817.996 144.004c-14.667 6 -28.3311 10.167 -40.998 12.5s-25.334 3.5 -38.001 3.5
c-26.667 0 -51.5 -6.5 -74.5 -19.5s-42.167 -29.5 -57.5 -49.5c23.333 -12.667 48.333 -19 75 -19c21.333 0 44.166 5 68.499 15s46.833 29 67.5 57z" />
    <glyph glyph-name="u107E" unicode="&#x107e;" horiz-adv-x="976" 
d="M555 -464v83h87v280h84v-363h-171zM920 179c0 -27.333 -7.1709 -52.9961 -21.5039 -76.9961s-32.666 -45 -54.999 -63s-47.666 -32.333 -75.999 -43s-56.833 -16 -85.5 -16c-42.667 0 -81 9.33301 -115 28s-61.333 43.667 -82 75c-19.333 -28 -44.5 -52.167 -75.5 -72.5
s-70.167 -30.5 -117.5 -30.5c-36 0 -68.5 5.83301 -97.5 17.5s-53.667 26.5 -74 44.5s-36 38 -47 60s-16.5 43.667 -16.5 65c0 24 3.5 43.667 10.5 59s15.5 28 25.5 38s21.167 17.833 33.5 23.5l33.5 16c10 5 18.5 10.167 25.5 15.5s10.5 12.666 10.5 21.999
c0 15.333 -3.83301 25.666 -11.5 30.999s-15.834 8 -24.501 8c-14.667 0 -25.334 -5.66699 -32.001 -17l-71 43c9.33301 17.333 23 31.166 41 41.499s37.333 15.5 58 15.5c16.667 0 32.334 -2.5 47.001 -7.5s27.667 -12.5 39 -22.5s20.333 -22.667 27 -38s10 -33.333 10 -54
c0 -26.667 -6.66699 -47.167 -20 -61.5s-28.166 -26.666 -44.499 -36.999s-31.166 -20.833 -44.499 -31.5s-20 -25.334 -20 -44.001c0 -7.33301 3 -16.5 9 -27.5s15 -21.5 27 -31.5s26.833 -18.5 44.5 -25.5s38.167 -10.5 61.5 -10.5c14.667 0 30.834 3.16699 48.501 9.5
s34 16.166 49 29.499s27.5 30.666 37.5 51.999s15 47 15 77c0 30.667 -3.83301 57.5 -11.5 80.5s-21.834 45.167 -42.501 66.5l54 76c13.333 -10.667 25.5 -22.5 36.5 -35.5s20.167 -27.833 27.5 -44.5c18.667 22.667 43.167 41.834 73.5 57.501s64.5 23.5 102.5 23.5
c18 0 37.5 -2.5 58.5 -7.5s41.667 -12.667 62 -23s39.5 -24 57.5 -41s32.667 -37.5 44 -61.5l-81 -43c-21.333 32 -43.833 53.833 -67.5 65.5s-48.167 17.5 -73.5 17.5c-21.333 0 -41 -4 -59 -12s-33.667 -18.833 -47 -32.5s-23.833 -29.5 -31.5 -47.5
s-11.5 -36.667 -11.5 -56c0 -14 2 -27 6 -39s9.33301 -22.667 16 -32c12 14 25.5 26.5 40.5 37.5s30.667 20 47 27s32.833 12.333 49.5 16s32.334 5.5 47.001 5.5c22.667 0 49.5 -4.33301 80.5 -13s64.5 -24 100.5 -46zM817.996 144.004
c-14.667 6 -28.3311 10.167 -40.998 12.5s-25.334 3.5 -38.001 3.5c-26.667 0 -51.5 -6.5 -74.5 -19.5s-42.167 -29.5 -57.5 -49.5c23.333 -12.667 48.333 -19 75 -19c21.333 0 44.166 5 68.499 15s46.833 29 67.5 57z" />
    <glyph glyph-name="u107F" unicode="&#x107f;" horiz-adv-x="595" 
d="M539 238c0 -36.667 -6.33398 -70.835 -19.001 -102.502s-30 -59 -52 -82s-47.667 -41 -77 -54s-60.666 -19.5 -93.999 -19.5s-64.666 6.5 -93.999 19.5s-55 31 -77 54s-39.333 50.333 -52 82s-19 65.834 -19 102.501c0 47.333 11.333 88.666 34 123.999s53 69 91 101
c11.333 -6 24.333 -15.167 39 -27.5s28.5 -27.666 41.5 -45.999s24 -39.666 33 -63.999s13.5 -51.5 13.5 -81.5s-6.16699 -58.167 -18.5 -84.5s-29.5 -50.166 -51.5 -71.499c17.333 -10.667 37.333 -16 60 -16c20 0 39.167 4.16699 57.5 12.5s34.166 19.833 47.499 34.5
s24 32.167 32 52.5s12 42.5 12 66.5c0 18.667 -1.16699 35.167 -3.5 49.5s-5.66602 27.166 -9.99902 38.499s-10 22 -17 32s-14.833 19.667 -23.5 29l54 76c33.333 -26.667 57.166 -58.5 71.499 -95.5s21.5 -80.167 21.5 -129.5zM227.999 243.999
c0 40 -11 74.332 -33 102.999c-12.667 -14 -23.667 -29.5 -33 -46.5s-14 -37.833 -14 -62.5c0 -18.667 2.5 -36.167 7.5 -52.5s11.833 -31.166 20.5 -44.499c16 13.333 28.667 28.5 38 45.5s14 36.167 14 57.5z" />
    <glyph glyph-name="u1080" unicode="&#x1080;" horiz-adv-x="982" 
d="M927 222c0 -33.333 -6.33691 -64.667 -19.0039 -94s-29.834 -55 -51.501 -77s-47.167 -39.333 -76.5 -52s-60.333 -19 -93 -19c-42 0 -79.333 10.5 -112 31.5s-59 46.833 -79 77.5c-20.667 -32 -48.5 -58.167 -83.5 -78.5s-74.5 -30.5 -118.5 -30.5
c-28.667 0 -57 5.16699 -85 15.5s-53.333 24.5 -76 42.5s-41 39.167 -55 63.5s-21.333 50.166 -22 77.499c36 22.667 69.5 38.167 100.5 46.5s57.5 12.5 79.5 12.5c14.667 0 30.334 -1.66699 47.001 -5s33.167 -8.5 49.5 -15.5s32.166 -16 47.499 -27
s29.333 -23.833 42 -38.5c6 9.33301 11 20 15 32s6 24.667 6 38c0 16 -3.16699 32.833 -9.5 50.5s-15.666 33.834 -27.999 48.501s-27.833 26.667 -46.5 36s-40.334 14 -65.001 14c-30 0 -57.167 -7.33301 -81.5 -22s-44.166 -35 -59.499 -61l-80 43
c10.667 22 24.167 41.333 40.5 58s34.333 30.5 54 41.5s40.334 19.333 62.001 25s43.167 8.5 64.5 8.5c35.333 0 67.5 -6.66699 96.5 -20s53.833 -30.833 74.5 -52.5s37 -46.334 49 -74.001s18.667 -55.5 20 -83.5c2 -18.667 7.33301 -37.667 16 -57
s19.834 -36.666 33.501 -51.999s29.334 -28 47.001 -38s36.5 -15 56.5 -15c20.667 0 40 4 58 12s33.667 18.833 47 32.5s24 29.5 32 47.5s12 37.333 12 58c0 20 -4 39.167 -12 57.5s-18.667 34.166 -32 47.499s-29 24 -47 32s-37.333 12 -58 12c-12.667 0 -24 -2 -34 -6
l-36 85c11.333 5.33301 23 9 35 11s23.667 3 35 3c32.667 0 63.667 -6.33301 93 -19s54.833 -30 76.5 -52s38.834 -47.667 51.501 -77s19 -60.666 19 -93.999zM368.996 90.999c-14.667 19.333 -33.332 35.666 -55.999 48.999s-48 20 -76 20
c-12.667 0 -25.167 -1.16699 -37.5 -3.5s-25.833 -6.5 -40.5 -12.5c20 -27.333 42.167 -46.166 66.5 -56.499s47.166 -15.5 68.499 -15.5c14.667 0 28 1.66699 40 5s23.667 8 35 14z" />
    <glyph glyph-name="u1081" unicode="&#x1081;" horiz-adv-x="595" 
d="M540 205c0 -50.667 -7.00098 -93.667 -21.001 -129s-38 -67.333 -72 -96l-54 76c9.33301 10.667 17.333 21 24 31s12.167 20.5 16.5 31.5s7.5 23.5 9.5 37.5s3 30.333 3 49c0 22 -3.5 42.833 -10.5 62.5s-17 37.167 -30 52.5s-28.667 27.5 -47 36.5
s-38.833 13.5 -61.5 13.5s-43.167 -4.5 -61.5 -13.5s-34 -21.167 -47 -36.5s-23 -32.833 -30 -52.5s-10.5 -40.5 -10.5 -62.5c0 -18.667 1 -35 3 -49s5.16699 -26.5 9.5 -37.5s9.83301 -21.5 16.5 -31.5s14.667 -20.333 24 -31l-53 -76c-34 28.667 -58 60.667 -72 96
s-21 78.333 -21 129c0 36 6.16699 69.667 18.5 101s29.333 58.666 51 81.999s47.334 41.666 77.001 54.999s61.5 20 95.5 20s65.833 -6.66699 95.5 -20s55.5 -31.666 77.5 -54.999s39.167 -50.666 51.5 -81.999s18.5 -65 18.5 -101zM167.999 -464v83h88v280h84v-363h-172z
" />
    <glyph glyph-name="u1082" unicode="&#x1082;" horiz-adv-x="2" 
d="M-64 -393c-14 -27.333 -33.835 -46.835 -59.502 -58.502s-51.5 -17.5 -77.5 -17.5c-23.333 0 -46.333 4.33301 -69 13s-42.667 21 -60 37s-31.333 35.5 -42 58.5s-16 48.833 -16 77.5c0 28 5.16699 53.833 15.5 77.5s24.333 44 42 61s37.667 30.167 60 39.5
s45.5 14 69.5 14v-71c-8 0 -18.667 -1.83301 -32 -5.5s-26.333 -10.167 -39 -19.5s-23.5 -21.833 -32.5 -37.5s-13.5 -35.167 -13.5 -58.5c0 -19.333 3.66699 -36.166 11 -50.499s16.833 -26.166 28.5 -35.499s24.334 -16.5 38.001 -21.5s26.834 -7.5 39.501 -7.5
c34 0 62.333 16.333 85 49l52 -44v0z" />
    <glyph glyph-name="u1083" unicode="&#x1083;" horiz-adv-x="319" 
d="M158 -464v815h-125v93h212v-815h124v-93h-211z" />
    <glyph glyph-name="u1084" unicode="&#x1084;" horiz-adv-x="546" 
d="M490 119c0 -40 -17.668 -73.165 -53.001 -99.498s-89.666 -39.5 -162.999 -39.5c-38 0 -70.833 4 -98.5 12s-50.334 18.833 -68.001 32.5s-30.834 29.5 -39.501 47.5s-13 37.333 -13 58c0 18.667 4.83301 36 14.5 52s22.167 29 37.5 39
c-15.333 9.33301 -27.833 22.166 -37.5 38.499s-14.5 34.166 -14.5 53.499c0 20.667 4.33301 40.167 13 58.5s21.834 34.333 39.501 48s40.334 24.5 68.001 32.5s60.5 12 98.5 12c70.667 0 124.334 -13.333 161.001 -40s55 -60 55 -100l-88 -32
c0 10 -2.83301 19.667 -8.5 29s-13.834 17.666 -24.501 24.999s-24 13.333 -40 18s-34.333 7 -55 7c-15.333 0 -30.5 -1 -45.5 -3s-28.5 -5.33301 -40.5 -10s-21.667 -10.667 -29 -18s-11 -16.333 -11 -27c0 -16 10.833 -28.5 32.5 -37.5s52.167 -14.167 91.5 -15.5v-77
c-39.333 -0.666992 -69.833 -5.5 -91.5 -14.5s-32.5 -21.5 -32.5 -37.5c0 -11.333 3.66699 -20.666 11 -27.999s17 -13.333 29 -18s25.5 -8 40.5 -10s30.167 -3 45.5 -3c42 0.666992 73.833 9.16699 95.5 25.5s32.5 34.5 32.5 54.5l88 -33v0z" />
    <glyph glyph-name="u1085" unicode="&#x1085;" 
d="M-55 652c0 -31.333 -13.667 -57.1641 -41 -77.4971s-69.333 -30.5 -126 -30.5c-58 0 -100.333 11.5 -127 34.5s-40 50.5 -40 82.5c0 14 3.5 27.333 10.5 40s16.833 22.334 29.5 29.001c-12.667 7.33301 -22.5 17.166 -29.5 29.499s-10.5 26.166 -10.5 41.499
c0 32.667 13.333 60.334 40 83.001s69 34 127 34c54.667 0 96.167 -10.167 124.5 -30.5s42.5 -46.166 42.5 -77.499l-67 -25c0 14 -8.16699 27.833 -24.5 41.5s-41.5 20.5 -75.5 20.5c-12 0 -23.667 -0.833008 -35 -2.5s-21.666 -4.33398 -30.999 -8.00098
s-16.833 -8.33398 -22.5 -14.001s-8.5 -12.834 -8.5 -21.501c0 -13.333 9 -23.333 27 -30s41 -10 69 -10v-59c-28 -0.666992 -51 -4.5 -69 -11.5s-27 -16.5 -27 -28.5c0 -8.66699 2.83301 -16 8.5 -22s13.167 -10.833 22.5 -14.5s19.666 -6.33398 30.999 -8.00098
s23 -2.5 35 -2.5c32.667 0 57.5 7 74.5 21s25.5 28 25.5 42l67 -26v0z" />
    <glyph glyph-name="u1086" unicode="&#x1086;" 
d="M-61 788c0 -30 -4.50195 -58.335 -13.502 -85.002s-20.5 -50.834 -34.5 -72.501s-29.333 -40.667 -46 -57s-32.667 -29.166 -48 -38.499l-17 15c10 6.66699 19.667 15.334 29 26.001s17.833 22.334 25.5 35.001s14.334 25.667 20.001 39s9.5 25.666 11.5 36.999
c-11.333 -4.66699 -25.333 -7 -42 -7c-16 0 -31 3.16699 -45 9.5s-26.167 14.833 -36.5 25.5s-18.666 23.334 -24.999 38.001s-9.5 30 -9.5 46c0 16.667 3.16699 32.167 9.5 46.5s14.666 26.833 24.999 37.5s22.5 19 36.5 25s29 9 45 9s30.833 -3 44.5 -9
s25.834 -14.333 36.501 -25s19 -23.167 25 -37.5s9 -29.833 9 -46.5v-11zM-122.002 799.998c0 13.333 -5.33301 25.5 -16 36.5s-23.667 16.5 -39 16.5c-17.333 0 -30.833 -5.5 -40.5 -16.5s-14.5 -23.167 -14.5 -36.5c0 -12.667 4.83301 -25.5 14.5 -38.5
s23.167 -19.5 40.5 -19.5c16.667 0 30 5.83301 40 17.5s15 25.167 15 40.5z" />
    </font>
</defs>
</svg>
